<svg width="29" height="29" viewBox="0 0 29 29" fill="none" xmlns="http://www.w3.org/2000/svg">
<path d="M23.75 0.625H5.25C4.02337 0.625 2.84699 1.11228 1.97963 1.97963C1.11228 2.84699 0.625 4.02337 0.625 5.25V23.75C0.625 24.9766 1.11228 26.153 1.97963 27.0204C2.84699 27.8877 4.02337 28.375 5.25 28.375H23.75C24.9766 28.375 26.153 27.8877 27.0204 27.0204C27.8877 26.153 28.375 24.9766 28.375 23.75V5.25C28.375 4.02337 27.8877 2.84699 27.0204 1.97963C26.153 1.11228 24.9766 0.625 23.75 0.625ZM18.6779 16.4887C18.8224 16.6321 18.9371 16.8026 19.0154 16.9904C19.0936 17.1783 19.1339 17.3798 19.1339 17.5833C19.1339 17.7869 19.0936 17.9884 19.0154 18.1762C18.9371 18.3641 18.8224 18.5346 18.6779 18.6779C18.5346 18.8224 18.3641 18.9371 18.1762 19.0154C17.9884 19.0936 17.7869 19.1339 17.5833 19.1339C17.3798 19.1339 17.1783 19.0936 16.9904 19.0154C16.8026 18.9371 16.6321 18.8224 16.4887 18.6779L14.5 16.6737L12.5112 18.6779C12.3679 18.8224 12.1974 18.9371 12.0096 19.0154C11.8217 19.0936 11.6202 19.1339 11.4167 19.1339C11.2131 19.1339 11.0116 19.0936 10.8238 19.0154C10.6359 18.9371 10.4654 18.8224 10.3221 18.6779C10.1776 18.5346 10.0629 18.3641 9.98463 18.1762C9.90636 17.9884 9.86606 17.7869 9.86606 17.5833C9.86606 17.3798 9.90636 17.1783 9.98463 16.9904C10.0629 16.8026 10.1776 16.6321 10.3221 16.4887L12.3263 14.5L10.3221 12.5112C10.0318 12.2209 9.86869 11.8272 9.86869 11.4167C9.86869 11.0061 10.0318 10.6124 10.3221 10.3221C10.6124 10.0318 11.0061 9.86869 11.4167 9.86869C11.8272 9.86869 12.2209 10.0318 12.5112 10.3221L14.5 12.3263L16.4887 10.3221C16.7791 10.0318 17.1728 9.86869 17.5833 9.86869C17.9939 9.86869 18.3876 10.0318 18.6779 10.3221C18.9682 10.6124 19.1313 11.0061 19.1313 11.4167C19.1313 11.8272 18.9682 12.2209 18.6779 12.5112L16.6737 14.5L18.6779 16.4887Z" fill="black"/>
</svg>
