<svg width="16" height="15" viewBox="0 0 16 15" fill="none" xmlns="http://www.w3.org/2000/svg">
<path fill-rule="evenodd" clip-rule="evenodd" d="M0.293726 0.275373C0.200619 0.362442 0.126749 0.465877 0.0763463 0.579752C0.0259438 0.693628 0 0.815707 0 0.938997C0 1.06229 0.0259438 1.18437 0.0763463 1.29824C0.126749 1.41212 0.200619 1.51555 0.293726 1.60262L14.2908 14.7251C14.4786 14.9011 14.7332 15 14.9987 15C15.2642 15 15.5188 14.9011 15.7065 14.7251C15.8943 14.5491 15.9997 14.3104 15.9997 14.0615C15.9997 13.8126 15.8943 13.5739 15.7065 13.3979L1.70943 0.275373C1.61656 0.188084 1.50623 0.118829 1.38477 0.0715759C1.2633 0.0243228 1.13309 0 1.00158 0C0.870072 0 0.739857 0.0243228 0.618392 0.0715759C0.496927 0.118829 0.386599 0.188084 0.293726 0.275373Z" fill="black"/>
</svg>
