<svg width="19" height="8" viewBox="0 0 19 8" fill="none" xmlns="http://www.w3.org/2000/svg">
<path fill-rule="evenodd" clip-rule="evenodd" d="M0.534617 1.45495C0.615664 1.24862 0.757389 1.0918 0.928717 1.01889C1.10005 0.945969 1.287 0.9629 1.44858 1.06597L9.32909 6.10183L17.2082 1.06423C17.2884 1.01186 17.3759 0.980307 17.4656 0.971378C17.5554 0.962449 17.6456 0.976323 17.7311 1.0122C17.8167 1.04808 17.8958 1.10525 17.964 1.18042C18.0321 1.25559 18.088 1.34727 18.1283 1.45017C18.1686 1.55308 18.1926 1.66517 18.1989 1.77999C18.2052 1.89481 18.1937 2.01009 18.1649 2.11918C18.1362 2.22826 18.0909 2.329 18.0316 2.41558C17.9723 2.50217 17.9002 2.57288 17.8194 2.62365L9.63466 7.85662C9.53981 7.91739 9.43518 7.94904 9.32909 7.94904C9.22301 7.94904 9.11838 7.91739 9.02353 7.85662L0.838816 2.62365C0.677456 2.52001 0.55482 2.33879 0.497796 2.11971C0.440771 1.90063 0.454013 1.66157 0.534617 1.45495Z" fill="#F1751B"/>
</svg>
