<svg width="10" height="10" viewBox="0 0 10 10" fill="none" xmlns="http://www.w3.org/2000/svg">
<path d="M5.20836 9.29791C4.31673 9.29791 3.44512 9.04584 2.70376 8.57359C1.96239 8.10133 1.38457 7.43009 1.04336 6.64476C0.702149 5.85942 0.612872 4.99526 0.78682 4.16156C0.960769 3.32785 1.39013 2.56204 2.02061 1.96097C2.65109 1.3599 3.45436 0.950568 4.32886 0.784733C5.20336 0.618898 6.1098 0.704011 6.93356 1.02931C7.75732 1.3546 8.4614 1.90547 8.95676 2.61226C9.45212 3.31904 9.71652 4.14999 9.71652 5.00003C9.72255 5.56603 9.61006 6.12749 9.38564 6.65153C9.16122 7.17557 8.82937 7.65165 8.40955 8.0519C7.98972 8.45214 7.49034 8.76851 6.94067 8.98246C6.39099 9.19641 5.80206 9.30366 5.20836 9.29791ZM5.20836 2.13478C4.81115 2.12596 4.41619 2.19404 4.04737 2.33491C3.67855 2.47578 3.34353 2.68651 3.06259 2.95435C2.78164 3.22219 2.5606 3.54158 2.41284 3.89319C2.26508 4.24481 2.19366 4.62135 2.20292 5.00003C2.19366 5.37871 2.26508 5.75525 2.41284 6.10687C2.5606 6.45848 2.78164 6.77787 3.06259 7.04571C3.34353 7.31355 3.67855 7.52428 4.04737 7.66515C4.41619 7.80602 4.81115 7.87411 5.20836 7.86528C5.60557 7.87411 6.00053 7.80602 6.36935 7.66515C6.73817 7.52428 7.07318 7.31355 7.35413 7.04571C7.63508 6.77787 7.85612 6.45848 8.00388 6.10687C8.15164 5.75525 8.22305 5.37871 8.2138 5.00003C8.22305 4.62135 8.15164 4.24481 8.00388 3.89319C7.85612 3.54158 7.63508 3.22219 7.35413 2.95435C7.07318 2.68651 6.73817 2.47578 6.36935 2.33491C6.00053 2.19404 5.60557 2.12596 5.20836 2.13478Z" fill="#686868"/>
</svg>
