<svg width="21" height="20" viewBox="0 0 21 20" fill="none" xmlns="http://www.w3.org/2000/svg">
<path d="M18.4738 10.5444V10V9.44844L19.9164 8.24503C20.1824 8.02158 20.3569 7.7157 20.4091 7.38144C20.4614 7.04719 20.388 6.7061 20.202 6.41843L18.4287 3.55318C18.297 3.33561 18.1075 3.15489 17.8794 3.02917C17.6512 2.90344 17.3924 2.83712 17.1289 2.83686C16.9656 2.83567 16.8032 2.85987 16.648 2.9085L14.8222 3.49587C14.507 3.29617 14.1782 3.1167 13.8379 2.95864L13.4547 1.15353C13.386 0.823741 13.1978 0.527499 12.9231 0.316661C12.6484 0.105822 12.3046 -0.00617905 11.952 0.000263196H8.43565C8.08304 -0.00617905 7.73928 0.105822 7.46455 0.316661C7.18983 0.527499 7.00164 0.823741 6.93293 1.15353L6.54974 2.95864C6.20707 3.11666 5.87574 3.29613 5.55794 3.49587L3.7697 2.87984C3.61289 2.84089 3.4505 2.82638 3.28883 2.83686C3.02531 2.83712 2.76649 2.90344 2.53834 3.02917C2.3102 3.15489 2.12074 3.33561 1.98898 3.55318L0.215766 6.41843C0.0403883 6.70567 -0.0247812 7.0421 0.0314188 7.3701C0.0876187 7.69811 0.261691 7.99728 0.523823 8.21638L1.9439 9.4556V10.5516L0.523823 11.755C0.254287 11.9756 0.0754531 12.2801 0.0190584 12.6145C-0.0373363 12.9489 0.0323554 13.2915 0.215766 13.5816L1.98898 16.4468C2.12074 16.6644 2.3102 16.8451 2.53834 16.9708C2.76649 17.0966 3.02531 17.1629 3.28883 17.1631C3.45214 17.1643 3.61456 17.1401 3.7697 17.0915L5.59551 16.5041C5.91073 16.7038 6.23956 16.8833 6.57979 17.0414L6.96298 18.8465C7.03169 19.1763 7.21988 19.4725 7.49461 19.6833C7.76933 19.8942 8.11309 20.0062 8.46571 19.9997H12.0121C12.3647 20.0062 12.7085 19.8942 12.9832 19.6833C13.258 19.4725 13.4461 19.1763 13.5148 18.8465L13.898 17.0414C14.2407 16.8833 14.572 16.7039 14.8898 16.5041L16.7081 17.0915C16.8633 17.1401 17.0257 17.1643 17.189 17.1631C17.4525 17.1629 17.7113 17.0966 17.9395 16.9708C18.1676 16.8451 18.3571 16.6644 18.4889 16.4468L20.202 13.5816C20.3773 13.2943 20.4425 12.9579 20.3863 12.6299C20.3301 12.3019 20.156 12.0027 19.8939 11.7836L18.4738 10.5444ZM17.1289 15.7305L14.5517 14.8996C13.9484 15.3868 13.2589 15.7676 12.5155 16.0242L11.9821 18.5958H8.43565L7.90219 16.0529C7.16467 15.7889 6.4789 15.4088 5.87351 14.9282L3.28883 15.7305L1.51562 12.8653L3.55932 11.1461C3.42039 10.4046 3.42039 9.64553 3.55932 8.90404L1.51562 7.13475L3.28883 4.26949L5.866 5.10042C6.46929 4.61325 7.15879 4.23243 7.90219 3.9758L8.43565 1.40424H11.9821L12.5155 3.94715C13.2531 4.21106 13.9388 4.59122 14.5442 5.07176L17.1289 4.26949L18.9021 7.13475L16.8584 8.8539C16.9973 9.59538 16.9973 10.3545 16.8584 11.096L18.9021 12.8653L17.1289 15.7305Z" fill="#686868"/>
</svg>
