<svg width="19" height="22" viewBox="0 0 19 22" fill="none" xmlns="http://www.w3.org/2000/svg">
<path d="M7.94187 4.02758e-05C6.55078 -0.00380279 5.17274 0.267416 3.8876 0.797985C2.60246 1.32855 1.43575 2.10793 0.455078 3.09095L2.11855 4.74834C3.67379 3.19879 5.74195 2.3443 7.94187 2.3443C10.1418 2.3443 12.21 3.19879 13.7652 4.74834C15.3204 6.2979 16.1781 8.35851 16.1781 10.5504C16.1781 12.7423 15.3204 14.8029 13.7652 16.3524C12.21 17.902 10.1418 18.7565 7.94187 18.7565C5.74195 18.7565 3.67379 17.902 2.11855 16.3524L0.455078 18.0098C2.45383 20.0025 5.11256 21.1007 7.94187 21.1007C10.7712 21.1007 13.4299 20.0025 15.4287 18.0098C17.4286 16.0184 18.5309 13.3694 18.5309 10.5504C18.5309 7.73142 17.4286 5.0824 15.4287 3.09095C14.448 2.10793 13.2813 1.32855 11.9961 0.797985C10.711 0.267416 9.33297 -0.00380279 7.94187 4.02758e-05Z" fill="#686868"/>
</svg>
