<svg width="8" height="8" viewBox="0 0 8 8" fill="none" xmlns="http://www.w3.org/2000/svg">
<path fill-rule="evenodd" clip-rule="evenodd" d="M7.61797 3.90865C7.61797 4.82485 7.26348 5.70352 6.63249 6.35138C6.0015 6.99923 5.14568 7.36319 4.25332 7.36319C3.36096 7.36319 2.50515 6.99923 1.87416 6.35138C1.24316 5.70352 0.888672 4.82485 0.888672 3.90865C0.888672 2.99244 1.24316 2.11377 1.87416 1.46591C2.50515 0.818061 3.36096 0.454102 4.25332 0.454102C5.14568 0.454102 6.0015 0.818061 6.63249 1.46591C7.26348 2.11377 7.61797 2.99244 7.61797 3.90865ZM5.93565 3.90865C5.93565 4.36675 5.7584 4.80608 5.44291 5.13001C5.12741 5.45394 4.6995 5.63592 4.25332 5.63592C3.80714 5.63592 3.37924 5.45394 3.06374 5.13001C2.74824 4.80608 2.571 4.36675 2.571 3.90865C2.571 3.45054 2.74824 3.01121 3.06374 2.68728C3.37924 2.36335 3.80714 2.18137 4.25332 2.18137C4.6995 2.18137 5.12741 2.36335 5.44291 2.68728C5.7584 3.01121 5.93565 3.45054 5.93565 3.90865Z" fill="#686868"/>
</svg>
