<svg width="19" height="19" viewBox="0 0 19 19" fill="none" xmlns="http://www.w3.org/2000/svg">
<path fill-rule="evenodd" clip-rule="evenodd" d="M9.25279 0C4.14272 0 0 4.25341 0 9.5C0 14.7466 4.14272 19 9.25279 19C14.3628 19 18.5056 14.7466 18.5056 9.5C18.5056 4.25341 14.3628 0 9.25279 0ZM1.68232 9.5C1.68232 11.305 2.28207 12.9666 3.28726 14.2863C3.99319 13.3345 4.90389 12.5631 5.94822 12.0325C6.99255 11.5018 8.14224 11.2262 9.30746 11.2273C10.4576 11.2262 11.5928 11.4946 12.6266 12.0121C13.6604 12.5297 14.5655 13.2827 15.273 14.2137C16.0018 13.2323 16.4925 12.0868 16.7046 10.872C16.9166 9.65715 16.8438 8.40796 16.4922 7.22776C16.1407 6.04756 15.5205 4.97027 14.6829 4.08503C13.8453 3.1998 12.8145 2.53206 11.6757 2.13708C10.5368 1.74209 9.32277 1.63121 8.13392 1.81361C6.94508 1.99601 5.81562 2.46645 4.83901 3.186C3.8624 3.90555 3.06672 4.85352 2.51779 5.95149C1.96886 7.04945 1.68248 8.26584 1.68232 9.5ZM9.25279 17.2727C7.5149 17.2754 5.82948 16.6616 4.48171 15.5351C5.0242 14.7377 5.74626 14.0867 6.58646 13.6374C7.42666 13.1881 8.36013 12.9539 9.30746 12.9545C10.243 12.9538 11.1652 13.1822 11.9974 13.6208C12.8297 14.0594 13.5481 14.6955 14.0928 15.4764C12.7346 16.6394 11.0214 17.2753 9.25279 17.2727Z" fill="#686868"/>
</svg>
