<svg width="23" height="18" viewBox="0 0 23 18" fill="none" xmlns="http://www.w3.org/2000/svg">
<path d="M6.9 9.26245C9.12453 9.26245 10.925 7.40327 10.925 5.1062C10.925 2.80913 9.12453 0.949951 6.9 0.949951C4.67547 0.949951 2.875 2.80913 2.875 5.1062C2.875 7.40327 4.67547 9.26245 6.9 9.26245ZM9.66 10.45H9.36172C8.61422 10.821 7.78406 11.0437 6.9 11.0437C6.01594 11.0437 5.18937 10.821 4.43828 10.45H4.14C1.85437 10.45 0 12.3648 0 14.725V15.7937C0 16.7771 0.772656 17.575 1.725 17.575H12.075C13.0273 17.575 13.8 16.7771 13.8 15.7937V14.725C13.8 12.3648 11.9456 10.45 9.66 10.45ZM17.25 9.26245C19.1547 9.26245 20.7 7.66675 20.7 5.69995C20.7 3.73315 19.1547 2.13745 17.25 2.13745C15.3453 2.13745 13.8 3.73315 13.8 5.69995C13.8 7.66675 15.3453 9.26245 17.25 9.26245ZM18.975 10.45H18.8384C18.3389 10.6281 17.8106 10.7468 17.25 10.7468C16.6894 10.7468 16.1611 10.6281 15.6616 10.45H15.525C14.7919 10.45 14.1162 10.6689 13.5233 11.0214C14.4002 11.9974 14.95 13.2925 14.95 14.725V16.15C14.95 16.2316 14.932 16.3095 14.9284 16.3875H21.275C22.2273 16.3875 23 15.5896 23 14.6062C23 12.3091 21.1995 10.45 18.975 10.45Z" fill="#686868"/>
</svg>
