<svg width="22" height="21" viewBox="0 0 22 21" fill="none" xmlns="http://www.w3.org/2000/svg">
<path d="M10.997 17.2063L17.1254 20.9119C17.5758 21.1851 18.133 20.7813 18.0144 20.2706L16.3905 13.2869L21.7958 8.59556C22.187 8.25113 21.9855 7.5979 21.452 7.5504L14.3279 6.94467L11.5423 0.364861C11.4976 0.25685 11.4219 0.164543 11.3248 0.0996014C11.2278 0.0346603 11.1137 0 10.997 0C10.8803 0 10.7662 0.0346603 10.6691 0.0996014C10.5721 0.164543 10.4964 0.25685 10.4517 0.364861L7.66608 6.94467L0.541952 7.5504C0.425266 7.56044 0.314166 7.6049 0.222677 7.67815C0.131188 7.75141 0.0634102 7.85018 0.0279004 7.962C-0.00760946 8.07382 -0.00925963 8.19368 0.0231581 8.30644C0.0555758 8.4192 0.120608 8.51981 0.210046 8.59556L5.61537 13.2869L3.99141 20.2706C3.87287 20.7813 4.43 21.1851 4.88044 20.9119L10.997 17.2063Z" fill="#686868"/>
</svg>
