<svg width="21" height="17" viewBox="0 0 21 17" fill="none" xmlns="http://www.w3.org/2000/svg">
<path d="M3.15 10.433V12.5196C3.1584 13.9864 3.8556 13.7585 4.3722 13.3182L7.35 10.6468V11.9979C7.35 13.2655 7.644 13.5628 8.925 13.5628H13.65C13.65 13.5628 16.3847 16.7579 16.4062 16.7366C16.8 17.2144 17.8663 17.0516 17.85 16.1711V13.5628H19.425C20.7112 13.5628 21 13.2452 21 11.9979V4.17318C21 2.92123 20.6902 2.60824 19.425 2.60824H14.175V1.56494C14.175 0.276473 13.9335 0 12.6 0H1.575C0.336 0 0 0.266041 0 1.56494V8.34637C0 9.61867 0.28875 10.433 1.575 10.433H3.15ZM16.275 11.9979V14.4606L14.175 11.9979H9.45C9.05625 11.9979 8.925 11.8571 8.925 11.4763V4.69483C8.925 4.34533 9.08775 4.17318 9.45 4.17318H18.9C19.2617 4.17318 19.425 4.36619 19.425 4.66353V11.4763C19.425 11.8524 19.2365 11.9979 18.9 11.9979H16.275Z" fill="#686868"/>
</svg>
