<?xml version="1.0" encoding="utf-8"?>
<svg viewBox="0 0 26.015 31.176" width="26.015" height="31.176" xmlns="http://www.w3.org/2000/svg">
  <path d="M 25.897 19.947 C 25.789 19.947 26.105 21.645 25.875 23.56 C 25.622 25.662 24.817 28.004 24.581 28.092 C 22.614 28.823 18.875 30.57 17.782 31.116 C 16.26 31.876 9.961 27.117 8.903 26.058 C 7.555 24.712 3.028 25.692 2.321 25.338 C 1.766 25.061 1.558 24.396 1.719 23.753 C 2.681 19.907 9.342 22.733 9.954 21.508 C 11.169 19.077 9.377 17.182 8.623 14.961 C 8.267 13.909 6.279 10.093 5.694 7.998 C 5.517 7.363 5.682 6.687 5.809 6.561 C 8.217 4.153 11.205 13.829 12.167 14.553 C 12.474 14.784 12.444 13.172 13.185 12.802 C 14.128 12.331 14.918 13.922 15.712 13.524 C 16.22 13.27 16.165 12.199 16.903 11.83 C 17.859 11.352 18.382 12.585 19.114 12.585 C 19.965 12.585 20.453 11.2 21.643 11.795 C 22.838 12.393 23.355 13.622 23.742 14.852 C 24.279 16.553 25.38 18.31 25.897 19.947 Z" style=""/>
  <path d="M 7.211 13.857 C 7.145 13.859 7.079 13.86 7.012 13.86 C 3.175 13.86 0.061 10.745 0.061 6.908 C 0.061 3.071 3.175 -0.044 7.012 -0.044 C 10.85 -0.044 13.965 3.071 13.965 6.908 C 13.965 8.855 13.164 10.616 11.872 11.878 L 10.811 9.751 C 11.405 8.958 11.758 7.975 11.758 6.908 C 11.758 4.289 9.631 2.163 7.012 2.163 C 4.394 2.163 2.268 4.289 2.268 6.908 C 2.268 9.272 4 11.234 6.264 11.594 L 7.211 13.857 Z" style=""/>
</svg>