<svg width="31" height="31" viewBox="0 0 31 31" fill="none" xmlns="http://www.w3.org/2000/svg">
<path d="M15.5 0.1875C12.4715 0.1875 9.51096 1.08556 6.99284 2.76812C4.47471 4.45068 2.51207 6.84217 1.3531 9.64016C0.194135 12.4382 -0.109104 15.517 0.481732 18.4873C1.07257 21.4577 2.53094 24.1861 4.67243 26.3276C6.81392 28.4691 9.54235 29.9274 12.5127 30.5183C15.483 31.1091 18.5619 30.8059 21.3598 29.6469C24.1578 28.4879 26.5493 26.5253 28.2319 24.0072C29.9144 21.489 30.8125 18.5285 30.8125 15.5C30.8125 11.4389 29.1992 7.54408 26.3276 4.67243C23.4559 1.80078 19.5611 0.1875 15.5 0.1875ZM15.5 5.65625C15.8245 5.65625 16.1417 5.75247 16.4115 5.93274C16.6813 6.11302 16.8916 6.36925 17.0157 6.66903C17.1399 6.96882 17.1724 7.29869 17.1091 7.61694C17.0458 7.93519 16.8895 8.22753 16.6601 8.45697C16.4307 8.68642 16.1383 8.84267 15.8201 8.90598C15.5018 8.96928 15.172 8.93679 14.8722 8.81261C14.5724 8.68844 14.3161 8.47816 14.1359 8.20836C13.9556 7.93856 13.8594 7.62136 13.8594 7.29687C13.8594 6.86175 14.0322 6.44445 14.3399 6.13678C14.6476 5.8291 15.0649 5.65625 15.5 5.65625ZM19.875 24.3867H11.125V21.9258H14.2695V14.543H12.2188V12.082H16.7305V21.9258H19.875V24.3867Z" />
</svg>
