<svg width="26" height="24" viewBox="0 0 26 24" fill="none" xmlns="http://www.w3.org/2000/svg">
<path d="M7.93215 11C8.80832 11 9.5186 10.3284 9.5186 9.5C9.5186 8.67157 8.80832 8 7.93215 8C7.05598 8 6.3457 8.67157 6.3457 9.5C6.3457 10.3284 7.05598 11 7.93215 11Z" fill="#8F8F8F"/>
<path d="M11.105 14L9.5186 12L6.3457 16H19.0373L14.2779 10L11.105 14Z" fill="#8F8F8F"/>
<path d="M21.1507 4H4.22855C3.06198 4 2.11328 4.897 2.11328 6V18C2.11328 19.103 3.06198 20 4.22855 20H21.1507C22.3172 20 23.2659 19.103 23.2659 18V6C23.2659 4.897 22.3172 4 21.1507 4ZM4.22855 18V6H21.1507L21.1528 18H4.22855Z" fill="#8F8F8F"/>
</svg>
