<svg width="7" height="13" viewBox="0 0 7 13" fill="none" xmlns="http://www.w3.org/2000/svg">
<path fill-rule="evenodd" clip-rule="evenodd" d="M0.487577 12.6958C0.280662 12.639 0.123402 12.5397 0.0502782 12.4196C-0.0228457 12.2996 -0.00586626 12.1685 0.0974945 12.0553L5.14757 6.5325L0.0957453 1.01064C0.0432345 0.954461 0.0115899 0.893159 0.0026357 0.830266C-0.00631852 0.767373 0.00759479 0.704132 0.0435737 0.644192C0.0795525 0.584251 0.136885 0.528797 0.212266 0.481023C0.287647 0.433249 0.379586 0.394103 0.482781 0.365841C0.585976 0.337579 0.698386 0.320759 0.813532 0.316353C0.928677 0.311946 1.04428 0.32004 1.15367 0.340167C1.26307 0.360293 1.36409 0.392056 1.45092 0.433621C1.53775 0.475187 1.60866 0.525736 1.65957 0.582352L6.90732 6.31835C6.96827 6.38482 7 6.45815 7 6.5325C7 6.60684 6.96827 6.68017 6.90732 6.74664L1.65957 12.4826C1.55564 12.5957 1.37391 12.6817 1.15421 12.7216C0.934508 12.7616 0.694776 12.7523 0.487577 12.6958Z" fill="#5C5C5C"/>
</svg>
