<svg width="166" height="401" viewBox="0 0 166 401" fill="none" xmlns="http://www.w3.org/2000/svg">
<path fill-rule="evenodd" clip-rule="evenodd" d="M34.0553 217.312C49.1973 266.275 9.93861 308.412 0.711939 356.75C-6.36824 393.842 1.15851 433.081 -13.6022 466.984C-32.0244 509.297 -48.2063 567.481 -93.4243 572.967C-139.383 578.542 -169.763 514.974 -212.585 491.122C-249.986 470.289 -302.242 479.222 -326.886 442.925C-351.551 406.595 -326.13 360.681 -330.207 317.878C-335.175 265.726 -381.037 206.289 -353.3 165.62C-325.965 125.539 -259.855 156.033 -212.704 145.587C-165.311 135.088 -125.92 90.3469 -77.304 104.478C-27.3653 118.994 18.0813 165.659 34.0553 217.312Z" fill="#F41882"/>
</svg>
