<svg width="212" height="131" viewBox="0 0 212 131" fill="none" xmlns="http://www.w3.org/2000/svg">
<path fill-rule="evenodd" clip-rule="evenodd" d="M-70.1258 502.586C-119.396 484.839 -131.059 420.107 -165.488 379.72C-191.907 348.728 -228.683 330.147 -247.958 293.98C-272.015 248.841 -310.474 195.425 -288.415 149.063C-265.996 101.94 -195.728 114.841 -150.889 89.96C-111.727 68.2289 -88.3742 12.9512 -43.9611 13.4156C0.490774 13.8804 23.4024 67.9978 61.0889 92.1763C107.007 121.636 182.971 117.187 200.197 170.06C217.174 222.167 153.17 264.725 134.065 316.165C114.861 367.868 128.594 434.431 88.3646 471.16C47.0409 508.888 -18.1489 521.309 -70.1258 502.586Z" fill="#F1751B"/>
</svg>
