<svg width="66" height="452" viewBox="0 0 66 452" fill="none" xmlns="http://www.w3.org/2000/svg">
<path fill-rule="evenodd" clip-rule="evenodd" d="M229.378 7.99249C272.956 23.7384 285.098 82.311 316.394 118.671C340.409 146.572 373.098 163.158 391.028 195.797C413.406 236.533 448.616 284.67 430.744 326.828C412.579 369.676 350.803 358.464 312.382 381.313C278.825 401.268 260.092 451.513 221.278 451.393C182.43 451.274 160.781 402.396 127.129 380.744C86.1249 354.363 19.8963 358.91 3.25224 311.121C-13.1508 264.023 41.4796 225.028 56.6184 178.29C71.835 131.313 57.8298 71.0951 91.8667 37.5432C126.829 3.07866 183.405 -8.61856 229.378 7.99249Z" fill="#F41882"/>
</svg>
