<svg width="164" height="290" viewBox="0 0 164 290" fill="none" xmlns="http://www.w3.org/2000/svg">
<path fill-rule="evenodd" clip-rule="evenodd" d="M32.0553 217.312C47.1973 266.275 7.93861 308.412 -1.28806 356.75C-8.36824 393.842 -0.841493 433.081 -15.6022 466.984C-34.0244 509.297 -50.2063 567.481 -95.4243 572.967C-141.383 578.542 -171.763 514.974 -214.585 491.122C-251.986 470.289 -304.242 479.222 -328.886 442.925C-353.551 406.595 -328.13 360.681 -332.207 317.878C-337.175 265.726 -383.037 206.289 -355.3 165.62C-327.965 125.539 -261.855 156.033 -214.704 145.587C-167.311 135.088 -127.92 90.3469 -79.304 104.478C-29.3653 118.994 16.0813 165.659 32.0553 217.312Z" fill="#F41882"/>
</svg>
