<svg width="104" height="441" viewBox="0 0 104 441" fill="none" xmlns="http://www.w3.org/2000/svg">
<path fill-rule="evenodd" clip-rule="evenodd" d="M-346.571 142.147C-328.025 94.3693 -271.085 85.7315 -233.83 53.5804C-205.242 28.9091 -186.768 -6.51763 -154.141 -23.9191C-113.422 -45.6372 -64.5991 -81.1854 -25.7545 -57.3976C13.7263 -33.2202 -1.94904 35.4676 16.7949 80.7594C33.1661 120.318 79.6679 145.774 76.4356 189.528C73.2006 233.32 24.7591 253.513 1.36797 289.59C-27.1326 333.548 -28.1089 408.615 -75.1077 423.26C-121.426 437.692 -154.295 372.731 -197.736 351.629C-241.399 330.42 -300.06 341.017 -329.384 299.745C-359.505 257.35 -366.136 192.55 -346.571 142.147Z" fill="#DD1E36"/>
</svg>
