<svg width="72" height="415" viewBox="0 0 72 415" fill="none" xmlns="http://www.w3.org/2000/svg">
<path fill-rule="evenodd" clip-rule="evenodd" d="M381.004 83.7588C402.944 124.463 372.211 166.955 370.932 210.589C369.951 244.073 383.161 277.351 374.399 309.138C363.463 348.81 357.108 402.058 315.052 413.313C272.307 424.752 233.65 373.436 189.33 358.665C150.621 345.763 102.42 361.041 73.4237 332.78C44.4016 304.495 61.4208 260.671 50.9325 223.781C38.1532 178.832 -14.5546 133.342 5.47328 93.779C25.211 54.7891 92.6544 72.0516 135.777 56.1787C179.122 40.2242 209.578 -4.56646 257.892 0.867349C307.52 6.44899 357.859 40.8177 381.004 83.7588Z" fill="#F1751B"/>
</svg>
