<svg width="164" height="646" viewBox="0 0 164 646" fill="none" xmlns="http://www.w3.org/2000/svg">
<path fill-rule="evenodd" clip-rule="evenodd" d="M32.0558 217.312C47.1978 266.275 7.9391 308.412 -1.28757 356.75C-8.36775 393.842 -0.841004 433.081 -15.6017 466.984C-34.0239 509.297 -50.2058 567.481 -95.4239 572.967C-141.383 578.542 -171.762 514.974 -214.584 491.122C-251.986 470.289 -304.241 479.222 -328.885 442.925C-353.551 406.595 -328.13 360.681 -332.207 317.878C-337.175 265.726 -383.037 206.289 -355.3 165.62C-327.965 125.539 -261.855 156.033 -214.704 145.587C-167.311 135.088 -127.92 90.3469 -79.3035 104.478C-29.3648 118.994 16.0818 165.659 32.0558 217.312Z" fill="#F41882"/>
</svg>
