<svg width="41" height="278" viewBox="0 0 41 278" fill="none" xmlns="http://www.w3.org/2000/svg">
<path fill-rule="evenodd" clip-rule="evenodd" d="M229.867 -165.82C273.445 -150.074 285.587 -91.5015 316.883 -55.1418C340.899 -27.2408 373.587 -10.6546 391.517 21.9847C413.895 62.7203 449.105 110.857 431.233 153.015C413.069 195.863 351.292 184.652 312.871 207.5C279.314 227.456 260.581 277.7 221.767 277.581C182.919 277.462 161.271 228.583 127.618 206.932C86.6141 180.551 20.3856 185.098 3.7415 137.308C-12.6615 90.2106 41.9688 51.2156 57.1077 4.47782C72.3242 -42.4999 58.3191 -102.717 92.3559 -136.269C127.319 -170.734 183.895 -182.431 229.867 -165.82Z" fill="#F41882"/>
</svg>
