<svg width="155" height="188" viewBox="0 0 155 188" fill="none" xmlns="http://www.w3.org/2000/svg">
<path fill-rule="evenodd" clip-rule="evenodd" d="M-146.472 139.777C-186.484 118.283 -188.375 60.0429 -212.831 20.4491C-231.597 -9.93357 -260.795 -30.6611 -272.789 -64.7319C-287.758 -107.254 -314.037 -158.772 -289.323 -196.837C-264.203 -235.526 -205.585 -215.77 -164.033 -232.24C-127.742 -246.625 -100.802 -292.364 -62.7886 -286.629C-24.7423 -280.889 -11.8789 -230.62 17.3985 -204.868C53.0712 -173.491 118.745 -168.287 126.89 -119.792C134.918 -72.0003 74.7246 -42.307 51.906 0.57106C28.9703 43.6691 32.4069 103.766 -6.67722 131.192C-46.8245 159.364 -104.261 162.452 -146.472 139.777Z" fill="#F1751B"/>
</svg>
