<svg width="268" height="207" viewBox="0 0 268 207" fill="none" xmlns="http://www.w3.org/2000/svg">
<path fill-rule="evenodd" clip-rule="evenodd" d="M-98.6517 533.655C-143.715 506.976 -143.021 441.205 -169.258 395.074C-189.391 359.674 -222.026 334.521 -234.17 295.378C-249.327 246.526 -277.077 186.842 -246.709 145.443C-215.843 103.367 -149.245 129.226 -100.533 113.203C-57.9885 99.209 -24.6757 49.2968 18.8609 58.0889C62.4355 66.8886 74.7826 124.345 107.261 155.167C146.834 192.722 222.283 202.609 229.279 257.776C236.174 312.143 165.32 341.932 136.9 388.871C108.333 436.052 109.328 504.01 62.9204 532.535C15.2499 561.836 -51.1126 561.801 -98.6517 533.655Z" fill="#F1751B"/>
</svg>
