<svg width="26" height="395" viewBox="0 0 26 395" fill="none" xmlns="http://www.w3.org/2000/svg">
<path fill-rule="evenodd" clip-rule="evenodd" d="M107.474 1.70938C152.188 -6.26597 189.814 38.2299 233.561 54.1014C267.131 66.2806 302.889 64.4152 333.438 83.6891C371.563 107.744 424.14 131.834 428.382 177.02C432.694 222.947 374.468 243.831 352.105 282.532C332.574 316.333 339.832 368.917 306.465 388.009C273.069 407.118 231.787 375.682 192.848 373.657C145.404 371.19 90.6758 407.863 54.1946 374.891C18.2418 342.396 47.0163 281.758 38.3012 233.975C29.5414 185.946 -10.4472 140.953 3.18118 95.1928C17.1803 48.1873 60.3033 10.1229 107.474 1.70938Z" fill="#DD1E36"/>
</svg>
