<svg width="147" height="653" viewBox="0 0 147 653" fill="none" xmlns="http://www.w3.org/2000/svg">
<path fill-rule="evenodd" clip-rule="evenodd" d="M492.298 205.458C511.565 252.95 476.046 298.284 470.979 347.232C467.091 384.794 477.94 423.247 466.127 458.286C451.384 502.017 440.228 561.371 395.644 570.696C350.328 580.174 314.633 519.432 269.931 499.322C230.888 481.757 179.586 495.119 151.934 461.058C124.257 426.966 145.666 379.05 137.95 336.751C128.548 285.213 77.78 229.908 101.944 187.02C125.758 144.752 194.23 169.491 240.317 155.059C286.641 140.553 322.068 92.6119 371.714 102.541C422.709 112.741 471.973 155.357 492.298 205.458Z" fill="#DD1E36"/>
</svg>
