<svg width="26" height="332" viewBox="0 0 26 332" fill="none" xmlns="http://www.w3.org/2000/svg">
<path fill-rule="evenodd" clip-rule="evenodd" d="M-248.471 316.777C-288.483 295.283 -290.375 237.043 -314.83 197.449C-333.597 167.066 -362.794 146.339 -374.788 112.268C-389.758 69.7458 -416.036 18.2282 -391.322 -19.8374C-366.203 -58.5265 -307.584 -38.7703 -266.033 -55.2401C-229.741 -69.6249 -202.801 -115.364 -164.788 -109.629C-126.742 -103.889 -113.878 -53.6196 -84.601 -27.868C-48.9284 3.50869 16.7453 8.7134 24.8909 57.2077C32.9184 105 -27.2749 134.693 -50.0935 177.571C-73.0293 220.669 -69.5926 280.766 -108.677 308.192C-148.824 336.364 -206.261 339.452 -248.471 316.777Z" fill="#F1751B"/>
</svg>
