<svg width="164" height="621" viewBox="0 0 164 621" fill="none" xmlns="http://www.w3.org/2000/svg">
<path fill-rule="evenodd" clip-rule="evenodd" d="M32.0559 217.312C47.1979 266.275 7.93922 308.412 -1.28745 356.75C-8.36763 393.842 -0.840882 433.081 -15.6016 466.984C-34.0238 509.297 -50.2056 567.481 -95.4237 572.967C-141.382 578.542 -171.762 514.974 -214.584 491.122C-251.986 470.289 -304.241 479.222 -328.885 442.925C-353.551 406.595 -328.13 360.681 -332.207 317.878C-337.175 265.726 -383.037 206.289 -355.3 165.62C-327.964 125.539 -261.855 156.033 -214.704 145.587C-167.311 135.088 -127.92 90.3469 -79.3034 104.478C-29.3646 118.994 16.0819 165.659 32.0559 217.312Z" fill="#F1751B"/>
</svg>
