<svg width="164" height="628" viewBox="0 0 164 628" fill="none" xmlns="http://www.w3.org/2000/svg">
<path fill-rule="evenodd" clip-rule="evenodd" d="M32.0555 199.312C47.1975 248.275 7.93885 290.412 -1.28782 338.75C-8.368 375.842 -0.841248 415.081 -15.602 448.984C-34.0241 491.297 -50.206 549.481 -95.4241 554.967C-141.383 560.542 -171.763 496.974 -214.585 473.122C-251.986 452.289 -304.241 461.222 -328.885 424.925C-353.551 388.595 -328.13 342.681 -332.207 299.878C-337.175 247.726 -383.037 188.289 -355.3 147.62C-327.965 107.539 -261.855 138.033 -214.704 127.587C-167.311 117.088 -127.92 72.3469 -79.3038 86.478C-29.365 100.994 16.0816 147.659 32.0555 199.312Z" fill="#F41882"/>
</svg>
