<svg width="97" height="389" viewBox="0 0 97 389" fill="none" xmlns="http://www.w3.org/2000/svg">
<path fill-rule="evenodd" clip-rule="evenodd" d="M54.9917 29.498C92.4926 2.28268 147.776 25.1289 195.436 19.6523C232.008 15.4497 264.089 -2.28329 301.165 1.21003C347.437 5.56986 407.04 3.46843 431.886 41.9308C457.139 81.0231 413.171 125.842 410.5 170.464C408.167 209.437 439.221 253.153 417.325 285.202C395.411 317.278 342.81 307.742 305.996 323.429C261.142 342.542 227.712 399.894 178.823 386.829C130.641 373.953 129.055 306.851 98.8841 268.079C68.5586 229.107 10.8681 206.878 2.22043 159.874C-6.66244 111.59 15.4304 58.2087 54.9917 29.498Z" fill="#F41882"/>
</svg>
