<svg width="82" height="334" viewBox="0 0 82 334" fill="none" xmlns="http://www.w3.org/2000/svg">
<path fill-rule="evenodd" clip-rule="evenodd" d="M-258.353 -149.609C-212.958 -151.095 -182.097 -101.666 -141.075 -79.6895C-109.597 -62.8254 -73.9405 -59.5474 -46.4694 -36.095C-12.184 -6.82499 36.3979 24.5508 34.1211 69.8785C31.807 115.949 -28.8111 128.274 -56.4884 163.37C-80.662 194.024 -81.0136 247.105 -116.772 261.219C-152.562 275.346 -188.913 238.318 -227.16 230.734C-273.761 221.494 -333.18 249.946 -364.559 212.086C-395.485 174.775 -358.318 118.886 -360.096 70.3468C-361.882 21.5585 -395.011 -28.7 -374.966 -72.0354C-354.375 -116.55 -306.243 -148.042 -258.353 -149.609Z" fill="#DD1E36"/>
</svg>
