<svg width="337" height="163" viewBox="0 0 337 163" fill="none" xmlns="http://www.w3.org/2000/svg">
<path fill-rule="evenodd" clip-rule="evenodd" d="M491.129 202.455C511.344 249.551 476.742 295.589 472.658 344.629C469.524 382.26 481.142 420.488 470.034 455.758C456.171 499.775 446.208 559.341 401.819 569.558C356.703 579.943 319.797 519.929 274.701 500.72C235.313 483.942 184.289 498.33 155.959 464.83C127.604 431.3 148.048 382.964 139.485 340.829C129.052 289.49 77.1847 235.214 100.484 191.849C123.445 149.112 192.399 172.473 238.188 157.12C284.211 141.688 318.671 93.0459 368.505 101.978C419.695 111.153 469.804 152.772 491.129 202.455Z" fill="#F41882"/>
</svg>
