<svg width="375" height="138" viewBox="0 0 375 138" fill="none" xmlns="http://www.w3.org/2000/svg">
<path fill-rule="evenodd" clip-rule="evenodd" d="M480.815 193.636C503.637 239.525 471.669 287.429 470.338 336.621C469.318 374.369 483.059 411.886 473.944 447.722C462.569 492.447 455.959 552.478 412.212 565.166C367.749 578.062 327.538 520.21 281.437 503.557C241.171 489.012 191.033 506.236 160.871 474.376C130.682 442.488 148.386 393.082 137.476 351.493C124.183 300.819 69.3563 249.534 90.1892 204.932C110.72 160.976 180.875 180.437 225.731 162.543C270.818 144.556 302.498 94.0601 352.754 100.186C404.378 106.479 456.74 145.225 480.815 193.636Z" fill="#F1751B"/>
</svg>
