<svg width="43" height="421" viewBox="0 0 43 421" fill="none" xmlns="http://www.w3.org/2000/svg">
<path fill-rule="evenodd" clip-rule="evenodd" d="M212.854 -13.5847C254.545 -0.198584 267.101 56.5875 297.477 90.7306C320.785 116.931 352.141 131.647 369.748 162.771C391.724 201.614 426.024 247.107 409.77 289.219C393.25 332.021 334.343 323.924 298.224 348.087C266.677 369.192 249.745 419.262 212.854 420.955C175.931 422.65 154.507 375.799 122.147 356.167C82.7189 332.248 19.8537 339.788 3.20529 293.77C-13.202 248.418 38.0421 207.689 51.6187 161.219C65.265 114.511 50.9089 56.2009 82.6753 21.7613C115.306 -13.6152 168.873 -27.7064 212.854 -13.5847Z" fill="#DD1E36"/>
</svg>
