<svg width="37" height="333" viewBox="0 0 37 333" fill="none" xmlns="http://www.w3.org/2000/svg">
<path fill-rule="evenodd" clip-rule="evenodd" d="M53.775 -26.502C90.1382 -53.7173 143.744 -30.8711 189.958 -36.3477C225.421 -40.5503 256.529 -58.2833 292.48 -54.79C337.348 -50.4302 395.143 -52.5316 419.235 -14.0692C443.722 25.0231 401.088 69.8425 398.498 114.464C396.236 153.437 426.347 197.153 405.116 229.202C383.867 261.278 332.862 251.742 297.165 267.429C253.671 286.542 221.255 343.894 173.849 330.829C127.13 317.953 125.591 250.851 96.3358 212.079C66.9303 173.107 10.99 150.878 2.6047 103.874C-6.00869 55.59 15.4139 2.20869 53.775 -26.502Z" fill="#DD1E36"/>
</svg>
