<svg width="48" height="318" viewBox="0 0 48 318" fill="none" xmlns="http://www.w3.org/2000/svg">
<path fill-rule="evenodd" clip-rule="evenodd" d="M-221.166 -229.182C-165.378 -212.327 -148.575 -140.828 -107.928 -97.8392C-76.7366 -64.851 -34.7779 -46.3214 -11.2159 -7.13432C18.1909 41.7733 64.0895 99.0525 42.3394 152.076C20.233 205.968 -58.5947 195.772 -106.928 226.196C-149.142 252.769 -171.8 315.812 -221.166 317.944C-270.576 320.077 -299.244 261.087 -342.547 236.37C-395.308 206.253 -479.432 215.746 -501.711 157.806C-523.666 100.704 -455.093 49.422 -436.926 -9.08772C-418.665 -67.8977 -437.876 -141.315 -395.367 -184.678C-351.702 -229.22 -280.02 -246.962 -221.166 -229.182Z" fill="#F41882"/>
</svg>
