<svg width="96" height="566" viewBox="0 0 96 566" fill="none" xmlns="http://www.w3.org/2000/svg">
<path fill-rule="evenodd" clip-rule="evenodd" d="M24.9015 244.634C25.9423 295.875 -23.4209 325.54 -45.6296 369.454C-62.6717 403.151 -66.2667 442.943 -89.8109 471.456C-119.195 507.041 -150.807 558.5 -195.783 551.293C-241.495 543.968 -253.151 474.485 -287.727 439.74C-317.926 409.394 -370.618 403.559 -384.287 361.869C-397.968 320.144 -360.863 283.029 -352.969 240.763C-343.35 189.265 -371.027 119.48 -333.143 88.0445C-295.808 57.0647 -240.682 104.62 -192.479 107.593C-144.029 110.582 -93.8202 78.449 -50.9921 105.449C-6.999 133.183 23.8035 190.579 24.9015 244.634Z" fill="#F41882"/>
</svg>
