<svg width="249" height="120" viewBox="0 0 249 120" fill="none" xmlns="http://www.w3.org/2000/svg">
<path fill-rule="evenodd" clip-rule="evenodd" d="M362.388 58.3276C389.859 94.5508 366.861 143.699 372.419 187.77C376.683 221.588 394.589 252.201 391.093 285.961C386.73 328.095 388.893 382.889 350.125 403.074C310.723 423.59 265.494 380.248 220.496 374.786C181.194 370.016 137.132 395.538 104.798 373.297C72.4358 351.038 82.0139 303.45 66.1687 268.636C46.8624 226.217 -10.9971 191.691 2.14262 147.746C15.092 104.436 82.7563 107.512 121.833 82.4653C161.111 57.2903 183.484 5.89288 230.877 1.13729C279.56 -3.74765 333.407 20.1142 362.388 58.3276Z" fill="#F41882"/>
</svg>
