<svg width="31" height="371" viewBox="0 0 31 371" fill="none" xmlns="http://www.w3.org/2000/svg">
<path fill-rule="evenodd" clip-rule="evenodd" d="M153.383 355.092C113.371 333.598 111.48 275.357 87.0241 235.764C68.2579 205.381 39.0601 184.653 27.0661 150.583C12.097 108.06 -14.1819 56.5427 10.5324 18.4771C35.6516 -20.212 94.2705 -0.455842 135.822 -16.9256C172.113 -31.3104 199.053 -77.0492 237.066 -71.3142C275.113 -65.5743 287.976 -15.3052 317.254 10.4465C352.926 41.8231 418.6 47.0279 426.745 95.5222C434.773 143.314 374.58 173.007 351.761 215.886C328.825 258.984 332.262 319.08 293.178 346.507C253.03 374.679 195.594 377.767 153.383 355.092Z" fill="#F1751B"/>
</svg>
