<svg width="375" height="143" viewBox="0 0 375 143" fill="none" xmlns="http://www.w3.org/2000/svg">
<path fill-rule="evenodd" clip-rule="evenodd" d="M489.298 205.458C508.565 252.95 473.046 298.284 467.979 347.232C464.091 384.794 474.94 423.247 463.127 458.286C448.384 502.017 437.228 561.371 392.644 570.696C347.328 580.174 311.633 519.432 266.931 499.322C227.888 481.757 176.586 495.119 148.934 461.058C121.257 426.966 142.666 379.05 134.95 336.751C125.548 285.213 74.78 229.908 98.9439 187.02C122.758 144.752 191.23 169.491 237.317 155.059C283.641 140.553 319.068 92.6119 368.714 102.541C419.709 112.741 468.973 155.357 489.298 205.458Z" fill="#DD1E36"/>
</svg>
