<svg width="99" height="10" viewBox="0 0 99 10" fill="none" xmlns="http://www.w3.org/2000/svg">
<path d="M0.922572 9.42969C0.858572 9.42969 0.798572 9.40569 0.742572 9.35769C0.694572 9.30169 0.670572 9.24169 0.670572 9.17769C0.670572 9.12969 0.674572 9.09369 0.682572 9.06969L3.50257 1.36569C3.52657 1.26969 3.57857 1.18969 3.65857 1.12569C3.73857 1.06169 3.84257 1.02969 3.97057 1.02969H5.74657C5.87457 1.02969 5.97857 1.06169 6.05857 1.12569C6.13857 1.18969 6.19057 1.26969 6.21457 1.36569L9.02257 9.06969L9.04657 9.17769C9.04657 9.24169 9.01857 9.30169 8.96257 9.35769C8.91457 9.40569 8.85457 9.42969 8.78257 9.42969H7.30657C7.11457 9.42969 6.98657 9.34569 6.92257 9.17769L6.45457 7.95369H3.25057L2.79457 9.17769C2.73057 9.34569 2.59857 9.42969 2.39857 9.42969H0.922572ZM5.97457 6.22569L4.85857 3.05769L3.74257 6.22569H5.97457ZM11.8421 9.54969C11.1381 9.54969 10.5701 9.31369 10.1381 8.84169C9.7061 8.36169 9.4901 7.69369 9.4901 6.83769V3.48969C9.4901 3.40169 9.5181 3.32969 9.5741 3.27369C9.6301 3.21769 9.7021 3.18969 9.7901 3.18969H11.2901C11.3781 3.18969 11.4501 3.21769 11.5061 3.27369C11.5701 3.32969 11.6021 3.40169 11.6021 3.48969V6.76569C11.6021 7.54969 11.9501 7.94169 12.6461 7.94169C12.9821 7.94169 13.2461 7.83769 13.4381 7.62969C13.6301 7.42169 13.7261 7.13369 13.7261 6.76569V3.48969C13.7261 3.40169 13.7541 3.32969 13.8101 3.27369C13.8741 3.21769 13.9461 3.18969 14.0261 3.18969H15.5261C15.6141 3.18969 15.6861 3.21769 15.7421 3.27369C15.7981 3.32969 15.8261 3.40169 15.8261 3.48969V9.12969C15.8261 9.20969 15.7981 9.28169 15.7421 9.34569C15.6861 9.40169 15.6141 9.42969 15.5261 9.42969H14.1341C14.0541 9.42969 13.9821 9.40169 13.9181 9.34569C13.8621 9.28169 13.8341 9.20969 13.8341 9.12969V8.67369C13.4181 9.25769 12.7541 9.54969 11.8421 9.54969ZM19.3256 9.54969C18.5416 9.54969 17.9296 9.30569 17.4896 8.81769C17.0576 8.32169 16.8216 7.62569 16.7816 6.72969L16.7696 6.30969L16.7816 5.87769C16.8136 5.01369 17.0496 4.32969 17.4896 3.82569C17.9376 3.32169 18.5496 3.06969 19.3256 3.06969C20.0536 3.06969 20.6416 3.30569 21.0896 3.77769V1.20969C21.0896 1.12169 21.1176 1.04969 21.1736 0.993687C21.2296 0.937687 21.3016 0.909687 21.3896 0.909687H22.8536C22.9416 0.909687 23.0136 0.937687 23.0696 0.993687C23.1256 1.04969 23.1536 1.12169 23.1536 1.20969V9.12969C23.1536 9.20969 23.1256 9.28169 23.0696 9.34569C23.0136 9.40169 22.9416 9.42969 22.8536 9.42969H21.4976C21.4176 9.42969 21.3456 9.40169 21.2816 9.34569C21.2256 9.28169 21.1976 9.20969 21.1976 9.12969V8.74569C20.7576 9.28169 20.1336 9.54969 19.3256 9.54969ZM19.9856 7.94169C20.3456 7.94169 20.6136 7.82969 20.7896 7.60569C20.9656 7.37369 21.0656 7.07769 21.0896 6.71769C21.0976 6.61369 21.1016 6.46169 21.1016 6.26169C21.1016 6.06969 21.0976 5.92169 21.0896 5.81769C21.0736 5.48969 20.9736 5.21769 20.7896 5.00169C20.6056 4.78569 20.3376 4.67769 19.9856 4.67769C19.6096 4.67769 19.3376 4.78969 19.1696 5.01369C19.0096 5.23769 18.9176 5.54569 18.8936 5.93769C18.8856 6.01769 18.8816 6.14169 18.8816 6.30969C18.8816 6.47769 18.8856 6.60169 18.8936 6.68169C18.9176 7.07369 19.0096 7.38169 19.1696 7.60569C19.3376 7.82969 19.6096 7.94169 19.9856 7.94169ZM24.6159 2.28969C24.5279 2.28969 24.4559 2.26169 24.3999 2.20569C24.3439 2.14969 24.3159 2.07769 24.3159 1.98969V0.909687C24.3159 0.821687 24.3439 0.749687 24.3999 0.693687C24.4559 0.637687 24.5279 0.609687 24.6159 0.609687H26.0559C26.1439 0.609687 26.2159 0.637687 26.2719 0.693687C26.3279 0.749687 26.3559 0.821687 26.3559 0.909687V1.98969C26.3559 2.07769 26.3279 2.14969 26.2719 2.20569C26.2159 2.26169 26.1439 2.28969 26.0559 2.28969H24.6159ZM24.6279 9.42969C24.5399 9.42969 24.4679 9.40169 24.4119 9.34569C24.3559 9.28969 24.3279 9.21769 24.3279 9.12969V3.48969C24.3279 3.40169 24.3559 3.32969 24.4119 3.27369C24.4679 3.21769 24.5399 3.18969 24.6279 3.18969H26.0439C26.1319 3.18969 26.2039 3.21769 26.2599 3.27369C26.3159 3.32969 26.3439 3.40169 26.3439 3.48969V9.12969C26.3439 9.20969 26.3159 9.28169 26.2599 9.34569C26.2039 9.40169 26.1319 9.42969 26.0439 9.42969H24.6279ZM30.4735 9.54969C29.4815 9.54969 28.7175 9.31369 28.1815 8.84169C27.6455 8.36969 27.3535 7.70569 27.3055 6.84969C27.2975 6.74569 27.2935 6.56569 27.2935 6.30969C27.2935 6.05369 27.2975 5.87369 27.3055 5.76969C27.3535 4.92169 27.6535 4.26169 28.2055 3.78969C28.7575 3.30969 29.5135 3.06969 30.4735 3.06969C31.4415 3.06969 32.2015 3.30969 32.7535 3.78969C33.3055 4.26169 33.6055 4.92169 33.6535 5.76969C33.6615 5.87369 33.6655 6.05369 33.6655 6.30969C33.6655 6.56569 33.6615 6.74569 33.6535 6.84969C33.6055 7.70569 33.3135 8.36969 32.7775 8.84169C32.2415 9.31369 31.4735 9.54969 30.4735 9.54969ZM30.4735 8.08569C30.8255 8.08569 31.0855 7.98169 31.2535 7.77369C31.4215 7.55769 31.5175 7.22969 31.5415 6.78969C31.5495 6.70969 31.5535 6.54969 31.5535 6.30969C31.5535 6.06969 31.5495 5.90969 31.5415 5.82969C31.5175 5.39769 31.4175 5.07369 31.2415 4.85769C31.0735 4.64169 30.8175 4.53369 30.4735 4.53369C29.8095 4.53369 29.4575 4.96569 29.4175 5.82969L29.4055 6.30969L29.4175 6.78969C29.4335 7.22969 29.5255 7.55769 29.6935 7.77369C29.8695 7.98169 30.1295 8.08569 30.4735 8.08569ZM39.1477 9.42969C38.8917 9.42969 38.7277 9.30969 38.6557 9.06969L36.2077 1.38969L36.1837 1.28169C36.1837 1.21769 36.2077 1.16169 36.2557 1.11369C36.3117 1.05769 36.3757 1.02969 36.4477 1.02969H37.9357C38.0477 1.02969 38.1397 1.06169 38.2117 1.12569C38.2917 1.18969 38.3437 1.26169 38.3677 1.34169L40.0717 6.88569L41.7637 1.34169C41.7877 1.26169 41.8357 1.18969 41.9077 1.12569C41.9877 1.06169 42.0837 1.02969 42.1957 1.02969H43.6957C43.7597 1.02969 43.8157 1.05769 43.8637 1.11369C43.9197 1.16169 43.9477 1.21769 43.9477 1.28169L43.9237 1.38969L41.4757 9.06969C41.4037 9.30969 41.2397 9.42969 40.9837 9.42969H39.1477ZM44.984 2.28969C44.896 2.28969 44.824 2.26169 44.768 2.20569C44.712 2.14969 44.684 2.07769 44.684 1.98969V0.909687C44.684 0.821687 44.712 0.749687 44.768 0.693687C44.824 0.637687 44.896 0.609687 44.984 0.609687H46.424C46.512 0.609687 46.584 0.637687 46.64 0.693687C46.696 0.749687 46.724 0.821687 46.724 0.909687V1.98969C46.724 2.07769 46.696 2.14969 46.64 2.20569C46.584 2.26169 46.512 2.28969 46.424 2.28969H44.984ZM44.996 9.42969C44.908 9.42969 44.836 9.40169 44.78 9.34569C44.724 9.28969 44.696 9.21769 44.696 9.12969V3.48969C44.696 3.40169 44.724 3.32969 44.78 3.27369C44.836 3.21769 44.908 3.18969 44.996 3.18969H46.412C46.5 3.18969 46.572 3.21769 46.628 3.27369C46.684 3.32969 46.712 3.40169 46.712 3.48969V9.12969C46.712 9.20969 46.684 9.28169 46.628 9.34569C46.572 9.40169 46.5 9.42969 46.412 9.42969H44.996ZM50.4576 9.54969C49.8096 9.54969 49.2656 9.45769 48.8256 9.27369C48.3936 9.08969 48.0736 8.86969 47.8656 8.61369C47.6576 8.35769 47.5536 8.12969 47.5536 7.92969C47.5536 7.84969 47.5816 7.78569 47.6376 7.73769C47.7016 7.68169 47.7696 7.65369 47.8416 7.65369H49.2096C49.2576 7.65369 49.3016 7.67369 49.3416 7.71369C49.4376 7.77769 49.5096 7.82969 49.5576 7.86969C49.7336 7.99769 49.8856 8.09369 50.0136 8.15769C50.1496 8.21369 50.3136 8.24169 50.5056 8.24169C50.7376 8.24169 50.9256 8.19769 51.0696 8.10969C51.2216 8.01369 51.2976 7.88169 51.2976 7.71369C51.2976 7.57769 51.2576 7.46969 51.1776 7.38969C51.1056 7.30969 50.9616 7.23369 50.7456 7.16169C50.5296 7.08169 50.2016 6.99769 49.7616 6.90969C49.0976 6.77369 48.5856 6.55369 48.2256 6.24969C47.8736 5.93769 47.6976 5.52169 47.6976 5.00169C47.6976 4.67369 47.8016 4.36169 48.0096 4.06569C48.2176 3.76969 48.5256 3.52969 48.9336 3.34569C49.3496 3.16169 49.8416 3.06969 50.4096 3.06969C50.9776 3.06969 51.4736 3.15769 51.8976 3.33369C52.3216 3.50969 52.6416 3.72569 52.8576 3.98169C53.0816 4.22969 53.1936 4.45769 53.1936 4.66569C53.1936 4.73769 53.1656 4.80169 53.1096 4.85769C53.0616 4.91369 53.0016 4.94169 52.9296 4.94169H51.6816C51.6176 4.94169 51.5576 4.92169 51.5016 4.88169C51.3976 4.82569 51.3056 4.76569 51.2256 4.70169C51.0896 4.59769 50.9616 4.51769 50.8416 4.46169C50.7216 4.40569 50.5736 4.37769 50.3976 4.37769C50.1896 4.37769 50.0216 4.42569 49.8936 4.52169C49.7736 4.61769 49.7136 4.74169 49.7136 4.89369C49.7136 5.01369 49.7456 5.11369 49.8096 5.19369C49.8816 5.27369 50.0256 5.35369 50.2416 5.43369C50.4656 5.50569 50.7936 5.58169 51.2256 5.66169C52.0016 5.79769 52.5656 6.03769 52.9176 6.38169C53.2776 6.72569 53.4576 7.12969 53.4576 7.59369C53.4576 8.18569 53.1936 8.66169 52.6656 9.02169C52.1376 9.37369 51.4016 9.54969 50.4576 9.54969ZM56.5744 9.54969C55.8704 9.54969 55.3024 9.31369 54.8704 8.84169C54.4384 8.36169 54.2224 7.69369 54.2224 6.83769V3.48969C54.2224 3.40169 54.2504 3.32969 54.3064 3.27369C54.3624 3.21769 54.4344 3.18969 54.5224 3.18969H56.0224C56.1104 3.18969 56.1824 3.21769 56.2384 3.27369C56.3024 3.32969 56.3344 3.40169 56.3344 3.48969V6.76569C56.3344 7.54969 56.6824 7.94169 57.3784 7.94169C57.7144 7.94169 57.9784 7.83769 58.1704 7.62969C58.3624 7.42169 58.4584 7.13369 58.4584 6.76569V3.48969C58.4584 3.40169 58.4864 3.32969 58.5424 3.27369C58.6064 3.21769 58.6784 3.18969 58.7584 3.18969H60.2584C60.3464 3.18969 60.4184 3.21769 60.4744 3.27369C60.5304 3.32969 60.5584 3.40169 60.5584 3.48969V9.12969C60.5584 9.20969 60.5304 9.28169 60.4744 9.34569C60.4184 9.40169 60.3464 9.42969 60.2584 9.42969H58.8664C58.7864 9.42969 58.7144 9.40169 58.6504 9.34569C58.5944 9.28169 58.5664 9.20969 58.5664 9.12969V8.67369C58.1504 9.25769 57.4864 9.54969 56.5744 9.54969ZM63.6019 9.54969C63.1779 9.54969 62.7899 9.46969 62.4379 9.30969C62.0939 9.14169 61.8219 8.91769 61.6219 8.63769C61.4299 8.34969 61.3339 8.03369 61.3339 7.68969C61.3339 7.13769 61.5579 6.69369 62.0059 6.35769C62.4619 6.02169 63.0859 5.78969 63.8779 5.66169L65.3779 5.43369V5.26569C65.3779 4.96169 65.3139 4.73769 65.1859 4.59369C65.0579 4.44969 64.8419 4.37769 64.5379 4.37769C64.3539 4.37769 64.2019 4.40969 64.0819 4.47369C63.9619 4.53769 63.8379 4.62569 63.7099 4.73769C63.5979 4.83369 63.5139 4.89769 63.4579 4.92969C63.4339 4.99369 63.3899 5.02569 63.3259 5.02569H62.0179C61.9379 5.02569 61.8699 5.00169 61.8139 4.95369C61.7659 4.89769 61.7459 4.83369 61.7539 4.76169C61.7619 4.54569 61.8659 4.30569 62.0659 4.04169C62.2739 3.77769 62.5859 3.54969 63.0019 3.35769C63.4259 3.16569 63.9459 3.06969 64.5619 3.06969C65.5459 3.06969 66.2739 3.28969 66.7459 3.72969C67.2179 4.16169 67.4539 4.74569 67.4539 5.48169V9.12969C67.4539 9.20969 67.4259 9.28169 67.3699 9.34569C67.3139 9.40169 67.2419 9.42969 67.1539 9.42969H65.7619C65.6819 9.42969 65.6099 9.40169 65.5459 9.34569C65.4899 9.28169 65.4619 9.20969 65.4619 9.12969V8.70969C65.2859 8.95769 65.0379 9.16169 64.7179 9.32169C64.4059 9.47369 64.0339 9.54969 63.6019 9.54969ZM64.1659 8.18169C64.5339 8.18169 64.8299 8.06169 65.0539 7.82169C65.2859 7.58169 65.4019 7.22969 65.4019 6.76569V6.59769L64.3819 6.77769C63.6619 6.90569 63.3019 7.15769 63.3019 7.53369C63.3019 7.73369 63.3859 7.89369 63.5539 8.01369C63.7219 8.12569 63.9259 8.18169 64.1659 8.18169ZM68.8681 9.42969C68.7881 9.42969 68.7161 9.40169 68.6521 9.34569C68.5961 9.28169 68.5681 9.20969 68.5681 9.12969V1.20969C68.5681 1.12169 68.5961 1.04969 68.6521 0.993687C68.7161 0.937687 68.7881 0.909687 68.8681 0.909687H70.2841C70.3721 0.909687 70.4441 0.937687 70.5001 0.993687C70.5561 1.04969 70.5841 1.12169 70.5841 1.20969V9.12969C70.5841 9.21769 70.5561 9.28969 70.5001 9.34569C70.4441 9.40169 70.3721 9.42969 70.2841 9.42969H68.8681ZM74.1723 9.42969C74.0843 9.42969 74.0083 9.40169 73.9443 9.34569C73.8883 9.28969 73.8603 9.21769 73.8603 9.12969V8.27769C73.8603 8.03769 73.9603 7.84169 74.1603 7.68969L75.4083 6.46569C76.1363 5.90569 76.6883 5.46969 77.0643 5.15769C77.4403 4.84569 77.7243 4.56169 77.9163 4.30569C78.1083 4.04969 78.2043 3.80569 78.2043 3.57369C78.2043 2.94169 77.8923 2.62569 77.2683 2.62569C76.9403 2.62569 76.6883 2.72569 76.5123 2.92569C76.3363 3.11769 76.2203 3.36169 76.1643 3.65769C76.1163 3.84169 75.9803 3.93369 75.7563 3.93369H74.2563C74.1843 3.93369 74.1243 3.90969 74.0763 3.86169C74.0283 3.81369 74.0043 3.75369 74.0043 3.68169C74.0203 3.16969 74.1603 2.70169 74.4243 2.27769C74.6963 1.84569 75.0763 1.50569 75.5643 1.25769C76.0603 1.00169 76.6283 0.873687 77.2683 0.873687C77.9403 0.873687 78.5163 0.981687 78.9963 1.19769C79.4763 1.41369 79.8403 1.71769 80.0883 2.10969C80.3363 2.50169 80.4603 2.95769 80.4603 3.47769C80.4603 4.03769 80.2843 4.54969 79.9323 5.01369C79.5883 5.46969 79.0603 5.96569 78.3483 6.50169L77.2443 7.61769H80.3283C80.4163 7.61769 80.4883 7.64569 80.5443 7.70169C80.6083 7.75769 80.6403 7.82969 80.6403 7.91769V9.12969C80.6403 9.21769 80.6083 9.28969 80.5443 9.34569C80.4883 9.40169 80.4163 9.42969 80.3283 9.42969H74.1723ZM85.001 9.54969C83.897 9.54169 83.061 9.24969 82.493 8.67369C81.925 8.08969 81.617 7.32569 81.569 6.38169C81.553 5.94969 81.545 5.56569 81.545 5.22969C81.545 4.88569 81.553 4.48969 81.569 4.04169C81.601 3.44169 81.745 2.90969 82.001 2.44569C82.265 1.97369 82.649 1.60169 83.153 1.32969C83.657 1.04969 84.273 0.909687 85.001 0.909687C86.081 0.917687 86.913 1.20969 87.497 1.78569C88.081 2.36169 88.397 3.11369 88.445 4.04169C88.461 4.48969 88.469 4.88569 88.469 5.22969C88.469 5.56569 88.461 5.94969 88.445 6.38169C88.389 7.32569 88.077 8.08969 87.509 8.67369C86.941 9.24969 86.105 9.54169 85.001 9.54969ZM85.001 7.80969C85.393 7.80969 85.685 7.68169 85.877 7.42569C86.077 7.16169 86.185 6.79369 86.201 6.32169C86.217 6.08969 86.225 5.71769 86.225 5.20569C86.225 4.69369 86.217 4.32969 86.201 4.11369C86.185 3.65769 86.081 3.29769 85.889 3.03369C85.697 2.76969 85.401 2.63369 85.001 2.62569C84.609 2.63369 84.313 2.76969 84.113 3.03369C83.921 3.29769 83.817 3.65769 83.801 4.11369C83.793 4.32969 83.789 4.69369 83.789 5.20569C83.789 5.71769 83.793 6.08969 83.801 6.32169C83.841 7.31369 84.241 7.80969 85.001 7.80969ZM91.1533 5.26569C90.6093 5.26569 90.1733 5.12569 89.8453 4.84569C89.5173 4.55769 89.3373 4.17369 89.3053 3.69369C89.2893 3.45369 89.2813 3.28569 89.2813 3.18969C89.2813 3.09369 89.2893 2.88569 89.3053 2.56569C89.3293 2.07769 89.5013 1.68969 89.8213 1.40169C90.1413 1.11369 90.5853 0.969687 91.1533 0.969687C91.7133 0.969687 92.1533 1.11369 92.4733 1.40169C92.7933 1.68969 92.9653 2.07769 92.9893 2.56569C93.0053 2.88569 93.0133 3.09369 93.0133 3.18969C93.0133 3.28569 93.0053 3.45369 92.9893 3.69369C92.9573 4.17369 92.7773 4.55769 92.4493 4.84569C92.1213 5.12569 91.6893 5.26569 91.1533 5.26569ZM90.1933 9.42969C90.1133 9.42969 90.0453 9.40969 89.9893 9.36969C89.9413 9.32169 89.9173 9.26169 89.9173 9.18969C89.9173 9.14169 89.9333 9.09769 89.9653 9.05769L95.8933 1.25769C95.9573 1.17769 96.0173 1.12169 96.0733 1.08969C96.1293 1.04969 96.2093 1.02969 96.3133 1.02969H97.1653C97.2453 1.02969 97.3093 1.05369 97.3573 1.10169C97.4133 1.14169 97.4413 1.19769 97.4413 1.26969C97.4413 1.31769 97.4253 1.36169 97.3933 1.40169L91.4653 9.20169C91.4013 9.28169 91.3413 9.34169 91.2853 9.38169C91.2293 9.41369 91.1493 9.42969 91.0453 9.42969H90.1933ZM91.1533 4.22169C91.4893 4.22169 91.6733 4.02569 91.7053 3.63369C91.7213 3.37769 91.7293 3.20969 91.7293 3.12969C91.7293 3.02569 91.7213 2.86169 91.7053 2.63769C91.6973 2.46169 91.6453 2.31769 91.5493 2.20569C91.4613 2.09369 91.3293 2.03769 91.1533 2.03769C90.9693 2.03769 90.8333 2.09369 90.7453 2.20569C90.6573 2.31769 90.6053 2.46169 90.5893 2.63769C90.5813 2.74969 90.5773 2.91369 90.5773 3.12969C90.5773 3.33769 90.5813 3.50569 90.5893 3.63369C90.6213 4.02569 90.8093 4.22169 91.1533 4.22169ZM96.2293 9.48969C95.6853 9.48969 95.2493 9.34969 94.9213 9.06969C94.6013 8.78169 94.4213 8.39369 94.3813 7.90569C94.3733 7.76969 94.3693 7.58569 94.3693 7.35369C94.3693 7.11369 94.3733 6.92169 94.3813 6.77769C94.4133 6.28169 94.5853 5.88969 94.8973 5.60169C95.2173 5.31369 95.6613 5.16969 96.2293 5.16969C96.7973 5.16969 97.2373 5.31369 97.5493 5.60169C97.8693 5.88969 98.0453 6.28169 98.0773 6.77769C98.0933 7.09769 98.1013 7.30569 98.1013 7.40169C98.1013 7.49769 98.0933 7.66569 98.0773 7.90569C98.0453 8.38569 97.8653 8.76969 97.5373 9.05769C97.2093 9.34569 96.7733 9.48969 96.2293 9.48969ZM96.2293 8.43369C96.4133 8.43369 96.5493 8.37769 96.6373 8.26569C96.7253 8.14569 96.7773 8.00169 96.7933 7.83369C96.8093 7.59369 96.8173 7.42569 96.8173 7.32969C96.8173 7.22569 96.8093 7.06169 96.7933 6.83769C96.7773 6.66969 96.7253 6.52969 96.6373 6.41769C96.5493 6.29769 96.4133 6.23769 96.2293 6.23769C96.0453 6.23769 95.9093 6.29769 95.8213 6.41769C95.7333 6.52969 95.6853 6.66969 95.6773 6.83769C95.6693 6.94969 95.6653 7.11369 95.6653 7.32969C95.6653 7.54569 95.6693 7.71369 95.6773 7.83369C95.6933 8.00969 95.7413 8.15369 95.8213 8.26569C95.9093 8.37769 96.0453 8.43369 96.2293 8.43369Z" fill="white"/>
</svg>
