<svg width="115" height="10" viewBox="0 0 115 10" fill="none" xmlns="http://www.w3.org/2000/svg">
<path d="M0.832242 9.56055C0.752242 9.56055 0.680242 9.53255 0.616242 9.47655C0.560242 9.41255 0.532242 9.34055 0.532242 9.26055V1.46055C0.532242 1.37255 0.560242 1.30055 0.616242 1.24455C0.680242 1.18855 0.752242 1.16055 0.832242 1.16055H3.95224C5.12824 1.16055 6.04024 1.44055 6.68824 2.00055C7.33624 2.56055 7.67624 3.37255 7.70824 4.43655C7.71624 4.66855 7.72024 4.97655 7.72024 5.36055C7.72024 5.74455 7.71624 6.04855 7.70824 6.27255C7.66824 7.38455 7.33624 8.21255 6.71224 8.75655C6.09624 9.29255 5.19624 9.56055 4.01224 9.56055H0.832242ZM3.95224 7.83255C4.48024 7.83255 4.86824 7.70855 5.11624 7.46055C5.36424 7.20455 5.49624 6.80055 5.51224 6.24855C5.52824 6.01655 5.53624 5.71655 5.53624 5.34855C5.53624 4.98055 5.52824 4.68455 5.51224 4.46055C5.49624 3.92455 5.35224 3.52855 5.08024 3.27255C4.81624 3.01655 4.42024 2.88855 3.89224 2.88855H2.69224V7.83255H3.95224ZM11.6301 9.68055C10.6701 9.68055 9.91409 9.42055 9.36209 8.90055C8.81009 8.38055 8.52209 7.62455 8.49809 6.63255V6.21255C8.53009 5.26855 8.82209 4.53255 9.37409 4.00455C9.93409 3.46855 10.6821 3.20055 11.6181 3.20055C12.2981 3.20055 12.8701 3.34055 13.3341 3.62055C13.8061 3.89255 14.1581 4.26855 14.3901 4.74855C14.6301 5.22855 14.7501 5.78055 14.7501 6.40455V6.69255C14.7501 6.77255 14.7221 6.84455 14.6661 6.90855C14.6101 6.96455 14.5381 6.99255 14.4501 6.99255H10.6101V7.07655C10.6261 7.45255 10.7181 7.75655 10.8861 7.98855C11.0541 8.22055 11.2981 8.33655 11.6181 8.33655C11.8181 8.33655 11.9821 8.29655 12.1101 8.21655C12.2381 8.12855 12.3541 8.02455 12.4581 7.90455C12.5301 7.81655 12.5861 7.76455 12.6261 7.74855C12.6741 7.72455 12.7461 7.71255 12.8421 7.71255H14.3301C14.4021 7.71255 14.4621 7.73655 14.5101 7.78455C14.5661 7.82455 14.5941 7.88055 14.5941 7.95255C14.5941 8.16055 14.4741 8.40055 14.2341 8.67255C14.0021 8.94455 13.6621 9.18055 13.2141 9.38055C12.7661 9.58055 12.2381 9.68055 11.6301 9.68055ZM12.6381 5.80455V5.78055C12.6381 5.38855 12.5461 5.08055 12.3621 4.85655C12.1861 4.62455 11.9381 4.50855 11.6181 4.50855C11.3061 4.50855 11.0581 4.62455 10.8741 4.85655C10.6981 5.08055 10.6101 5.38855 10.6101 5.78055V5.80455H12.6381ZM15.9351 9.56055C15.8471 9.56055 15.7751 9.53255 15.7191 9.47655C15.6631 9.42055 15.6351 9.34855 15.6351 9.26055V3.62055C15.6351 3.53255 15.6631 3.46055 15.7191 3.40455C15.7751 3.34855 15.8471 3.32055 15.9351 3.32055H17.2431C17.3311 3.32055 17.4031 3.34855 17.4591 3.40455C17.5151 3.46055 17.5431 3.53255 17.5431 3.62055V4.02855C17.7271 3.78855 17.9711 3.59255 18.2751 3.44055C18.5871 3.28055 18.9351 3.20055 19.3191 3.20055C20.1991 3.20055 20.8071 3.54455 21.1431 4.23255C21.3351 3.92855 21.6031 3.68055 21.9471 3.48855C22.2911 3.29655 22.6591 3.20055 23.0511 3.20055C23.7071 3.20055 24.2391 3.42455 24.6471 3.87255C25.0631 4.31255 25.2711 4.97255 25.2711 5.85255V9.26055C25.2711 9.34055 25.2431 9.41255 25.1871 9.47655C25.1311 9.53255 25.0591 9.56055 24.9711 9.56055H23.5791C23.4911 9.56055 23.4151 9.53255 23.3511 9.47655C23.2951 9.42055 23.2671 9.34855 23.2671 9.26055V5.93655C23.2671 5.53655 23.1831 5.24855 23.0151 5.07255C22.8551 4.89655 22.6351 4.80855 22.3551 4.80855C22.0991 4.80855 21.8871 4.90055 21.7191 5.08455C21.5511 5.26055 21.4671 5.54455 21.4671 5.93655V9.26055C21.4671 9.34055 21.4391 9.41255 21.3831 9.47655C21.3271 9.53255 21.2551 9.56055 21.1671 9.56055H19.7751C19.6871 9.56055 19.6151 9.53255 19.5591 9.47655C19.5031 9.42055 19.4751 9.34855 19.4751 9.26055V5.93655C19.4751 5.54455 19.3871 5.26055 19.2111 5.08455C19.0431 4.90055 18.8271 4.80855 18.5631 4.80855C18.3071 4.80855 18.0911 4.90055 17.9151 5.08455C17.7471 5.26055 17.6631 5.54055 17.6631 5.92455V9.26055C17.6631 9.34055 17.6351 9.41255 17.5791 9.47655C17.5231 9.53255 17.4511 9.56055 17.3631 9.56055H15.9351ZM29.3393 9.68055C28.3473 9.68055 27.5833 9.44455 27.0473 8.97255C26.5113 8.50055 26.2193 7.83655 26.1713 6.98055C26.1633 6.87655 26.1593 6.69655 26.1593 6.44055C26.1593 6.18455 26.1633 6.00455 26.1713 5.90055C26.2193 5.05255 26.5193 4.39255 27.0713 3.92055C27.6233 3.44055 28.3793 3.20055 29.3393 3.20055C30.3073 3.20055 31.0673 3.44055 31.6193 3.92055C32.1713 4.39255 32.4713 5.05255 32.5193 5.90055C32.5273 6.00455 32.5313 6.18455 32.5313 6.44055C32.5313 6.69655 32.5273 6.87655 32.5193 6.98055C32.4713 7.83655 32.1793 8.50055 31.6433 8.97255C31.1073 9.44455 30.3393 9.68055 29.3393 9.68055ZM29.3393 8.21655C29.6913 8.21655 29.9513 8.11255 30.1193 7.90455C30.2873 7.68855 30.3833 7.36055 30.4073 6.92055C30.4153 6.84055 30.4193 6.68055 30.4193 6.44055C30.4193 6.20055 30.4153 6.04055 30.4073 5.96055C30.3833 5.52855 30.2833 5.20455 30.1073 4.98855C29.9393 4.77255 29.6833 4.66455 29.3393 4.66455C28.6753 4.66455 28.3233 5.09655 28.2833 5.96055L28.2713 6.44055L28.2833 6.92055C28.2993 7.36055 28.3913 7.68855 28.5593 7.90455C28.7353 8.11255 28.9953 8.21655 29.3393 8.21655ZM33.7832 9.56055C33.6952 9.56055 33.6232 9.53255 33.5672 9.47655C33.5112 9.42055 33.4832 9.34855 33.4832 9.26055V3.62055C33.4832 3.53255 33.5112 3.46055 33.5672 3.40455C33.6232 3.34855 33.6952 3.32055 33.7832 3.32055H35.1632C35.2512 3.32055 35.3232 3.34855 35.3792 3.40455C35.4432 3.46055 35.4752 3.53255 35.4752 3.62055V4.07655C35.6912 3.81255 35.9672 3.60055 36.3032 3.44055C36.6472 3.28055 37.0352 3.20055 37.4672 3.20055C38.1712 3.20055 38.7432 3.44055 39.1832 3.92055C39.6232 4.39255 39.8432 5.05655 39.8432 5.91255V9.26055C39.8432 9.34055 39.8152 9.41255 39.7592 9.47655C39.7032 9.53255 39.6312 9.56055 39.5432 9.56055H38.0312C37.9512 9.56055 37.8792 9.53255 37.8152 9.47655C37.7592 9.41255 37.7312 9.34055 37.7312 9.26055V5.98455C37.7312 5.60855 37.6392 5.32055 37.4552 5.12055C37.2712 4.91255 37.0072 4.80855 36.6632 4.80855C36.3272 4.80855 36.0632 4.91255 35.8712 5.12055C35.6792 5.32055 35.5832 5.60855 35.5832 5.98455V9.26055C35.5832 9.34055 35.5552 9.41255 35.4992 9.47655C35.4432 9.53255 35.3712 9.56055 35.2832 9.56055H33.7832ZM43.5221 9.68055C42.8741 9.68055 42.3301 9.58855 41.8901 9.40455C41.4581 9.22055 41.1381 9.00055 40.9301 8.74455C40.7221 8.48855 40.6181 8.26055 40.6181 8.06055C40.6181 7.98055 40.6461 7.91655 40.7021 7.86855C40.7661 7.81255 40.8341 7.78455 40.9061 7.78455H42.2741C42.3221 7.78455 42.3661 7.80455 42.4061 7.84455C42.5021 7.90855 42.5741 7.96055 42.6221 8.00055C42.7981 8.12855 42.9501 8.22455 43.0781 8.28855C43.2141 8.34455 43.3781 8.37255 43.5701 8.37255C43.8021 8.37255 43.9901 8.32855 44.1341 8.24055C44.2861 8.14455 44.3621 8.01255 44.3621 7.84455C44.3621 7.70855 44.3221 7.60055 44.2421 7.52055C44.1701 7.44055 44.0261 7.36455 43.8101 7.29255C43.5941 7.21255 43.2661 7.12855 42.8261 7.04055C42.1621 6.90455 41.6501 6.68455 41.2901 6.38055C40.9381 6.06855 40.7621 5.65255 40.7621 5.13255C40.7621 4.80455 40.8661 4.49255 41.0741 4.19655C41.2821 3.90055 41.5901 3.66055 41.9981 3.47655C42.4141 3.29255 42.9061 3.20055 43.4741 3.20055C44.0421 3.20055 44.5381 3.28855 44.9621 3.46455C45.3861 3.64055 45.7061 3.85655 45.9221 4.11255C46.1461 4.36055 46.2581 4.58855 46.2581 4.79655C46.2581 4.86855 46.2301 4.93255 46.1741 4.98855C46.1261 5.04455 46.0661 5.07255 45.9941 5.07255H44.7461C44.6821 5.07255 44.6221 5.05255 44.5661 5.01255C44.4621 4.95655 44.3701 4.89655 44.2901 4.83255C44.1541 4.72855 44.0261 4.64855 43.9061 4.59255C43.7861 4.53655 43.6381 4.50855 43.4621 4.50855C43.2541 4.50855 43.0861 4.55655 42.9581 4.65255C42.8381 4.74855 42.7781 4.87255 42.7781 5.02455C42.7781 5.14455 42.8101 5.24455 42.8741 5.32455C42.9461 5.40455 43.0901 5.48455 43.3061 5.56455C43.5301 5.63655 43.8581 5.71255 44.2901 5.79255C45.0661 5.92855 45.6301 6.16855 45.9821 6.51255C46.3421 6.85655 46.5221 7.26055 46.5221 7.72455C46.5221 8.31655 46.2581 8.79255 45.7301 9.15255C45.2021 9.50455 44.4661 9.68055 43.5221 9.68055ZM50.5038 9.56055C48.8478 9.56055 48.0198 8.77255 48.0198 7.19655V4.89255H47.0838C46.9958 4.89255 46.9198 4.86455 46.8558 4.80855C46.7998 4.75255 46.7718 4.68055 46.7718 4.59255V3.62055C46.7718 3.53255 46.7998 3.46055 46.8558 3.40455C46.9198 3.34855 46.9958 3.32055 47.0838 3.32055H48.0198V1.34055C48.0198 1.25255 48.0478 1.18055 48.1038 1.12455C48.1678 1.06855 48.2398 1.04055 48.3198 1.04055H49.7118C49.7998 1.04055 49.8718 1.06855 49.9278 1.12455C49.9838 1.18055 50.0118 1.25255 50.0118 1.34055V3.32055H51.5118C51.5998 3.32055 51.6718 3.34855 51.7278 3.40455C51.7918 3.46055 51.8238 3.53255 51.8238 3.62055V4.59255C51.8238 4.68055 51.7918 4.75255 51.7278 4.80855C51.6718 4.86455 51.5998 4.89255 51.5118 4.89255H50.0118V7.02855C50.0118 7.62055 50.2398 7.91655 50.6958 7.91655H51.6198C51.7078 7.91655 51.7798 7.94455 51.8358 8.00055C51.8918 8.05655 51.9198 8.12855 51.9198 8.21655V9.26055C51.9198 9.34055 51.8918 9.41255 51.8358 9.47655C51.7798 9.53255 51.7078 9.56055 51.6198 9.56055H50.5038ZM52.9734 9.56055C52.8854 9.56055 52.8134 9.53255 52.7574 9.47655C52.7014 9.42055 52.6734 9.34855 52.6734 9.26055V3.62055C52.6734 3.53255 52.7014 3.46055 52.7574 3.40455C52.8134 3.34855 52.8854 3.32055 52.9734 3.32055H54.3534C54.4414 3.32055 54.5134 3.35255 54.5694 3.41655C54.6334 3.47255 54.6654 3.54055 54.6654 3.62055V4.10055C55.1054 3.58055 55.6974 3.32055 56.4414 3.32055H56.9694C57.0574 3.32055 57.1294 3.34855 57.1854 3.40455C57.2414 3.46055 57.2694 3.53255 57.2694 3.62055V4.85655C57.2694 4.93655 57.2414 5.00855 57.1854 5.07255C57.1294 5.12855 57.0574 5.15655 56.9694 5.15655H55.8054C55.4774 5.15655 55.2214 5.24855 55.0374 5.43255C54.8614 5.60855 54.7734 5.86055 54.7734 6.18855V9.26055C54.7734 9.34855 54.7414 9.42055 54.6774 9.47655C54.6214 9.53255 54.5494 9.56055 54.4614 9.56055H52.9734ZM59.6491 9.68055C59.2251 9.68055 58.8371 9.60055 58.4851 9.44055C58.1411 9.27255 57.8691 9.04855 57.6691 8.76855C57.4771 8.48055 57.3811 8.16455 57.3811 7.82055C57.3811 7.26855 57.6051 6.82455 58.0531 6.48855C58.5091 6.15255 59.1331 5.92055 59.9251 5.79255L61.4251 5.56455V5.39655C61.4251 5.09255 61.3611 4.86855 61.2331 4.72455C61.1051 4.58055 60.8891 4.50855 60.5851 4.50855C60.4011 4.50855 60.2491 4.54055 60.1291 4.60455C60.0091 4.66855 59.8851 4.75655 59.7571 4.86855C59.6451 4.96455 59.5611 5.02855 59.5051 5.06055C59.4811 5.12455 59.4371 5.15655 59.3731 5.15655H58.0651C57.9851 5.15655 57.9171 5.13255 57.8611 5.08455C57.8131 5.02855 57.7931 4.96455 57.8011 4.89255C57.8091 4.67655 57.9131 4.43655 58.1131 4.17255C58.3211 3.90855 58.6331 3.68055 59.0491 3.48855C59.4731 3.29655 59.9931 3.20055 60.6091 3.20055C61.5931 3.20055 62.3211 3.42055 62.7931 3.86055C63.2651 4.29255 63.5011 4.87655 63.5011 5.61255V9.26055C63.5011 9.34055 63.4731 9.41255 63.4171 9.47655C63.3611 9.53255 63.2891 9.56055 63.2011 9.56055H61.8091C61.7291 9.56055 61.6571 9.53255 61.5931 9.47655C61.5371 9.41255 61.5091 9.34055 61.5091 9.26055V8.84055C61.3331 9.08855 61.0851 9.29255 60.7651 9.45255C60.4531 9.60455 60.0811 9.68055 59.6491 9.68055ZM60.2131 8.31255C60.5811 8.31255 60.8771 8.19255 61.1011 7.95255C61.3331 7.71255 61.4491 7.36055 61.4491 6.89655V6.72855L60.4291 6.90855C59.7091 7.03655 59.3491 7.28855 59.3491 7.66455C59.3491 7.86455 59.4331 8.02455 59.6011 8.14455C59.7691 8.25655 59.9731 8.31255 60.2131 8.31255ZM67.7604 9.56055C66.1044 9.56055 65.2764 8.77255 65.2764 7.19655V4.89255H64.3404C64.2524 4.89255 64.1764 4.86455 64.1124 4.80855C64.0564 4.75255 64.0284 4.68055 64.0284 4.59255V3.62055C64.0284 3.53255 64.0564 3.46055 64.1124 3.40455C64.1764 3.34855 64.2524 3.32055 64.3404 3.32055H65.2764V1.34055C65.2764 1.25255 65.3044 1.18055 65.3604 1.12455C65.4244 1.06855 65.4964 1.04055 65.5764 1.04055H66.9684C67.0564 1.04055 67.1284 1.06855 67.1844 1.12455C67.2404 1.18055 67.2684 1.25255 67.2684 1.34055V3.32055H68.7684C68.8564 3.32055 68.9284 3.34855 68.9844 3.40455C69.0484 3.46055 69.0804 3.53255 69.0804 3.62055V4.59255C69.0804 4.68055 69.0484 4.75255 68.9844 4.80855C68.9284 4.86455 68.8564 4.89255 68.7684 4.89255H67.2684V7.02855C67.2684 7.62055 67.4964 7.91655 67.9524 7.91655H68.8764C68.9644 7.91655 69.0364 7.94455 69.0924 8.00055C69.1484 8.05655 69.1764 8.12855 69.1764 8.21655V9.26055C69.1764 9.34055 69.1484 9.41255 69.0924 9.47655C69.0364 9.53255 68.9644 9.56055 68.8764 9.56055H67.7604ZM70.2179 2.42055C70.1299 2.42055 70.0579 2.39255 70.0019 2.33655C69.9459 2.28055 69.9179 2.20855 69.9179 2.12055V1.04055C69.9179 0.952547 69.9459 0.880547 70.0019 0.824546C70.0579 0.768547 70.1299 0.740547 70.2179 0.740547H71.6579C71.7459 0.740547 71.8179 0.768547 71.8739 0.824546C71.9299 0.880547 71.9579 0.952547 71.9579 1.04055V2.12055C71.9579 2.20855 71.9299 2.28055 71.8739 2.33655C71.8179 2.39255 71.7459 2.42055 71.6579 2.42055H70.2179ZM70.2299 9.56055C70.1419 9.56055 70.0699 9.53255 70.0139 9.47655C69.9579 9.42055 69.9299 9.34855 69.9299 9.26055V3.62055C69.9299 3.53255 69.9579 3.46055 70.0139 3.40455C70.0699 3.34855 70.1419 3.32055 70.2299 3.32055H71.6459C71.7339 3.32055 71.8059 3.34855 71.8619 3.40455C71.9179 3.46055 71.9459 3.53255 71.9459 3.62055V9.26055C71.9459 9.34055 71.9179 9.41255 71.8619 9.47655C71.8059 9.53255 71.7339 9.56055 71.6459 9.56055H70.2299ZM76.0755 9.68055C75.0835 9.68055 74.3195 9.44455 73.7835 8.97255C73.2475 8.50055 72.9555 7.83655 72.9075 6.98055C72.8995 6.87655 72.8955 6.69655 72.8955 6.44055C72.8955 6.18455 72.8995 6.00455 72.9075 5.90055C72.9555 5.05255 73.2555 4.39255 73.8075 3.92055C74.3595 3.44055 75.1155 3.20055 76.0755 3.20055C77.0435 3.20055 77.8035 3.44055 78.3555 3.92055C78.9075 4.39255 79.2075 5.05255 79.2555 5.90055C79.2635 6.00455 79.2675 6.18455 79.2675 6.44055C79.2675 6.69655 79.2635 6.87655 79.2555 6.98055C79.2075 7.83655 78.9155 8.50055 78.3795 8.97255C77.8435 9.44455 77.0755 9.68055 76.0755 9.68055ZM76.0755 8.21655C76.4275 8.21655 76.6875 8.11255 76.8555 7.90455C77.0235 7.68855 77.1195 7.36055 77.1435 6.92055C77.1515 6.84055 77.1555 6.68055 77.1555 6.44055C77.1555 6.20055 77.1515 6.04055 77.1435 5.96055C77.1195 5.52855 77.0195 5.20455 76.8435 4.98855C76.6755 4.77255 76.4195 4.66455 76.0755 4.66455C75.4115 4.66455 75.0595 5.09655 75.0195 5.96055L75.0075 6.44055L75.0195 6.92055C75.0355 7.36055 75.1275 7.68855 75.2955 7.90455C75.4715 8.11255 75.7315 8.21655 76.0755 8.21655ZM80.5195 9.56055C80.4315 9.56055 80.3595 9.53255 80.3035 9.47655C80.2475 9.42055 80.2195 9.34855 80.2195 9.26055V3.62055C80.2195 3.53255 80.2475 3.46055 80.3035 3.40455C80.3595 3.34855 80.4315 3.32055 80.5195 3.32055H81.8995C81.9875 3.32055 82.0595 3.34855 82.1155 3.40455C82.1795 3.46055 82.2115 3.53255 82.2115 3.62055V4.07655C82.4275 3.81255 82.7035 3.60055 83.0395 3.44055C83.3835 3.28055 83.7715 3.20055 84.2035 3.20055C84.9075 3.20055 85.4795 3.44055 85.9195 3.92055C86.3595 4.39255 86.5795 5.05655 86.5795 5.91255V9.26055C86.5795 9.34055 86.5515 9.41255 86.4955 9.47655C86.4395 9.53255 86.3675 9.56055 86.2795 9.56055H84.7675C84.6875 9.56055 84.6155 9.53255 84.5515 9.47655C84.4955 9.41255 84.4675 9.34055 84.4675 9.26055V5.98455C84.4675 5.60855 84.3755 5.32055 84.1915 5.12055C84.0075 4.91255 83.7435 4.80855 83.3995 4.80855C83.0635 4.80855 82.7995 4.91255 82.6075 5.12055C82.4155 5.32055 82.3195 5.60855 82.3195 5.98455V9.26055C82.3195 9.34055 82.2915 9.41255 82.2355 9.47655C82.1795 9.53255 82.1075 9.56055 82.0195 9.56055H80.5195ZM93.1971 9.68055C92.4211 9.68055 91.7691 9.56055 91.2411 9.32055C90.7211 9.08055 90.3331 8.78455 90.0771 8.43255C89.8291 8.07255 89.6971 7.71255 89.6811 7.35255C89.6811 7.28055 89.7051 7.22055 89.7531 7.17255C89.8091 7.12455 89.8731 7.10055 89.9451 7.10055H91.5171C91.6051 7.10055 91.6771 7.11655 91.7331 7.14855C91.7891 7.18055 91.8411 7.24055 91.8891 7.32855C92.0491 7.74455 92.4851 7.95255 93.1971 7.95255C93.6051 7.95255 93.9211 7.86055 94.1451 7.67655C94.3771 7.48455 94.4931 7.22455 94.4931 6.89655C94.4931 6.25655 94.0771 5.93655 93.2451 5.93655H91.9131C91.8331 5.93655 91.7611 5.90855 91.6971 5.85255C91.6411 5.78855 91.6131 5.71655 91.6131 5.63655V4.96455C91.6131 4.78855 91.6771 4.65255 91.8051 4.55655L93.7731 2.88855H90.4371C90.3571 2.88855 90.2851 2.86055 90.2211 2.80455C90.1651 2.74055 90.1371 2.66855 90.1371 2.58855V1.46055C90.1371 1.37255 90.1651 1.30055 90.2211 1.24455C90.2851 1.18855 90.3571 1.16055 90.4371 1.16055H95.9571C96.0451 1.16055 96.1171 1.18855 96.1731 1.24455C96.2371 1.30055 96.2691 1.37255 96.2691 1.46055V2.48055C96.2691 2.63255 96.2051 2.76455 96.0771 2.87655L94.2531 4.56855L94.3371 4.59255C95.0731 4.68855 95.6531 4.93655 96.0771 5.33655C96.5091 5.72855 96.7251 6.29255 96.7251 7.02855C96.7251 7.56455 96.5731 8.03255 96.2691 8.43255C95.9651 8.83255 95.5451 9.14055 95.0091 9.35655C94.4731 9.57255 93.8691 9.68055 93.1971 9.68055ZM101.035 9.68055C99.9312 9.67255 99.0952 9.38055 98.5272 8.80455C97.9592 8.22055 97.6512 7.45655 97.6032 6.51255C97.5872 6.08055 97.5792 5.69655 97.5792 5.36055C97.5792 5.01655 97.5872 4.62055 97.6032 4.17255C97.6352 3.57255 97.7792 3.04055 98.0352 2.57655C98.2992 2.10455 98.6832 1.73255 99.1872 1.46055C99.6912 1.18055 100.307 1.04055 101.035 1.04055C102.115 1.04855 102.947 1.34055 103.531 1.91655C104.115 2.49255 104.431 3.24455 104.479 4.17255C104.495 4.62055 104.503 5.01655 104.503 5.36055C104.503 5.69655 104.495 6.08055 104.479 6.51255C104.423 7.45655 104.111 8.22055 103.543 8.80455C102.975 9.38055 102.139 9.67255 101.035 9.68055ZM101.035 7.94055C101.427 7.94055 101.719 7.81255 101.911 7.55655C102.111 7.29255 102.219 6.92455 102.235 6.45255C102.251 6.22055 102.259 5.84855 102.259 5.33655C102.259 4.82455 102.251 4.46055 102.235 4.24455C102.219 3.78855 102.115 3.42855 101.923 3.16455C101.731 2.90055 101.435 2.76455 101.035 2.75655C100.643 2.76455 100.347 2.90055 100.147 3.16455C99.9552 3.42855 99.8512 3.78855 99.8352 4.24455C99.8272 4.46055 99.8232 4.82455 99.8232 5.33655C99.8232 5.84855 99.8272 6.22055 99.8352 6.45255C99.8752 7.44455 100.275 7.94055 101.035 7.94055ZM107.187 5.39655C106.643 5.39655 106.207 5.25655 105.879 4.97655C105.551 4.68855 105.371 4.30455 105.339 3.82455C105.323 3.58455 105.315 3.41655 105.315 3.32055C105.315 3.22455 105.323 3.01655 105.339 2.69655C105.363 2.20855 105.535 1.82055 105.855 1.53255C106.175 1.24455 106.619 1.10055 107.187 1.10055C107.747 1.10055 108.187 1.24455 108.507 1.53255C108.827 1.82055 108.999 2.20855 109.023 2.69655C109.039 3.01655 109.047 3.22455 109.047 3.32055C109.047 3.41655 109.039 3.58455 109.023 3.82455C108.991 4.30455 108.811 4.68855 108.483 4.97655C108.155 5.25655 107.723 5.39655 107.187 5.39655ZM106.227 9.56055C106.147 9.56055 106.079 9.54055 106.023 9.50055C105.975 9.45255 105.951 9.39255 105.951 9.32055C105.951 9.27255 105.967 9.22855 105.999 9.18855L111.927 1.38855C111.991 1.30855 112.051 1.25255 112.107 1.22055C112.163 1.18055 112.243 1.16055 112.347 1.16055H113.199C113.279 1.16055 113.343 1.18455 113.391 1.23255C113.447 1.27255 113.475 1.32855 113.475 1.40055C113.475 1.44855 113.459 1.49255 113.427 1.53255L107.499 9.33255C107.435 9.41255 107.375 9.47255 107.319 9.51255C107.263 9.54455 107.183 9.56055 107.079 9.56055H106.227ZM107.187 4.35255C107.523 4.35255 107.707 4.15655 107.739 3.76455C107.755 3.50855 107.763 3.34055 107.763 3.26055C107.763 3.15655 107.755 2.99255 107.739 2.76855C107.731 2.59255 107.679 2.44855 107.583 2.33655C107.495 2.22455 107.363 2.16855 107.187 2.16855C107.003 2.16855 106.867 2.22455 106.779 2.33655C106.691 2.44855 106.639 2.59255 106.623 2.76855C106.615 2.88055 106.611 3.04455 106.611 3.26055C106.611 3.46855 106.615 3.63655 106.623 3.76455C106.655 4.15655 106.843 4.35255 107.187 4.35255ZM112.263 9.62055C111.719 9.62055 111.283 9.48055 110.955 9.20055C110.635 8.91255 110.455 8.52455 110.415 8.03655C110.407 7.90055 110.403 7.71655 110.403 7.48455C110.403 7.24455 110.407 7.05255 110.415 6.90855C110.447 6.41255 110.619 6.02055 110.931 5.73255C111.251 5.44455 111.695 5.30055 112.263 5.30055C112.831 5.30055 113.271 5.44455 113.583 5.73255C113.903 6.02055 114.079 6.41255 114.111 6.90855C114.127 7.22855 114.135 7.43655 114.135 7.53255C114.135 7.62855 114.127 7.79655 114.111 8.03655C114.079 8.51655 113.899 8.90055 113.571 9.18855C113.243 9.47655 112.807 9.62055 112.263 9.62055ZM112.263 8.56455C112.447 8.56455 112.583 8.50855 112.671 8.39655C112.759 8.27655 112.811 8.13255 112.827 7.96455C112.843 7.72455 112.851 7.55655 112.851 7.46055C112.851 7.35655 112.843 7.19255 112.827 6.96855C112.811 6.80055 112.759 6.66055 112.671 6.54855C112.583 6.42855 112.447 6.36855 112.263 6.36855C112.079 6.36855 111.943 6.42855 111.855 6.54855C111.767 6.66055 111.719 6.80055 111.711 6.96855C111.703 7.08055 111.699 7.24455 111.699 7.46055C111.699 7.67655 111.703 7.84455 111.711 7.96455C111.727 8.14055 111.775 8.28455 111.855 8.39655C111.943 8.50855 112.079 8.56455 112.263 8.56455Z" fill="white"/>
</svg>
