<svg width="132" height="12" viewBox="0 0 132 12" fill="none" xmlns="http://www.w3.org/2000/svg">
<path d="M0.778207 9.11719C0.698207 9.11719 0.626207 9.08919 0.562207 9.03319C0.506207 8.96919 0.478206 8.89719 0.478206 8.81719V1.01719C0.478206 0.929187 0.506207 0.857187 0.562207 0.801187C0.626207 0.745187 0.698207 0.717187 0.778207 0.717187H3.89821C5.07421 0.717187 5.98621 0.997187 6.63421 1.55719C7.28221 2.11719 7.62221 2.92919 7.65421 3.99319C7.66221 4.22519 7.66621 4.53319 7.66621 4.91719C7.66621 5.30119 7.66221 5.60519 7.65421 5.82919C7.61421 6.94119 7.28221 7.76919 6.65821 8.31319C6.04221 8.84919 5.14221 9.11719 3.95821 9.11719H0.778207ZM3.89821 7.38919C4.42621 7.38919 4.81421 7.26519 5.06221 7.01719C5.31021 6.76119 5.44221 6.35719 5.45821 5.80519C5.47421 5.57319 5.48221 5.27319 5.48221 4.90519C5.48221 4.53719 5.47421 4.24119 5.45821 4.01719C5.44221 3.48119 5.29821 3.08519 5.02621 2.82919C4.76221 2.57319 4.36621 2.44519 3.83821 2.44519H2.63821V7.38919H3.89821ZM8.98405 1.97719C8.89605 1.97719 8.82405 1.94919 8.76805 1.89319C8.71205 1.83719 8.68405 1.76519 8.68405 1.67719V0.597187C8.68405 0.509187 8.71205 0.437187 8.76805 0.381187C8.82405 0.325187 8.89605 0.297187 8.98405 0.297187H10.4241C10.5121 0.297187 10.5841 0.325187 10.6401 0.381187C10.6961 0.437187 10.7241 0.509187 10.7241 0.597187V1.67719C10.7241 1.76519 10.6961 1.83719 10.6401 1.89319C10.5841 1.94919 10.5121 1.97719 10.4241 1.97719H8.98405ZM8.99605 9.11719C8.90805 9.11719 8.83605 9.08919 8.78005 9.03319C8.72405 8.97719 8.69605 8.90519 8.69605 8.81719V3.17719C8.69605 3.08919 8.72405 3.01719 8.78005 2.96119C8.83605 2.90519 8.90805 2.87719 8.99605 2.87719H10.4121C10.5001 2.87719 10.5721 2.90519 10.6281 2.96119C10.6841 3.01719 10.7121 3.08919 10.7121 3.17719V8.81719C10.7121 8.89719 10.6841 8.96919 10.6281 9.03319C10.5721 9.08919 10.5001 9.11719 10.4121 9.11719H8.99605ZM14.4576 9.23719C13.8096 9.23719 13.2656 9.14519 12.8256 8.96119C12.3936 8.77719 12.0736 8.55719 11.8656 8.30119C11.6576 8.04519 11.5536 7.81719 11.5536 7.61719C11.5536 7.53719 11.5816 7.47319 11.6376 7.42519C11.7016 7.36919 11.7696 7.34119 11.8416 7.34119H13.2096C13.2576 7.34119 13.3016 7.36119 13.3416 7.40119C13.4376 7.46519 13.5096 7.51719 13.5576 7.55719C13.7336 7.68519 13.8856 7.78119 14.0136 7.84519C14.1496 7.90119 14.3136 7.92919 14.5056 7.92919C14.7376 7.92919 14.9256 7.88519 15.0696 7.79719C15.2216 7.70119 15.2976 7.56919 15.2976 7.40119C15.2976 7.26519 15.2576 7.15719 15.1776 7.07719C15.1056 6.99719 14.9616 6.92119 14.7456 6.84919C14.5296 6.76919 14.2016 6.68519 13.7616 6.59719C13.0976 6.46119 12.5856 6.24119 12.2256 5.93719C11.8736 5.62519 11.6976 5.20919 11.6976 4.68919C11.6976 4.36119 11.8016 4.04919 12.0096 3.75319C12.2176 3.45719 12.5256 3.21719 12.9336 3.03319C13.3496 2.84919 13.8416 2.75719 14.4096 2.75719C14.9776 2.75719 15.4736 2.84519 15.8976 3.02119C16.3216 3.19719 16.6416 3.41319 16.8576 3.66919C17.0816 3.91719 17.1936 4.14519 17.1936 4.35319C17.1936 4.42519 17.1656 4.48919 17.1096 4.54519C17.0616 4.60119 17.0016 4.62919 16.9296 4.62919H15.6816C15.6176 4.62919 15.5576 4.60919 15.5016 4.56919C15.3976 4.51319 15.3056 4.45319 15.2256 4.38919C15.0896 4.28519 14.9616 4.20519 14.8416 4.14919C14.7216 4.09319 14.5736 4.06519 14.3976 4.06519C14.1896 4.06519 14.0216 4.11319 13.8936 4.20919C13.7736 4.30519 13.7136 4.42919 13.7136 4.58119C13.7136 4.70119 13.7456 4.80119 13.8096 4.88119C13.8816 4.96119 14.0256 5.04119 14.2416 5.12119C14.4656 5.19319 14.7936 5.26919 15.2256 5.34919C16.0016 5.48519 16.5656 5.72519 16.9176 6.06919C17.2776 6.41319 17.4576 6.81719 17.4576 7.28119C17.4576 7.87319 17.1936 8.34919 16.6656 8.70919C16.1376 9.06119 15.4016 9.23719 14.4576 9.23719ZM21.1505 9.23719C20.2465 9.23719 19.5145 8.99719 18.9545 8.51719C18.3945 8.02919 18.0945 7.35319 18.0545 6.48919L18.0425 6.00919L18.0545 5.51719C18.0865 4.65319 18.3825 3.97719 18.9425 3.48919C19.5105 3.00119 20.2465 2.75719 21.1505 2.75719C21.8305 2.75719 22.4025 2.88119 22.8665 3.12919C23.3385 3.36919 23.6865 3.66119 23.9105 4.00519C24.1425 4.34119 24.2665 4.64919 24.2825 4.92919C24.2905 5.00919 24.2625 5.08119 24.1985 5.14519C24.1425 5.20119 24.0705 5.22919 23.9825 5.22919H22.4585C22.3705 5.22919 22.3025 5.20919 22.2545 5.16919C22.2065 5.12919 22.1625 5.06919 22.1225 4.98919C22.0265 4.74119 21.9025 4.56519 21.7505 4.46119C21.6065 4.35719 21.4185 4.30519 21.1865 4.30519C20.5305 4.30519 20.1905 4.72919 20.1665 5.57719L20.1545 6.03319L20.1665 6.42919C20.1825 6.86119 20.2745 7.18119 20.4425 7.38919C20.6185 7.58919 20.8665 7.68919 21.1865 7.68919C21.4345 7.68919 21.6305 7.63719 21.7745 7.53319C21.9185 7.42919 22.0345 7.25319 22.1225 7.00519C22.1625 6.92519 22.2065 6.86519 22.2545 6.82519C22.3025 6.78519 22.3705 6.76519 22.4585 6.76519H23.9825C24.0625 6.76519 24.1305 6.79319 24.1865 6.84919C24.2505 6.89719 24.2825 6.96119 24.2825 7.04119C24.2825 7.29719 24.1705 7.59719 23.9465 7.94119C23.7305 8.28519 23.3865 8.58919 22.9145 8.85319C22.4425 9.10919 21.8545 9.23719 21.1505 9.23719ZM27.4126 9.23719C26.7086 9.23719 26.1406 9.00119 25.7086 8.52919C25.2766 8.04919 25.0606 7.38119 25.0606 6.52519V3.17719C25.0606 3.08919 25.0886 3.01719 25.1446 2.96119C25.2006 2.90519 25.2726 2.87719 25.3606 2.87719H26.8606C26.9486 2.87719 27.0206 2.90519 27.0766 2.96119C27.1406 3.01719 27.1726 3.08919 27.1726 3.17719V6.45319C27.1726 7.23719 27.5206 7.62919 28.2166 7.62919C28.5526 7.62919 28.8166 7.52519 29.0086 7.31719C29.2006 7.10919 29.2966 6.82119 29.2966 6.45319V3.17719C29.2966 3.08919 29.3246 3.01719 29.3806 2.96119C29.4446 2.90519 29.5166 2.87719 29.5966 2.87719H31.0966C31.1846 2.87719 31.2566 2.90519 31.3126 2.96119C31.3686 3.01719 31.3966 3.08919 31.3966 3.17719V8.81719C31.3966 8.89719 31.3686 8.96919 31.3126 9.03319C31.2566 9.08919 31.1846 9.11719 31.0966 9.11719H29.7046C29.6246 9.11719 29.5526 9.08919 29.4886 9.03319C29.4326 8.96919 29.4046 8.89719 29.4046 8.81719V8.36119C28.9886 8.94519 28.3246 9.23719 27.4126 9.23719ZM35.1361 9.23719C34.4881 9.23719 33.9441 9.14519 33.5041 8.96119C33.0721 8.77719 32.7521 8.55719 32.5441 8.30119C32.3361 8.04519 32.2321 7.81719 32.2321 7.61719C32.2321 7.53719 32.2601 7.47319 32.3161 7.42519C32.3801 7.36919 32.4481 7.34119 32.5201 7.34119H33.8881C33.9361 7.34119 33.9801 7.36119 34.0201 7.40119C34.1161 7.46519 34.1881 7.51719 34.2361 7.55719C34.4121 7.68519 34.5641 7.78119 34.6921 7.84519C34.8281 7.90119 34.9921 7.92919 35.1841 7.92919C35.4161 7.92919 35.6041 7.88519 35.7481 7.79719C35.9001 7.70119 35.9761 7.56919 35.9761 7.40119C35.9761 7.26519 35.9361 7.15719 35.8561 7.07719C35.7841 6.99719 35.6401 6.92119 35.4241 6.84919C35.2081 6.76919 34.8801 6.68519 34.4401 6.59719C33.7761 6.46119 33.2641 6.24119 32.9041 5.93719C32.5521 5.62519 32.3761 5.20919 32.3761 4.68919C32.3761 4.36119 32.4801 4.04919 32.6881 3.75319C32.8961 3.45719 33.2041 3.21719 33.6121 3.03319C34.0281 2.84919 34.5201 2.75719 35.0881 2.75719C35.6561 2.75719 36.1521 2.84519 36.5761 3.02119C37.0001 3.19719 37.3201 3.41319 37.5361 3.66919C37.7601 3.91719 37.8721 4.14519 37.8721 4.35319C37.8721 4.42519 37.8441 4.48919 37.7881 4.54519C37.7401 4.60119 37.6801 4.62919 37.6081 4.62919H36.3601C36.2961 4.62919 36.2361 4.60919 36.1801 4.56919C36.0761 4.51319 35.9841 4.45319 35.9041 4.38919C35.7681 4.28519 35.6401 4.20519 35.5201 4.14919C35.4001 4.09319 35.2521 4.06519 35.0761 4.06519C34.8681 4.06519 34.7001 4.11319 34.5721 4.20919C34.4521 4.30519 34.3921 4.42919 34.3921 4.58119C34.3921 4.70119 34.4241 4.80119 34.4881 4.88119C34.5601 4.96119 34.7041 5.04119 34.9201 5.12119C35.1441 5.19319 35.4721 5.26919 35.9041 5.34919C36.6801 5.48519 37.2441 5.72519 37.5961 6.06919C37.9561 6.41319 38.1361 6.81719 38.1361 7.28119C38.1361 7.87319 37.8721 8.34919 37.3441 8.70919C36.8161 9.06119 36.0801 9.23719 35.1361 9.23719ZM41.5289 9.23719C40.8809 9.23719 40.3369 9.14519 39.8969 8.96119C39.4649 8.77719 39.1449 8.55719 38.9369 8.30119C38.7289 8.04519 38.6249 7.81719 38.6249 7.61719C38.6249 7.53719 38.6529 7.47319 38.7089 7.42519C38.7729 7.36919 38.8409 7.34119 38.9129 7.34119H40.2809C40.3289 7.34119 40.3729 7.36119 40.4129 7.40119C40.5089 7.46519 40.5809 7.51719 40.6289 7.55719C40.8049 7.68519 40.9569 7.78119 41.0849 7.84519C41.2209 7.90119 41.3849 7.92919 41.5769 7.92919C41.8089 7.92919 41.9969 7.88519 42.1409 7.79719C42.2929 7.70119 42.3689 7.56919 42.3689 7.40119C42.3689 7.26519 42.3289 7.15719 42.2489 7.07719C42.1769 6.99719 42.0329 6.92119 41.8169 6.84919C41.6009 6.76919 41.2729 6.68519 40.8329 6.59719C40.1689 6.46119 39.6569 6.24119 39.2969 5.93719C38.9449 5.62519 38.7689 5.20919 38.7689 4.68919C38.7689 4.36119 38.8729 4.04919 39.0809 3.75319C39.2889 3.45719 39.5969 3.21719 40.0049 3.03319C40.4209 2.84919 40.9129 2.75719 41.4809 2.75719C42.0489 2.75719 42.5449 2.84519 42.9689 3.02119C43.3929 3.19719 43.7129 3.41319 43.9289 3.66919C44.1529 3.91719 44.2649 4.14519 44.2649 4.35319C44.2649 4.42519 44.2369 4.48919 44.1809 4.54519C44.1329 4.60119 44.0729 4.62919 44.0009 4.62919H42.7529C42.6889 4.62919 42.6289 4.60919 42.5729 4.56919C42.4689 4.51319 42.3769 4.45319 42.2969 4.38919C42.1609 4.28519 42.0329 4.20519 41.9129 4.14919C41.7929 4.09319 41.6449 4.06519 41.4689 4.06519C41.2609 4.06519 41.0929 4.11319 40.9649 4.20919C40.8449 4.30519 40.7849 4.42919 40.7849 4.58119C40.7849 4.70119 40.8169 4.80119 40.8809 4.88119C40.9529 4.96119 41.0969 5.04119 41.3129 5.12119C41.5369 5.19319 41.8649 5.26919 42.2969 5.34919C43.0729 5.48519 43.6369 5.72519 43.9889 6.06919C44.3489 6.41319 44.5289 6.81719 44.5289 7.28119C44.5289 7.87319 44.2649 8.34919 43.7369 8.70919C43.2089 9.06119 42.4729 9.23719 41.5289 9.23719ZM45.6417 1.97719C45.5537 1.97719 45.4817 1.94919 45.4257 1.89319C45.3697 1.83719 45.3417 1.76519 45.3417 1.67719V0.597187C45.3417 0.509187 45.3697 0.437187 45.4257 0.381187C45.4817 0.325187 45.5537 0.297187 45.6417 0.297187H47.0817C47.1697 0.297187 47.2417 0.325187 47.2977 0.381187C47.3537 0.437187 47.3817 0.509187 47.3817 0.597187V1.67719C47.3817 1.76519 47.3537 1.83719 47.2977 1.89319C47.2417 1.94919 47.1697 1.97719 47.0817 1.97719H45.6417ZM45.6537 9.11719C45.5657 9.11719 45.4937 9.08919 45.4377 9.03319C45.3817 8.97719 45.3537 8.90519 45.3537 8.81719V3.17719C45.3537 3.08919 45.3817 3.01719 45.4377 2.96119C45.4937 2.90519 45.5657 2.87719 45.6537 2.87719H47.0697C47.1577 2.87719 47.2297 2.90519 47.2857 2.96119C47.3417 3.01719 47.3697 3.08919 47.3697 3.17719V8.81719C47.3697 8.89719 47.3417 8.96919 47.2857 9.03319C47.2297 9.08919 47.1577 9.11719 47.0697 9.11719H45.6537ZM51.4993 9.23719C50.5073 9.23719 49.7433 9.00119 49.2073 8.52919C48.6713 8.05719 48.3793 7.39319 48.3313 6.53719C48.3233 6.43319 48.3193 6.25319 48.3193 5.99719C48.3193 5.74119 48.3233 5.56119 48.3313 5.45719C48.3793 4.60919 48.6793 3.94919 49.2313 3.47719C49.7833 2.99719 50.5393 2.75719 51.4993 2.75719C52.4673 2.75719 53.2273 2.99719 53.7793 3.47719C54.3313 3.94919 54.6313 4.60919 54.6793 5.45719C54.6873 5.56119 54.6913 5.74119 54.6913 5.99719C54.6913 6.25319 54.6873 6.43319 54.6793 6.53719C54.6313 7.39319 54.3393 8.05719 53.8033 8.52919C53.2673 9.00119 52.4993 9.23719 51.4993 9.23719ZM51.4993 7.77319C51.8513 7.77319 52.1113 7.66919 52.2793 7.46119C52.4473 7.24519 52.5433 6.91719 52.5673 6.47719C52.5753 6.39719 52.5793 6.23719 52.5793 5.99719C52.5793 5.75719 52.5753 5.59719 52.5673 5.51719C52.5433 5.08519 52.4433 4.76119 52.2673 4.54519C52.0993 4.32919 51.8433 4.22119 51.4993 4.22119C50.8353 4.22119 50.4833 4.65319 50.4433 5.51719L50.4313 5.99719L50.4433 6.47719C50.4593 6.91719 50.5513 7.24519 50.7193 7.46119C50.8953 7.66919 51.1553 7.77319 51.4993 7.77319ZM55.9432 9.11719C55.8552 9.11719 55.7832 9.08919 55.7272 9.03319C55.6712 8.97719 55.6432 8.90519 55.6432 8.81719V3.17719C55.6432 3.08919 55.6712 3.01719 55.7272 2.96119C55.7832 2.90519 55.8552 2.87719 55.9432 2.87719H57.3232C57.4112 2.87719 57.4832 2.90519 57.5392 2.96119C57.6032 3.01719 57.6352 3.08919 57.6352 3.17719V3.63319C57.8512 3.36919 58.1272 3.15719 58.4632 2.99719C58.8072 2.83719 59.1952 2.75719 59.6272 2.75719C60.3312 2.75719 60.9032 2.99719 61.3432 3.47719C61.7832 3.94919 62.0032 4.61319 62.0032 5.46919V8.81719C62.0032 8.89719 61.9752 8.96919 61.9192 9.03319C61.8632 9.08919 61.7912 9.11719 61.7032 9.11719H60.1912C60.1112 9.11719 60.0392 9.08919 59.9752 9.03319C59.9192 8.96919 59.8912 8.89719 59.8912 8.81719V5.54119C59.8912 5.16519 59.7992 4.87719 59.6152 4.67719C59.4312 4.46919 59.1672 4.36519 58.8232 4.36519C58.4872 4.36519 58.2232 4.46919 58.0312 4.67719C57.8392 4.87719 57.7432 5.16519 57.7432 5.54119V8.81719C57.7432 8.89719 57.7152 8.96919 57.6592 9.03319C57.6032 9.08919 57.5312 9.11719 57.4432 9.11719H55.9432ZM71.3436 9.23719C70.1916 9.23719 69.2916 8.95719 68.6436 8.39719C67.9956 7.82919 67.6516 7.02519 67.6116 5.98519C67.6036 5.75319 67.5996 5.38519 67.5996 4.88119C67.5996 4.37719 67.6036 4.00919 67.6116 3.77719C67.6516 2.76119 67.9996 1.97719 68.6556 1.42519C69.3196 0.873187 70.2156 0.597187 71.3436 0.597187C72.1036 0.597187 72.7636 0.721187 73.3236 0.969187C73.8916 1.21719 74.3236 1.53319 74.6196 1.91719C74.9236 2.30119 75.0836 2.69719 75.0996 3.10519C75.0996 3.17719 75.0716 3.23719 75.0156 3.28519C74.9676 3.33319 74.9076 3.35719 74.8356 3.35719H73.0836C73.0036 3.35719 72.9396 3.34519 72.8916 3.32119C72.8436 3.29719 72.8036 3.25319 72.7716 3.18919C72.6676 2.95719 72.5036 2.75719 72.2796 2.58919C72.0556 2.41319 71.7436 2.32519 71.3436 2.32519C70.3916 2.32519 69.8916 2.82919 69.8436 3.83719C69.8356 4.06119 69.8316 4.40919 69.8316 4.88119C69.8316 5.34519 69.8356 5.69319 69.8436 5.92519C69.8916 6.98119 70.4036 7.50919 71.3796 7.50919C71.8516 7.50919 72.2276 7.38919 72.5076 7.14919C72.7956 6.90119 72.9396 6.52519 72.9396 6.02119V5.79319H71.8116C71.7236 5.79319 71.6516 5.76519 71.5956 5.70919C71.5396 5.64519 71.5116 5.56919 71.5116 5.48119V4.59319C71.5116 4.50519 71.5396 4.43319 71.5956 4.37719C71.6516 4.31319 71.7236 4.28119 71.8116 4.28119H74.8356C74.9236 4.28119 74.9956 4.31319 75.0516 4.37719C75.1076 4.43319 75.1356 4.50519 75.1356 4.59319V5.96119C75.1356 6.64119 74.9796 7.22919 74.6676 7.72519C74.3556 8.21319 73.9116 8.58919 73.3356 8.85319C72.7676 9.10919 72.1036 9.23719 71.3436 9.23719ZM76.4403 9.11719C76.3523 9.11719 76.2803 9.08919 76.2243 9.03319C76.1683 8.97719 76.1403 8.90519 76.1403 8.81719V3.17719C76.1403 3.08919 76.1683 3.01719 76.2243 2.96119C76.2803 2.90519 76.3523 2.87719 76.4403 2.87719H77.8203C77.9083 2.87719 77.9803 2.90919 78.0363 2.97319C78.1003 3.02919 78.1323 3.09719 78.1323 3.17719V3.65719C78.5723 3.13719 79.1643 2.87719 79.9083 2.87719H80.4363C80.5243 2.87719 80.5963 2.90519 80.6523 2.96119C80.7083 3.01719 80.7363 3.08919 80.7363 3.17719V4.41319C80.7363 4.49319 80.7083 4.56519 80.6523 4.62919C80.5963 4.68519 80.5243 4.71319 80.4363 4.71319H79.2723C78.9443 4.71319 78.6883 4.80519 78.5043 4.98919C78.3283 5.16519 78.2403 5.41719 78.2403 5.74519V8.81719C78.2403 8.90519 78.2083 8.97719 78.1443 9.03319C78.0883 9.08919 78.0163 9.11719 77.9283 9.11719H76.4403ZM84.2429 9.23719C83.2509 9.23719 82.4869 9.00119 81.9509 8.52919C81.4149 8.05719 81.1229 7.39319 81.0749 6.53719C81.0669 6.43319 81.0629 6.25319 81.0629 5.99719C81.0629 5.74119 81.0669 5.56119 81.0749 5.45719C81.1229 4.60919 81.4229 3.94919 81.9749 3.47719C82.5269 2.99719 83.2829 2.75719 84.2429 2.75719C85.2109 2.75719 85.9709 2.99719 86.5229 3.47719C87.0749 3.94919 87.3749 4.60919 87.4229 5.45719C87.4309 5.56119 87.4349 5.74119 87.4349 5.99719C87.4349 6.25319 87.4309 6.43319 87.4229 6.53719C87.3749 7.39319 87.0829 8.05719 86.5469 8.52919C86.0109 9.00119 85.2429 9.23719 84.2429 9.23719ZM84.2429 7.77319C84.5949 7.77319 84.8549 7.66919 85.0229 7.46119C85.1909 7.24519 85.2869 6.91719 85.3109 6.47719C85.3189 6.39719 85.3229 6.23719 85.3229 5.99719C85.3229 5.75719 85.3189 5.59719 85.3109 5.51719C85.2869 5.08519 85.1869 4.76119 85.0109 4.54519C84.8429 4.32919 84.5869 4.22119 84.2429 4.22119C83.5789 4.22119 83.2269 4.65319 83.1869 5.51719L83.1749 5.99719L83.1869 6.47719C83.2029 6.91719 83.2949 7.24519 83.4629 7.46119C83.6389 7.66919 83.8989 7.77319 84.2429 7.77319ZM90.6788 9.23719C89.9748 9.23719 89.4068 9.00119 88.9748 8.52919C88.5428 8.04919 88.3268 7.38119 88.3268 6.52519V3.17719C88.3268 3.08919 88.3548 3.01719 88.4108 2.96119C88.4668 2.90519 88.5388 2.87719 88.6268 2.87719H90.1268C90.2148 2.87719 90.2868 2.90519 90.3428 2.96119C90.4068 3.01719 90.4388 3.08919 90.4388 3.17719V6.45319C90.4388 7.23719 90.7868 7.62919 91.4828 7.62919C91.8188 7.62919 92.0828 7.52519 92.2748 7.31719C92.4668 7.10919 92.5628 6.82119 92.5628 6.45319V3.17719C92.5628 3.08919 92.5908 3.01719 92.6468 2.96119C92.7108 2.90519 92.7828 2.87719 92.8628 2.87719H94.3628C94.4508 2.87719 94.5228 2.90519 94.5788 2.96119C94.6348 3.01719 94.6628 3.08919 94.6628 3.17719V8.81719C94.6628 8.89719 94.6348 8.96919 94.5788 9.03319C94.5228 9.08919 94.4508 9.11719 94.3628 9.11719H92.9708C92.8908 9.11719 92.8188 9.08919 92.7548 9.03319C92.6988 8.96919 92.6708 8.89719 92.6708 8.81719V8.36119C92.2548 8.94519 91.5908 9.23719 90.6788 9.23719ZM96.1343 11.3972C96.0543 11.3972 95.9823 11.3692 95.9183 11.3132C95.8623 11.2572 95.8343 11.1852 95.8343 11.0972V3.17719C95.8343 3.08919 95.8623 3.01719 95.9183 2.96119C95.9823 2.90519 96.0543 2.87719 96.1343 2.87719H97.4903C97.5783 2.87719 97.6503 2.90519 97.7063 2.96119C97.7623 3.01719 97.7903 3.08919 97.7903 3.17719V3.60919C98.2223 3.04119 98.8423 2.75719 99.6503 2.75719C100.434 2.75719 101.046 3.00119 101.486 3.48919C101.926 3.97719 102.166 4.66519 102.206 5.55319C102.214 5.65719 102.218 5.80519 102.218 5.99719C102.218 6.18919 102.214 6.33719 102.206 6.44119C102.174 7.30519 101.934 7.98919 101.486 8.49319C101.038 8.98919 100.426 9.23719 99.6503 9.23719C98.8663 9.23719 98.2823 8.96919 97.8983 8.43319V11.0972C97.8983 11.1852 97.8703 11.2572 97.8143 11.3132C97.7583 11.3692 97.6863 11.3972 97.5983 11.3972H96.1343ZM99.0023 7.62919C99.3783 7.62919 99.6463 7.51719 99.8063 7.29319C99.9743 7.06919 100.07 6.76119 100.094 6.36919C100.11 6.20919 100.118 6.08519 100.118 5.99719C100.118 5.90919 100.11 5.78519 100.094 5.62519C100.07 5.23319 99.9743 4.92519 99.8063 4.70119C99.6463 4.47719 99.3783 4.36519 99.0023 4.36519C98.6343 4.36519 98.3623 4.48119 98.1863 4.71319C98.0183 4.93719 97.9223 5.22919 97.8983 5.58919L97.8863 6.03319L97.8983 6.48919C97.9143 6.81719 98.0143 7.08919 98.1983 7.30519C98.3823 7.52119 98.6503 7.62919 99.0023 7.62919ZM110.926 9.24919C110.206 9.24919 109.59 9.13719 109.078 8.91319C108.566 8.68119 108.174 8.37319 107.902 7.98919C107.638 7.60519 107.498 7.18919 107.482 6.74119C107.482 6.66919 107.506 6.60919 107.554 6.56119C107.602 6.51319 107.662 6.48919 107.734 6.48919H109.342C109.526 6.48919 109.654 6.56519 109.726 6.71719C109.942 7.25319 110.346 7.52119 110.938 7.52119C111.29 7.52119 111.586 7.41319 111.826 7.19719C112.074 6.97319 112.198 6.66519 112.198 6.27319C112.198 5.92119 112.078 5.63319 111.838 5.40919C111.606 5.18519 111.306 5.07319 110.938 5.07319C110.73 5.07319 110.562 5.10119 110.434 5.15719C110.314 5.20519 110.19 5.27719 110.062 5.37319C109.926 5.47719 109.818 5.52919 109.738 5.52919H108.166C108.094 5.52919 108.03 5.50519 107.974 5.45719C107.926 5.40119 107.902 5.33719 107.902 5.26519L108.334 1.07719C108.342 0.965187 108.382 0.877187 108.454 0.813187C108.534 0.749187 108.626 0.717187 108.73 0.717187H113.542C113.63 0.717187 113.702 0.745187 113.758 0.801187C113.822 0.857187 113.854 0.929187 113.854 1.01719V2.14519C113.854 2.23319 113.822 2.30519 113.758 2.36119C113.702 2.41719 113.63 2.44519 113.542 2.44519H110.062L109.906 3.99319C110.106 3.85719 110.326 3.75719 110.566 3.69319C110.806 3.62119 111.118 3.58519 111.502 3.58519C112.006 3.58519 112.482 3.70119 112.93 3.93319C113.378 4.15719 113.734 4.47719 113.998 4.89319C114.27 5.30919 114.406 5.78519 114.406 6.32119C114.406 6.88919 114.266 7.39719 113.986 7.84519C113.706 8.28519 113.302 8.62919 112.774 8.87719C112.254 9.12519 111.638 9.24919 110.926 9.24919ZM118.672 9.23719C117.568 9.22919 116.732 8.93719 116.164 8.36119C115.596 7.77719 115.288 7.01319 115.24 6.06919C115.224 5.63719 115.216 5.25319 115.216 4.91719C115.216 4.57319 115.224 4.17719 115.24 3.72919C115.272 3.12919 115.416 2.59719 115.672 2.13319C115.936 1.66119 116.32 1.28919 116.824 1.01719C117.328 0.737187 117.944 0.597187 118.672 0.597187C119.752 0.605187 120.584 0.897187 121.168 1.47319C121.752 2.04919 122.068 2.80119 122.116 3.72919C122.132 4.17719 122.14 4.57319 122.14 4.91719C122.14 5.25319 122.132 5.63719 122.116 6.06919C122.06 7.01319 121.748 7.77719 121.18 8.36119C120.612 8.93719 119.776 9.22919 118.672 9.23719ZM118.672 7.49719C119.064 7.49719 119.356 7.36919 119.548 7.11319C119.748 6.84919 119.856 6.48119 119.872 6.00919C119.888 5.77719 119.896 5.40519 119.896 4.89319C119.896 4.38119 119.888 4.01719 119.872 3.80119C119.856 3.34519 119.752 2.98519 119.56 2.72119C119.368 2.45719 119.072 2.32119 118.672 2.31319C118.28 2.32119 117.984 2.45719 117.784 2.72119C117.592 2.98519 117.488 3.34519 117.472 3.80119C117.464 4.01719 117.46 4.38119 117.46 4.89319C117.46 5.40519 117.464 5.77719 117.472 6.00919C117.512 7.00119 117.912 7.49719 118.672 7.49719ZM124.824 4.95319C124.28 4.95319 123.844 4.81319 123.516 4.53319C123.188 4.24519 123.008 3.86119 122.976 3.38119C122.96 3.14119 122.952 2.97319 122.952 2.87719C122.952 2.78119 122.96 2.57319 122.976 2.25319C123 1.76519 123.172 1.37719 123.492 1.08919C123.812 0.801187 124.256 0.657187 124.824 0.657187C125.384 0.657187 125.824 0.801187 126.144 1.08919C126.464 1.37719 126.636 1.76519 126.66 2.25319C126.676 2.57319 126.684 2.78119 126.684 2.87719C126.684 2.97319 126.676 3.14119 126.66 3.38119C126.628 3.86119 126.448 4.24519 126.12 4.53319C125.792 4.81319 125.36 4.95319 124.824 4.95319ZM123.864 9.11719C123.784 9.11719 123.716 9.09719 123.66 9.05719C123.612 9.00919 123.588 8.94919 123.588 8.87719C123.588 8.82919 123.604 8.78519 123.636 8.74519L129.564 0.945187C129.628 0.865187 129.688 0.809187 129.744 0.777187C129.8 0.737187 129.88 0.717187 129.984 0.717187H130.836C130.916 0.717187 130.98 0.741187 131.028 0.789187C131.084 0.829187 131.112 0.885187 131.112 0.957187C131.112 1.00519 131.096 1.04919 131.064 1.08919L125.136 8.88919C125.072 8.96919 125.012 9.02919 124.956 9.06919C124.9 9.10119 124.82 9.11719 124.716 9.11719H123.864ZM124.824 3.90919C125.16 3.90919 125.344 3.71319 125.376 3.32119C125.392 3.06519 125.4 2.89719 125.4 2.81719C125.4 2.71319 125.392 2.54919 125.376 2.32519C125.368 2.14919 125.316 2.00519 125.22 1.89319C125.132 1.78119 125 1.72519 124.824 1.72519C124.64 1.72519 124.504 1.78119 124.416 1.89319C124.328 2.00519 124.276 2.14919 124.26 2.32519C124.252 2.43719 124.248 2.60119 124.248 2.81719C124.248 3.02519 124.252 3.19319 124.26 3.32119C124.292 3.71319 124.48 3.90919 124.824 3.90919ZM129.9 9.17719C129.356 9.17719 128.92 9.03719 128.592 8.75719C128.272 8.46919 128.092 8.08119 128.052 7.59319C128.044 7.45719 128.04 7.27319 128.04 7.04119C128.04 6.80119 128.044 6.60919 128.052 6.46519C128.084 5.96919 128.256 5.57719 128.568 5.28919C128.888 5.00119 129.332 4.85719 129.9 4.85719C130.468 4.85719 130.908 5.00119 131.22 5.28919C131.54 5.57719 131.716 5.96919 131.748 6.46519C131.764 6.78519 131.772 6.99319 131.772 7.08919C131.772 7.18519 131.764 7.35319 131.748 7.59319C131.716 8.07319 131.536 8.45719 131.208 8.74519C130.88 9.03319 130.444 9.17719 129.9 9.17719ZM129.9 8.12119C130.084 8.12119 130.22 8.06519 130.308 7.95319C130.396 7.83319 130.448 7.68919 130.464 7.52119C130.48 7.28119 130.488 7.11319 130.488 7.01719C130.488 6.91319 130.48 6.74919 130.464 6.52519C130.448 6.35719 130.396 6.21719 130.308 6.10519C130.22 5.98519 130.084 5.92519 129.9 5.92519C129.716 5.92519 129.58 5.98519 129.492 6.10519C129.404 6.21719 129.356 6.35719 129.348 6.52519C129.34 6.63719 129.336 6.80119 129.336 7.01719C129.336 7.23319 129.34 7.40119 129.348 7.52119C129.364 7.69719 129.412 7.84119 129.492 7.95319C129.58 8.06519 129.716 8.12119 129.9 8.12119Z" fill="white"/>
</svg>
