<svg width="65" height="9" viewBox="0 0 65 9" fill="none" xmlns="http://www.w3.org/2000/svg">
<path d="M0.773186 8.80078C0.693186 8.80078 0.621186 8.77278 0.557186 8.71678C0.501186 8.65278 0.473186 8.58078 0.473186 8.50078V0.700781C0.473186 0.612781 0.501186 0.540781 0.557186 0.484781C0.621186 0.428781 0.693186 0.400781 0.773186 0.400781H2.35719C2.44519 0.400781 2.51719 0.428781 2.57319 0.484781C2.62919 0.540781 2.65719 0.612781 2.65719 0.700781V6.98878H6.29319C6.38119 6.98878 6.45319 7.02078 6.50919 7.08478C6.56519 7.14078 6.59319 7.21278 6.59319 7.30078V8.50078C6.59319 8.58078 6.56519 8.65278 6.50919 8.71678C6.45319 8.77278 6.38119 8.80078 6.29319 8.80078H0.773186ZM10.0827 8.92078C9.12275 8.92078 8.36675 8.66078 7.81475 8.14078C7.26275 7.62078 6.97475 6.86478 6.95075 5.87278V5.45278C6.98275 4.50878 7.27475 3.77278 7.82675 3.24478C8.38675 2.70878 9.13475 2.44078 10.0707 2.44078C10.7507 2.44078 11.3227 2.58078 11.7867 2.86078C12.2587 3.13278 12.6107 3.50878 12.8427 3.98878C13.0827 4.46878 13.2027 5.02078 13.2027 5.64478V5.93278C13.2027 6.01278 13.1747 6.08478 13.1187 6.14878C13.0627 6.20478 12.9907 6.23278 12.9027 6.23278H9.06275V6.31678C9.07875 6.69278 9.17075 6.99678 9.33875 7.22878C9.50675 7.46078 9.75075 7.57678 10.0707 7.57678C10.2707 7.57678 10.4347 7.53678 10.5627 7.45678C10.6907 7.36878 10.8067 7.26478 10.9107 7.14478C10.9827 7.05678 11.0387 7.00478 11.0787 6.98878C11.1267 6.96478 11.1987 6.95278 11.2947 6.95278H12.7827C12.8547 6.95278 12.9147 6.97678 12.9627 7.02478C13.0187 7.06478 13.0467 7.12078 13.0467 7.19278C13.0467 7.40078 12.9267 7.64078 12.6867 7.91278C12.4547 8.18478 12.1147 8.42078 11.6667 8.62078C11.2187 8.82078 10.6907 8.92078 10.0827 8.92078ZM11.0907 5.04478V5.02078C11.0907 4.62878 10.9987 4.32078 10.8147 4.09678C10.6387 3.86478 10.3907 3.74878 10.0707 3.74878C9.75875 3.74878 9.51075 3.86478 9.32675 4.09678C9.15075 4.32078 9.06275 4.62878 9.06275 5.02078V5.04478H11.0907ZM16.9557 8.92078C16.0517 8.92078 15.3197 8.68078 14.7597 8.20078C14.1997 7.71278 13.8997 7.03678 13.8597 6.17278L13.8477 5.69278L13.8597 5.20078C13.8917 4.33678 14.1877 3.66078 14.7477 3.17278C15.3157 2.68478 16.0517 2.44078 16.9557 2.44078C17.6357 2.44078 18.2077 2.56478 18.6717 2.81278C19.1437 3.05278 19.4917 3.34478 19.7157 3.68878C19.9477 4.02478 20.0717 4.33278 20.0877 4.61278C20.0957 4.69278 20.0677 4.76478 20.0037 4.82878C19.9477 4.88478 19.8757 4.91278 19.7877 4.91278H18.2637C18.1757 4.91278 18.1077 4.89278 18.0597 4.85278C18.0117 4.81278 17.9677 4.75278 17.9277 4.67278C17.8317 4.42478 17.7077 4.24878 17.5557 4.14478C17.4117 4.04078 17.2237 3.98878 16.9917 3.98878C16.3357 3.98878 15.9957 4.41278 15.9717 5.26078L15.9597 5.71678L15.9717 6.11278C15.9877 6.54478 16.0797 6.86478 16.2477 7.07278C16.4237 7.27278 16.6717 7.37278 16.9917 7.37278C17.2397 7.37278 17.4357 7.32078 17.5797 7.21678C17.7237 7.11278 17.8397 6.93678 17.9277 6.68878C17.9677 6.60878 18.0117 6.54878 18.0597 6.50878C18.1077 6.46878 18.1757 6.44878 18.2637 6.44878H19.7877C19.8677 6.44878 19.9357 6.47678 19.9917 6.53278C20.0557 6.58078 20.0877 6.64478 20.0877 6.72478C20.0877 6.98078 19.9757 7.28078 19.7517 7.62478C19.5357 7.96878 19.1917 8.27278 18.7197 8.53678C18.2477 8.79278 17.6597 8.92078 16.9557 8.92078ZM24.1179 8.80078C22.4619 8.80078 21.6339 8.01278 21.6339 6.43678V4.13278H20.6979C20.6099 4.13278 20.5339 4.10478 20.4699 4.04878C20.4139 3.99278 20.3859 3.92078 20.3859 3.83278V2.86078C20.3859 2.77278 20.4139 2.70078 20.4699 2.64478C20.5339 2.58878 20.6099 2.56078 20.6979 2.56078H21.6339V0.580781C21.6339 0.492781 21.6619 0.420781 21.7179 0.364781C21.7819 0.308781 21.8539 0.280781 21.9339 0.280781H23.3259C23.4139 0.280781 23.4859 0.308781 23.5419 0.364781C23.5979 0.420781 23.6259 0.492781 23.6259 0.580781V2.56078H25.1259C25.2139 2.56078 25.2859 2.58878 25.3419 2.64478C25.4059 2.70078 25.4379 2.77278 25.4379 2.86078V3.83278C25.4379 3.92078 25.4059 3.99278 25.3419 4.04878C25.2859 4.10478 25.2139 4.13278 25.1259 4.13278H23.6259V6.26878C23.6259 6.86078 23.8539 7.15678 24.3099 7.15678H25.2339C25.3219 7.15678 25.3939 7.18478 25.4499 7.24078C25.5059 7.29678 25.5339 7.36878 25.5339 7.45678V8.50078C25.5339 8.58078 25.5059 8.65278 25.4499 8.71678C25.3939 8.77278 25.3219 8.80078 25.2339 8.80078H24.1179ZM28.5794 8.92078C27.8754 8.92078 27.3074 8.68478 26.8754 8.21278C26.4434 7.73278 26.2274 7.06478 26.2274 6.20878V2.86078C26.2274 2.77278 26.2554 2.70078 26.3114 2.64478C26.3674 2.58878 26.4394 2.56078 26.5274 2.56078H28.0274C28.1154 2.56078 28.1874 2.58878 28.2434 2.64478C28.3074 2.70078 28.3394 2.77278 28.3394 2.86078V6.13678C28.3394 6.92078 28.6874 7.31278 29.3834 7.31278C29.7194 7.31278 29.9834 7.20878 30.1754 7.00078C30.3674 6.79278 30.4634 6.50478 30.4634 6.13678V2.86078C30.4634 2.77278 30.4914 2.70078 30.5474 2.64478C30.6114 2.58878 30.6834 2.56078 30.7634 2.56078H32.2634C32.3514 2.56078 32.4234 2.58878 32.4794 2.64478C32.5354 2.70078 32.5634 2.77278 32.5634 2.86078V8.50078C32.5634 8.58078 32.5354 8.65278 32.4794 8.71678C32.4234 8.77278 32.3514 8.80078 32.2634 8.80078H30.8714C30.7914 8.80078 30.7194 8.77278 30.6554 8.71678C30.5994 8.65278 30.5714 8.58078 30.5714 8.50078V8.04478C30.1554 8.62878 29.4914 8.92078 28.5794 8.92078ZM34.0349 8.80078C33.9469 8.80078 33.8749 8.77278 33.8189 8.71678C33.7629 8.66078 33.7349 8.58878 33.7349 8.50078V2.86078C33.7349 2.77278 33.7629 2.70078 33.8189 2.64478C33.8749 2.58878 33.9469 2.56078 34.0349 2.56078H35.4149C35.5029 2.56078 35.5749 2.59278 35.6309 2.65678C35.6949 2.71278 35.7269 2.78078 35.7269 2.86078V3.34078C36.1669 2.82078 36.7589 2.56078 37.5029 2.56078H38.0309C38.1189 2.56078 38.1909 2.58878 38.2469 2.64478C38.3029 2.70078 38.3309 2.77278 38.3309 2.86078V4.09678C38.3309 4.17678 38.3029 4.24878 38.2469 4.31278C38.1909 4.36878 38.1189 4.39678 38.0309 4.39678H36.8669C36.5389 4.39678 36.2829 4.48878 36.0989 4.67278C35.9229 4.84878 35.8349 5.10078 35.8349 5.42878V8.50078C35.8349 8.58878 35.8029 8.66078 35.7389 8.71678C35.6829 8.77278 35.6109 8.80078 35.5229 8.80078H34.0349ZM41.7656 8.92078C40.8056 8.92078 40.0496 8.66078 39.4976 8.14078C38.9456 7.62078 38.6576 6.86478 38.6336 5.87278V5.45278C38.6656 4.50878 38.9576 3.77278 39.5096 3.24478C40.0696 2.70878 40.8176 2.44078 41.7536 2.44078C42.4336 2.44078 43.0056 2.58078 43.4696 2.86078C43.9416 3.13278 44.2936 3.50878 44.5256 3.98878C44.7656 4.46878 44.8856 5.02078 44.8856 5.64478V5.93278C44.8856 6.01278 44.8576 6.08478 44.8016 6.14878C44.7456 6.20478 44.6736 6.23278 44.5856 6.23278H40.7456V6.31678C40.7616 6.69278 40.8536 6.99678 41.0216 7.22878C41.1896 7.46078 41.4336 7.57678 41.7536 7.57678C41.9536 7.57678 42.1176 7.53678 42.2456 7.45678C42.3736 7.36878 42.4896 7.26478 42.5936 7.14478C42.6656 7.05678 42.7216 7.00478 42.7616 6.98878C42.8096 6.96478 42.8816 6.95278 42.9776 6.95278H44.4656C44.5376 6.95278 44.5976 6.97678 44.6456 7.02478C44.7016 7.06478 44.7296 7.12078 44.7296 7.19278C44.7296 7.40078 44.6096 7.64078 44.3696 7.91278C44.1376 8.18478 43.7976 8.42078 43.3496 8.62078C42.9016 8.82078 42.3736 8.92078 41.7656 8.92078ZM42.7736 5.04478V5.02078C42.7736 4.62878 42.6816 4.32078 42.4976 4.09678C42.3216 3.86478 42.0736 3.74878 41.7536 3.74878C41.4416 3.74878 41.1936 3.86478 41.0096 4.09678C40.8336 4.32078 40.7456 4.62878 40.7456 5.02078V5.04478H42.7736ZM51.2173 8.93278C50.4973 8.93278 49.8813 8.82078 49.3693 8.59678C48.8573 8.36478 48.4653 8.05678 48.1933 7.67278C47.9293 7.28878 47.7893 6.87278 47.7733 6.42478C47.7733 6.35278 47.7973 6.29278 47.8453 6.24478C47.8933 6.19678 47.9533 6.17278 48.0253 6.17278H49.6333C49.8173 6.17278 49.9453 6.24878 50.0173 6.40078C50.2333 6.93678 50.6373 7.20478 51.2293 7.20478C51.5813 7.20478 51.8773 7.09678 52.1173 6.88078C52.3653 6.65678 52.4893 6.34878 52.4893 5.95678C52.4893 5.60478 52.3693 5.31678 52.1293 5.09278C51.8973 4.86878 51.5973 4.75678 51.2293 4.75678C51.0213 4.75678 50.8533 4.78478 50.7253 4.84078C50.6053 4.88878 50.4813 4.96078 50.3533 5.05678C50.2173 5.16078 50.1093 5.21278 50.0293 5.21278H48.4573C48.3853 5.21278 48.3213 5.18878 48.2653 5.14078C48.2173 5.08478 48.1933 5.02078 48.1933 4.94878L48.6253 0.760781C48.6333 0.648781 48.6733 0.560781 48.7453 0.496781C48.8253 0.432781 48.9173 0.400781 49.0213 0.400781H53.8333C53.9213 0.400781 53.9933 0.428781 54.0493 0.484781C54.1133 0.540781 54.1453 0.612781 54.1453 0.700781V1.82878C54.1453 1.91678 54.1133 1.98878 54.0493 2.04478C53.9933 2.10078 53.9213 2.12878 53.8333 2.12878H50.3533L50.1973 3.67678C50.3973 3.54078 50.6173 3.44078 50.8573 3.37678C51.0973 3.30478 51.4093 3.26878 51.7933 3.26878C52.2973 3.26878 52.7733 3.38478 53.2213 3.61678C53.6693 3.84078 54.0253 4.16078 54.2893 4.57678C54.5613 4.99278 54.6973 5.46878 54.6973 6.00478C54.6973 6.57278 54.5573 7.08078 54.2773 7.52878C53.9973 7.96878 53.5933 8.31278 53.0653 8.56078C52.5453 8.80878 51.9293 8.93278 51.2173 8.93278ZM57.1991 4.63678C56.6551 4.63678 56.2191 4.49678 55.8911 4.21678C55.5631 3.92878 55.3831 3.54478 55.3511 3.06478C55.3351 2.82478 55.3271 2.65678 55.3271 2.56078C55.3271 2.46478 55.3351 2.25678 55.3511 1.93678C55.3751 1.44878 55.5471 1.06078 55.8671 0.772781C56.1871 0.484781 56.6311 0.340781 57.1991 0.340781C57.7591 0.340781 58.1991 0.484781 58.5191 0.772781C58.8391 1.06078 59.0111 1.44878 59.0351 1.93678C59.0511 2.25678 59.0591 2.46478 59.0591 2.56078C59.0591 2.65678 59.0511 2.82478 59.0351 3.06478C59.0031 3.54478 58.8231 3.92878 58.4951 4.21678C58.1671 4.49678 57.7351 4.63678 57.1991 4.63678ZM56.2391 8.80078C56.1591 8.80078 56.0911 8.78078 56.0351 8.74078C55.9871 8.69278 55.9631 8.63278 55.9631 8.56078C55.9631 8.51278 55.9791 8.46878 56.0111 8.42878L61.9391 0.628781C62.0031 0.548781 62.0631 0.492781 62.1191 0.460781C62.1751 0.420781 62.2551 0.400781 62.3591 0.400781H63.2111C63.2911 0.400781 63.3551 0.424781 63.4031 0.472781C63.4591 0.512781 63.4871 0.568781 63.4871 0.640781C63.4871 0.688781 63.4711 0.732781 63.4391 0.772781L57.5111 8.57278C57.4471 8.65278 57.3871 8.71278 57.3311 8.75278C57.2751 8.78478 57.1951 8.80078 57.0911 8.80078H56.2391ZM57.1991 3.59278C57.5351 3.59278 57.7191 3.39678 57.7511 3.00478C57.7671 2.74878 57.7751 2.58078 57.7751 2.50078C57.7751 2.39678 57.7671 2.23278 57.7511 2.00878C57.7431 1.83278 57.6911 1.68878 57.5951 1.57678C57.5071 1.46478 57.3751 1.40878 57.1991 1.40878C57.0151 1.40878 56.8791 1.46478 56.7911 1.57678C56.7031 1.68878 56.6511 1.83278 56.6351 2.00878C56.6271 2.12078 56.6231 2.28478 56.6231 2.50078C56.6231 2.70878 56.6271 2.87678 56.6351 3.00478C56.6671 3.39678 56.8551 3.59278 57.1991 3.59278ZM62.2751 8.86078C61.7311 8.86078 61.2951 8.72078 60.9671 8.44078C60.6471 8.15278 60.4671 7.76478 60.4271 7.27678C60.4191 7.14078 60.4151 6.95678 60.4151 6.72478C60.4151 6.48478 60.4191 6.29278 60.4271 6.14878C60.4591 5.65278 60.6311 5.26078 60.9431 4.97278C61.2631 4.68478 61.7071 4.54078 62.2751 4.54078C62.8431 4.54078 63.2831 4.68478 63.5951 4.97278C63.9151 5.26078 64.0911 5.65278 64.1231 6.14878C64.1391 6.46878 64.1471 6.67678 64.1471 6.77278C64.1471 6.86878 64.1391 7.03678 64.1231 7.27678C64.0911 7.75678 63.9111 8.14078 63.5831 8.42878C63.2551 8.71678 62.8191 8.86078 62.2751 8.86078ZM62.2751 7.80478C62.4591 7.80478 62.5951 7.74878 62.6831 7.63678C62.7711 7.51678 62.8231 7.37278 62.8391 7.20478C62.8551 6.96478 62.8631 6.79678 62.8631 6.70078C62.8631 6.59678 62.8551 6.43278 62.8391 6.20878C62.8231 6.04078 62.7711 5.90078 62.6831 5.78878C62.5951 5.66878 62.4591 5.60878 62.2751 5.60878C62.0911 5.60878 61.9551 5.66878 61.8671 5.78878C61.7791 5.90078 61.7311 6.04078 61.7231 6.20878C61.7151 6.32078 61.7111 6.48478 61.7111 6.70078C61.7111 6.91678 61.7151 7.08478 61.7231 7.20478C61.7391 7.38078 61.7871 7.52478 61.8671 7.63678C61.9551 7.74878 62.0911 7.80478 62.2751 7.80478Z" fill="white"/>
</svg>
