<svg width="126" height="12" viewBox="0 0 126 12" fill="none" xmlns="http://www.w3.org/2000/svg">
<path d="M0.675538 9.14258C0.595538 9.14258 0.523538 9.11458 0.459538 9.05858C0.403538 8.99458 0.375538 8.92258 0.375538 8.84258V1.04258C0.375538 0.954578 0.403538 0.882578 0.459538 0.826578C0.523538 0.770578 0.595538 0.742578 0.675538 0.742578H4.03554C5.05954 0.742578 5.86354 0.978578 6.44754 1.45058C7.03954 1.92258 7.33554 2.61058 7.33554 3.51458C7.33554 4.41058 7.04354 5.08658 6.45954 5.54258C5.87554 5.99058 5.06754 6.21458 4.03554 6.21458H2.60754V8.84258C2.60754 8.93058 2.57554 9.00258 2.51154 9.05858C2.45554 9.11458 2.38354 9.14258 2.29554 9.14258H0.675538ZM3.97554 4.55858C4.32754 4.55858 4.60354 4.47058 4.80354 4.29458C5.00354 4.11058 5.10354 3.84258 5.10354 3.49058C5.10354 3.16258 5.00754 2.90258 4.81554 2.71058C4.63154 2.51058 4.35154 2.41058 3.97554 2.41058H2.57154V4.55858H3.97554ZM8.41291 9.14258C8.32491 9.14258 8.25291 9.11458 8.19691 9.05858C8.14091 9.00258 8.11291 8.93058 8.11291 8.84258V3.20258C8.11291 3.11458 8.14091 3.04258 8.19691 2.98658C8.25291 2.93058 8.32491 2.90258 8.41291 2.90258H9.79291C9.88091 2.90258 9.95291 2.93458 10.0089 2.99858C10.0729 3.05458 10.1049 3.12258 10.1049 3.20258V3.68258C10.5449 3.16258 11.1369 2.90258 11.8809 2.90258H12.4089C12.4969 2.90258 12.5689 2.93058 12.6249 2.98658C12.6809 3.04258 12.7089 3.11458 12.7089 3.20258V4.43858C12.7089 4.51858 12.6809 4.59058 12.6249 4.65458C12.5689 4.71058 12.4969 4.73858 12.4089 4.73858H11.2449C10.9169 4.73858 10.6609 4.83058 10.4769 5.01458C10.3009 5.19058 10.2129 5.44258 10.2129 5.77058V8.84258C10.2129 8.93058 10.1809 9.00258 10.1169 9.05858C10.0609 9.11458 9.98891 9.14258 9.90091 9.14258H8.41291ZM15.0887 9.26258C14.6647 9.26258 14.2767 9.18258 13.9247 9.02258C13.5807 8.85458 13.3087 8.63058 13.1087 8.35058C12.9167 8.06258 12.8207 7.74658 12.8207 7.40258C12.8207 6.85058 13.0447 6.40658 13.4927 6.07058C13.9487 5.73458 14.5727 5.50258 15.3647 5.37458L16.8647 5.14658V4.97858C16.8647 4.67458 16.8007 4.45058 16.6727 4.30658C16.5447 4.16258 16.3287 4.09058 16.0247 4.09058C15.8407 4.09058 15.6887 4.12258 15.5687 4.18658C15.4487 4.25058 15.3247 4.33858 15.1967 4.45058C15.0847 4.54658 15.0007 4.61058 14.9447 4.64258C14.9207 4.70658 14.8767 4.73858 14.8127 4.73858H13.5047C13.4247 4.73858 13.3567 4.71458 13.3007 4.66658C13.2527 4.61058 13.2327 4.54658 13.2407 4.47458C13.2487 4.25858 13.3527 4.01858 13.5527 3.75458C13.7607 3.49058 14.0727 3.26258 14.4887 3.07058C14.9127 2.87858 15.4327 2.78258 16.0487 2.78258C17.0327 2.78258 17.7607 3.00258 18.2327 3.44258C18.7047 3.87458 18.9407 4.45858 18.9407 5.19458V8.84258C18.9407 8.92258 18.9127 8.99458 18.8567 9.05858C18.8007 9.11458 18.7287 9.14258 18.6407 9.14258H17.2487C17.1687 9.14258 17.0967 9.11458 17.0327 9.05858C16.9767 8.99458 16.9487 8.92258 16.9487 8.84258V8.42258C16.7727 8.67058 16.5247 8.87458 16.2047 9.03458C15.8927 9.18658 15.5207 9.26258 15.0887 9.26258ZM15.6527 7.89458C16.0207 7.89458 16.3167 7.77458 16.5407 7.53458C16.7727 7.29458 16.8887 6.94258 16.8887 6.47858V6.31058L15.8687 6.49058C15.1487 6.61858 14.7887 6.87058 14.7887 7.24658C14.7887 7.44658 14.8727 7.60658 15.0407 7.72658C15.2087 7.83858 15.4127 7.89458 15.6527 7.89458ZM22.9228 9.26258C22.0188 9.26258 21.2868 9.02258 20.7268 8.54258C20.1668 8.05458 19.8668 7.37858 19.8268 6.51458L19.8148 6.03458L19.8268 5.54258C19.8588 4.67858 20.1548 4.00258 20.7148 3.51458C21.2828 3.02658 22.0188 2.78258 22.9228 2.78258C23.6028 2.78258 24.1748 2.90658 24.6388 3.15458C25.1108 3.39458 25.4588 3.68658 25.6828 4.03058C25.9148 4.36658 26.0388 4.67458 26.0548 4.95458C26.0628 5.03458 26.0348 5.10658 25.9708 5.17058C25.9148 5.22658 25.8428 5.25458 25.7548 5.25458H24.2308C24.1428 5.25458 24.0748 5.23458 24.0268 5.19458C23.9788 5.15458 23.9348 5.09458 23.8948 5.01458C23.7988 4.76658 23.6748 4.59058 23.5228 4.48658C23.3788 4.38258 23.1908 4.33058 22.9588 4.33058C22.3028 4.33058 21.9628 4.75458 21.9388 5.60258L21.9268 6.05858L21.9388 6.45458C21.9548 6.88658 22.0468 7.20658 22.2148 7.41458C22.3908 7.61458 22.6388 7.71458 22.9588 7.71458C23.2068 7.71458 23.4028 7.66258 23.5468 7.55858C23.6908 7.45458 23.8068 7.27858 23.8948 7.03058C23.9348 6.95058 23.9788 6.89058 24.0268 6.85058C24.0748 6.81058 24.1428 6.79058 24.2308 6.79058H25.7548C25.8348 6.79058 25.9028 6.81858 25.9588 6.87458C26.0228 6.92258 26.0548 6.98658 26.0548 7.06658C26.0548 7.32258 25.9428 7.62258 25.7188 7.96658C25.5028 8.31058 25.1588 8.61458 24.6868 8.87858C24.2148 9.13458 23.6268 9.26258 22.9228 9.26258ZM30.0849 9.14258C28.4289 9.14258 27.6009 8.35458 27.6009 6.77858V4.47458H26.6649C26.5769 4.47458 26.5009 4.44658 26.4369 4.39058C26.3809 4.33458 26.3529 4.26258 26.3529 4.17458V3.20258C26.3529 3.11458 26.3809 3.04258 26.4369 2.98658C26.5009 2.93058 26.5769 2.90258 26.6649 2.90258H27.6009V0.922577C27.6009 0.834578 27.6289 0.762578 27.6849 0.706578C27.7489 0.650578 27.8209 0.622578 27.9009 0.622578H29.2929C29.3809 0.622578 29.4529 0.650578 29.5089 0.706578C29.5649 0.762578 29.5929 0.834578 29.5929 0.922577V2.90258H31.0929C31.1809 2.90258 31.2529 2.93058 31.3089 2.98658C31.3729 3.04258 31.4049 3.11458 31.4049 3.20258V4.17458C31.4049 4.26258 31.3729 4.33458 31.3089 4.39058C31.2529 4.44658 31.1809 4.47458 31.0929 4.47458H29.5929V6.61058C29.5929 7.20258 29.8209 7.49858 30.2769 7.49858H31.2009C31.2889 7.49858 31.3609 7.52658 31.4169 7.58258C31.4729 7.63858 31.5009 7.71058 31.5009 7.79858V8.84258C31.5009 8.92258 31.4729 8.99458 31.4169 9.05858C31.3609 9.11458 31.2889 9.14258 31.2009 9.14258H30.0849ZM32.5425 2.00258C32.4545 2.00258 32.3825 1.97458 32.3265 1.91858C32.2705 1.86258 32.2425 1.79058 32.2425 1.70258V0.622578C32.2425 0.534578 32.2705 0.462578 32.3265 0.406578C32.3825 0.350578 32.4545 0.322578 32.5425 0.322578H33.9825C34.0705 0.322578 34.1425 0.350578 34.1985 0.406578C34.2545 0.462578 34.2825 0.534578 34.2825 0.622578V1.70258C34.2825 1.79058 34.2545 1.86258 34.1985 1.91858C34.1425 1.97458 34.0705 2.00258 33.9825 2.00258H32.5425ZM32.5545 9.14258C32.4665 9.14258 32.3945 9.11458 32.3385 9.05858C32.2825 9.00258 32.2545 8.93058 32.2545 8.84258V3.20258C32.2545 3.11458 32.2825 3.04258 32.3385 2.98658C32.3945 2.93058 32.4665 2.90258 32.5545 2.90258H33.9705C34.0585 2.90258 34.1305 2.93058 34.1865 2.98658C34.2425 3.04258 34.2705 3.11458 34.2705 3.20258V8.84258C34.2705 8.92258 34.2425 8.99458 34.1865 9.05858C34.1305 9.11458 34.0585 9.14258 33.9705 9.14258H32.5545ZM38.3161 9.26258C37.4121 9.26258 36.6801 9.02258 36.1201 8.54258C35.5601 8.05458 35.2601 7.37858 35.2201 6.51458L35.2081 6.03458L35.2201 5.54258C35.2521 4.67858 35.5481 4.00258 36.1081 3.51458C36.6761 3.02658 37.4121 2.78258 38.3161 2.78258C38.9961 2.78258 39.5681 2.90658 40.0321 3.15458C40.5041 3.39458 40.8521 3.68658 41.0761 4.03058C41.3081 4.36658 41.4321 4.67458 41.4481 4.95458C41.4561 5.03458 41.4281 5.10658 41.3641 5.17058C41.3081 5.22658 41.2361 5.25458 41.1481 5.25458H39.6241C39.5361 5.25458 39.4681 5.23458 39.4201 5.19458C39.3721 5.15458 39.3281 5.09458 39.2881 5.01458C39.1921 4.76658 39.0681 4.59058 38.9161 4.48658C38.7721 4.38258 38.5841 4.33058 38.3521 4.33058C37.6961 4.33058 37.3561 4.75458 37.3321 5.60258L37.3201 6.05858L37.3321 6.45458C37.3481 6.88658 37.4401 7.20658 37.6081 7.41458C37.7841 7.61458 38.0321 7.71458 38.3521 7.71458C38.6001 7.71458 38.7961 7.66258 38.9401 7.55858C39.0841 7.45458 39.2001 7.27858 39.2881 7.03058C39.3281 6.95058 39.3721 6.89058 39.4201 6.85058C39.4681 6.81058 39.5361 6.79058 39.6241 6.79058H41.1481C41.2281 6.79058 41.2961 6.81858 41.3521 6.87458C41.4161 6.92258 41.4481 6.98658 41.4481 7.06658C41.4481 7.32258 41.3361 7.62258 41.1121 7.96658C40.8961 8.31058 40.5521 8.61458 40.0801 8.87858C39.6081 9.13458 39.0201 9.26258 38.3161 9.26258ZM45.1662 9.26258C44.2062 9.26258 43.4502 9.00258 42.8982 8.48258C42.3462 7.96258 42.0582 7.20658 42.0342 6.21458V5.79458C42.0662 4.85058 42.3582 4.11458 42.9102 3.58658C43.4702 3.05058 44.2182 2.78258 45.1542 2.78258C45.8342 2.78258 46.4062 2.92258 46.8702 3.20258C47.3422 3.47458 47.6942 3.85058 47.9262 4.33058C48.1662 4.81058 48.2862 5.36258 48.2862 5.98658V6.27458C48.2862 6.35458 48.2582 6.42658 48.2022 6.49058C48.1462 6.54658 48.0742 6.57458 47.9862 6.57458H44.1462V6.65858C44.1622 7.03458 44.2542 7.33858 44.4222 7.57058C44.5902 7.80258 44.8342 7.91858 45.1542 7.91858C45.3542 7.91858 45.5182 7.87858 45.6462 7.79858C45.7742 7.71058 45.8902 7.60658 45.9942 7.48658C46.0662 7.39858 46.1222 7.34658 46.1622 7.33058C46.2102 7.30658 46.2822 7.29458 46.3782 7.29458H47.8662C47.9382 7.29458 47.9982 7.31858 48.0462 7.36658C48.1022 7.40658 48.1302 7.46258 48.1302 7.53458C48.1302 7.74258 48.0102 7.98258 47.7702 8.25458C47.5382 8.52658 47.1982 8.76258 46.7502 8.96258C46.3022 9.16258 45.7742 9.26258 45.1662 9.26258ZM46.1742 5.38658V5.36258C46.1742 4.97058 46.0822 4.66258 45.8982 4.43858C45.7222 4.20658 45.4742 4.09058 45.1542 4.09058C44.8422 4.09058 44.5942 4.20658 44.4102 4.43858C44.2342 4.66258 44.1462 4.97058 44.1462 5.36258V5.38658H46.1742ZM55.3019 9.26258C54.5019 9.26258 53.8819 8.99458 53.4419 8.45858V8.84258C53.4419 8.92258 53.4139 8.99458 53.3579 9.05858C53.3019 9.11458 53.2299 9.14258 53.1419 9.14258H51.7859C51.7059 9.14258 51.6339 9.11458 51.5699 9.05858C51.5139 8.99458 51.4859 8.92258 51.4859 8.84258V0.922577C51.4859 0.834578 51.5139 0.762578 51.5699 0.706578C51.6339 0.650578 51.7059 0.622578 51.7859 0.622578H53.2499C53.3379 0.622578 53.4099 0.650578 53.4659 0.706578C53.5219 0.762578 53.5499 0.834578 53.5499 0.922577V3.49058C53.9979 3.01858 54.5819 2.78258 55.3019 2.78258C56.0779 2.78258 56.6899 3.03458 57.1379 3.53858C57.5859 4.04258 57.8259 4.72658 57.8579 5.59058C57.8659 5.69458 57.8699 5.83858 57.8699 6.02258C57.8699 6.19858 57.8659 6.33858 57.8579 6.44258C57.8179 7.33858 57.5779 8.03458 57.1379 8.53058C56.6979 9.01858 56.0859 9.26258 55.3019 9.26258ZM54.6539 7.65458C55.0299 7.65458 55.2979 7.54258 55.4579 7.31858C55.6259 7.09458 55.7219 6.78658 55.7459 6.39458C55.7619 6.23458 55.7699 6.11058 55.7699 6.02258C55.7699 5.93458 55.7619 5.81058 55.7459 5.65058C55.7219 5.25858 55.6259 4.95058 55.4579 4.72658C55.2979 4.50258 55.0299 4.39058 54.6539 4.39058C54.3019 4.39058 54.0339 4.49858 53.8499 4.71458C53.6659 4.93058 53.5659 5.20258 53.5499 5.53058L53.5379 5.97458L53.5499 6.43058C53.5739 6.79058 53.6699 7.08658 53.8379 7.31858C54.0139 7.54258 54.2859 7.65458 54.6539 7.65458ZM59.7107 11.4226C59.6387 11.4226 59.5787 11.3986 59.5307 11.3506C59.4827 11.3026 59.4587 11.2426 59.4587 11.1706C59.4587 11.1146 59.4707 11.0626 59.4947 11.0146L60.4307 8.75858L58.1267 3.31058C58.1027 3.24658 58.0907 3.19858 58.0907 3.16658C58.1067 3.09458 58.1387 3.03458 58.1867 2.98658C58.2347 2.93058 58.2947 2.90258 58.3667 2.90258H59.7347C59.9027 2.90258 60.0187 2.98658 60.0827 3.15458L61.4507 6.64658L62.8547 3.15458C62.9347 2.98658 63.0547 2.90258 63.2147 2.90258H64.5587C64.6307 2.90258 64.6907 2.93058 64.7387 2.98658C64.7947 3.03458 64.8227 3.09058 64.8227 3.15458C64.8227 3.18658 64.8107 3.23858 64.7867 3.31058L61.3907 11.1706C61.3267 11.3386 61.2067 11.4226 61.0307 11.4226H59.7107ZM67.9088 9.14258C67.8288 9.14258 67.7568 9.11458 67.6928 9.05858C67.6368 8.99458 67.6088 8.92258 67.6088 8.84258V1.04258C67.6088 0.954578 67.6368 0.882578 67.6928 0.826578C67.7568 0.770578 67.8288 0.742578 67.9088 0.742578H71.0288C72.2048 0.742578 73.1168 1.02258 73.7648 1.58258C74.4128 2.14258 74.7528 2.95458 74.7848 4.01858C74.7928 4.25058 74.7968 4.55858 74.7968 4.94258C74.7968 5.32658 74.7928 5.63058 74.7848 5.85458C74.7448 6.96658 74.4128 7.79458 73.7888 8.33858C73.1728 8.87458 72.2728 9.14258 71.0888 9.14258H67.9088ZM71.0288 7.41458C71.5568 7.41458 71.9448 7.29058 72.1928 7.04258C72.4408 6.78658 72.5728 6.38258 72.5888 5.83058C72.6048 5.59858 72.6128 5.29858 72.6128 4.93058C72.6128 4.56258 72.6048 4.26658 72.5888 4.04258C72.5728 3.50658 72.4288 3.11058 72.1568 2.85458C71.8928 2.59858 71.4968 2.47058 70.9688 2.47058H69.7688V7.41458H71.0288ZM78.7787 9.26258C77.7867 9.26258 77.0227 9.02658 76.4867 8.55458C75.9507 8.08258 75.6587 7.41858 75.6107 6.56258C75.6027 6.45858 75.5987 6.27858 75.5987 6.02258C75.5987 5.76658 75.6027 5.58658 75.6107 5.48258C75.6587 4.63458 75.9587 3.97458 76.5107 3.50258C77.0627 3.02258 77.8187 2.78258 78.7787 2.78258C79.7467 2.78258 80.5067 3.02258 81.0587 3.50258C81.6107 3.97458 81.9107 4.63458 81.9587 5.48258C81.9667 5.58658 81.9707 5.76658 81.9707 6.02258C81.9707 6.27858 81.9667 6.45858 81.9587 6.56258C81.9107 7.41858 81.6187 8.08258 81.0827 8.55458C80.5467 9.02658 79.7787 9.26258 78.7787 9.26258ZM78.7787 7.79858C79.1307 7.79858 79.3907 7.69458 79.5587 7.48658C79.7267 7.27058 79.8227 6.94258 79.8467 6.50258C79.8547 6.42258 79.8587 6.26258 79.8587 6.02258C79.8587 5.78258 79.8547 5.62258 79.8467 5.54258C79.8227 5.11058 79.7227 4.78658 79.5467 4.57058C79.3787 4.35458 79.1227 4.24658 78.7787 4.24658C78.1147 4.24658 77.7627 4.67858 77.7227 5.54258L77.7107 6.02258L77.7227 6.50258C77.7387 6.94258 77.8307 7.27058 77.9987 7.48658C78.1747 7.69458 78.4347 7.79858 78.7787 7.79858ZM83.2106 2.00258C83.1226 2.00258 83.0506 1.97458 82.9946 1.91858C82.9386 1.86258 82.9106 1.79058 82.9106 1.70258V0.622578C82.9106 0.534578 82.9386 0.462578 82.9946 0.406578C83.0506 0.350578 83.1226 0.322578 83.2106 0.322578H84.6506C84.7386 0.322578 84.8106 0.350578 84.8666 0.406578C84.9226 0.462578 84.9506 0.534578 84.9506 0.622578V1.70258C84.9506 1.79058 84.9226 1.86258 84.8666 1.91858C84.8106 1.97458 84.7386 2.00258 84.6506 2.00258H83.2106ZM83.2226 9.14258C83.1346 9.14258 83.0626 9.11458 83.0066 9.05858C82.9506 9.00258 82.9226 8.93058 82.9226 8.84258V3.20258C82.9226 3.11458 82.9506 3.04258 83.0066 2.98658C83.0626 2.93058 83.1346 2.90258 83.2226 2.90258H84.6386C84.7266 2.90258 84.7986 2.93058 84.8546 2.98658C84.9106 3.04258 84.9386 3.11458 84.9386 3.20258V8.84258C84.9386 8.92258 84.9106 8.99458 84.8546 9.05858C84.7986 9.11458 84.7266 9.14258 84.6386 9.14258H83.2226ZM86.4162 9.14258C86.3282 9.14258 86.2562 9.11458 86.2002 9.05858C86.1442 9.00258 86.1162 8.93058 86.1162 8.84258V3.20258C86.1162 3.11458 86.1442 3.04258 86.2002 2.98658C86.2562 2.93058 86.3282 2.90258 86.4162 2.90258H87.7962C87.8842 2.90258 87.9562 2.93058 88.0122 2.98658C88.0762 3.04258 88.1082 3.11458 88.1082 3.20258V3.65858C88.3242 3.39458 88.6002 3.18258 88.9362 3.02258C89.2802 2.86258 89.6682 2.78258 90.1002 2.78258C90.8042 2.78258 91.3762 3.02258 91.8162 3.50258C92.2562 3.97458 92.4762 4.63858 92.4762 5.49458V8.84258C92.4762 8.92258 92.4482 8.99458 92.3922 9.05858C92.3362 9.11458 92.2642 9.14258 92.1762 9.14258H90.6642C90.5842 9.14258 90.5122 9.11458 90.4482 9.05858C90.3922 8.99458 90.3642 8.92258 90.3642 8.84258V5.56658C90.3642 5.19058 90.2722 4.90258 90.0882 4.70258C89.9042 4.49458 89.6402 4.39058 89.2962 4.39058C88.9602 4.39058 88.6962 4.49458 88.5042 4.70258C88.3122 4.90258 88.2162 5.19058 88.2162 5.56658V8.84258C88.2162 8.92258 88.1882 8.99458 88.1322 9.05858C88.0762 9.11458 88.0042 9.14258 87.9162 9.14258H86.4162ZM96.6471 11.7826C95.8871 11.7826 95.2711 11.6586 94.7991 11.4106C94.3271 11.1626 93.9871 10.8786 93.7791 10.5586C93.5791 10.2386 93.4791 9.97058 93.4791 9.75458C93.4791 9.68258 93.5111 9.61858 93.5751 9.56258C93.6391 9.50658 93.7111 9.47858 93.7911 9.47858H95.3151C95.3951 9.47858 95.4551 9.49458 95.4951 9.52658C95.5431 9.56658 95.5871 9.63058 95.6271 9.71858C95.7071 9.90258 95.8151 10.0466 95.9511 10.1506C96.0871 10.2626 96.2991 10.3186 96.5871 10.3186C96.9551 10.3186 97.2271 10.2266 97.4031 10.0426C97.5791 9.86658 97.6671 9.56658 97.6671 9.14258V8.33858C97.2591 8.78658 96.6751 9.01058 95.9151 9.01058C95.1071 9.01058 94.4871 8.77458 94.0551 8.30258C93.6311 7.82258 93.3991 7.13058 93.3591 6.22658L93.3471 5.90258C93.3471 4.93458 93.5631 4.17458 93.9951 3.62258C94.4271 3.06258 95.0671 2.78258 95.9151 2.78258C96.3231 2.78258 96.6831 2.86258 96.9951 3.02258C97.3071 3.17458 97.5711 3.38258 97.7871 3.64658V3.20258C97.7871 3.11458 97.8151 3.04258 97.8711 2.98658C97.9351 2.93058 98.0071 2.90258 98.0871 2.90258H99.4671C99.5551 2.90258 99.6271 2.93458 99.6831 2.99858C99.7471 3.05458 99.7791 3.12258 99.7791 3.20258V8.97458C99.7791 9.88658 99.5071 10.5826 98.9631 11.0626C98.4191 11.5426 97.6471 11.7826 96.6471 11.7826ZM96.5631 7.45058C96.9231 7.45058 97.1911 7.34258 97.3671 7.12658C97.5431 6.90258 97.6431 6.62258 97.6671 6.28658C97.6751 6.23058 97.6791 6.10658 97.6791 5.91458C97.6791 5.73058 97.6751 5.61058 97.6671 5.55458C97.6511 5.21858 97.5511 4.94258 97.3671 4.72658C97.1911 4.50258 96.9231 4.39058 96.5631 4.39058C96.1871 4.39058 95.9151 4.50258 95.7471 4.72658C95.5791 4.95058 95.4871 5.25858 95.4711 5.65058L95.4591 5.91458C95.4591 6.38658 95.5391 6.76258 95.6991 7.04258C95.8591 7.31458 96.1471 7.45058 96.5631 7.45058ZM104.251 9.14258C104.179 9.14258 104.119 9.11858 104.071 9.07058C104.023 9.01458 103.999 8.95058 103.999 8.87858C103.999 8.83858 104.007 8.80258 104.023 8.77058L106.795 2.55458H103.207C103.119 2.55458 103.043 2.52658 102.979 2.47058C102.923 2.40658 102.895 2.33058 102.895 2.24258V1.04258C102.895 0.954578 102.923 0.882578 102.979 0.826578C103.043 0.770578 103.119 0.742578 103.207 0.742578H108.811C108.907 0.742578 108.983 0.770578 109.039 0.826578C109.095 0.882578 109.123 0.954578 109.123 1.04258V2.11058C109.123 2.27858 109.079 2.45858 108.991 2.65058L106.219 8.85458C106.131 9.04658 105.991 9.14258 105.799 9.14258H104.251ZM113.038 9.27458C112.318 9.27458 111.702 9.16258 111.19 8.93858C110.678 8.70658 110.286 8.39858 110.014 8.01458C109.75 7.63058 109.61 7.21458 109.594 6.76658C109.594 6.69458 109.618 6.63458 109.666 6.58658C109.714 6.53858 109.774 6.51458 109.846 6.51458H111.454C111.638 6.51458 111.766 6.59058 111.838 6.74258C112.054 7.27858 112.458 7.54658 113.05 7.54658C113.402 7.54658 113.698 7.43858 113.938 7.22258C114.186 6.99858 114.31 6.69058 114.31 6.29858C114.31 5.94658 114.19 5.65858 113.95 5.43458C113.718 5.21058 113.418 5.09858 113.05 5.09858C112.842 5.09858 112.674 5.12658 112.546 5.18258C112.426 5.23058 112.302 5.30258 112.174 5.39858C112.038 5.50258 111.93 5.55458 111.85 5.55458H110.278C110.206 5.55458 110.142 5.53058 110.086 5.48258C110.038 5.42658 110.014 5.36258 110.014 5.29058L110.446 1.10258C110.454 0.990578 110.494 0.902578 110.566 0.838578C110.646 0.774578 110.738 0.742578 110.842 0.742578H115.654C115.742 0.742578 115.814 0.770578 115.87 0.826578C115.934 0.882578 115.966 0.954578 115.966 1.04258V2.17058C115.966 2.25858 115.934 2.33058 115.87 2.38658C115.814 2.44258 115.742 2.47058 115.654 2.47058H112.174L112.018 4.01858C112.218 3.88258 112.438 3.78258 112.678 3.71858C112.918 3.64658 113.23 3.61058 113.614 3.61058C114.118 3.61058 114.594 3.72658 115.042 3.95858C115.49 4.18258 115.846 4.50258 116.11 4.91858C116.382 5.33458 116.518 5.81058 116.518 6.34658C116.518 6.91458 116.378 7.42258 116.098 7.87058C115.818 8.31058 115.414 8.65458 114.886 8.90258C114.366 9.15058 113.75 9.27458 113.038 9.27458ZM119.02 4.97858C118.476 4.97858 118.04 4.83858 117.712 4.55858C117.384 4.27058 117.204 3.88658 117.172 3.40658C117.156 3.16658 117.148 2.99858 117.148 2.90258C117.148 2.80658 117.156 2.59858 117.172 2.27858C117.196 1.79058 117.368 1.40258 117.688 1.11458C118.008 0.826578 118.452 0.682578 119.02 0.682578C119.58 0.682578 120.02 0.826578 120.34 1.11458C120.66 1.40258 120.832 1.79058 120.856 2.27858C120.872 2.59858 120.88 2.80658 120.88 2.90258C120.88 2.99858 120.872 3.16658 120.856 3.40658C120.824 3.88658 120.644 4.27058 120.316 4.55858C119.988 4.83858 119.556 4.97858 119.02 4.97858ZM118.06 9.14258C117.98 9.14258 117.912 9.12258 117.856 9.08258C117.808 9.03458 117.784 8.97458 117.784 8.90258C117.784 8.85458 117.8 8.81058 117.832 8.77058L123.76 0.970577C123.824 0.890578 123.884 0.834578 123.94 0.802577C123.996 0.762578 124.076 0.742578 124.18 0.742578H125.032C125.112 0.742578 125.176 0.766578 125.224 0.814578C125.28 0.854578 125.308 0.910578 125.308 0.982578C125.308 1.03058 125.292 1.07458 125.26 1.11458L119.332 8.91458C119.268 8.99458 119.208 9.05458 119.152 9.09458C119.096 9.12658 119.016 9.14258 118.912 9.14258H118.06ZM119.02 3.93458C119.356 3.93458 119.54 3.73858 119.572 3.34658C119.588 3.09058 119.596 2.92258 119.596 2.84258C119.596 2.73858 119.588 2.57458 119.572 2.35058C119.564 2.17458 119.512 2.03058 119.416 1.91858C119.328 1.80658 119.196 1.75058 119.02 1.75058C118.836 1.75058 118.7 1.80658 118.612 1.91858C118.524 2.03058 118.472 2.17458 118.456 2.35058C118.448 2.46258 118.444 2.62658 118.444 2.84258C118.444 3.05058 118.448 3.21858 118.456 3.34658C118.488 3.73858 118.676 3.93458 119.02 3.93458ZM124.096 9.20258C123.552 9.20258 123.116 9.06258 122.788 8.78258C122.468 8.49458 122.288 8.10658 122.248 7.61858C122.24 7.48258 122.236 7.29858 122.236 7.06658C122.236 6.82658 122.24 6.63458 122.248 6.49058C122.28 5.99458 122.452 5.60258 122.764 5.31458C123.084 5.02658 123.528 4.88258 124.096 4.88258C124.664 4.88258 125.104 5.02658 125.416 5.31458C125.736 5.60258 125.912 5.99458 125.944 6.49058C125.96 6.81058 125.968 7.01858 125.968 7.11458C125.968 7.21058 125.96 7.37858 125.944 7.61858C125.912 8.09858 125.732 8.48258 125.404 8.77058C125.076 9.05858 124.64 9.20258 124.096 9.20258ZM124.096 8.14658C124.28 8.14658 124.416 8.09058 124.504 7.97858C124.592 7.85858 124.644 7.71458 124.66 7.54658C124.676 7.30658 124.684 7.13858 124.684 7.04258C124.684 6.93858 124.676 6.77458 124.66 6.55058C124.644 6.38258 124.592 6.24258 124.504 6.13058C124.416 6.01058 124.28 5.95058 124.096 5.95058C123.912 5.95058 123.776 6.01058 123.688 6.13058C123.6 6.24258 123.552 6.38258 123.544 6.55058C123.536 6.66258 123.532 6.82658 123.532 7.04258C123.532 7.25858 123.536 7.42658 123.544 7.54658C123.56 7.72258 123.608 7.86658 123.688 7.97858C123.776 8.09058 123.912 8.14658 124.096 8.14658Z" fill="white"/>
</svg>
