<svg width="72" height="13" viewBox="0 0 72 13" fill="none" xmlns="http://www.w3.org/2000/svg">
<path d="M0.804814 9.7207C0.724814 9.7207 0.652814 9.6927 0.588814 9.6367C0.532814 9.5727 0.504814 9.5007 0.504814 9.4207V1.6207C0.504814 1.5327 0.532814 1.4607 0.588814 1.4047C0.652814 1.3487 0.724814 1.3207 0.804814 1.3207H4.06881C5.11681 1.3207 5.93281 1.5607 6.51681 2.0407C7.10881 2.5127 7.40481 3.1847 7.40481 4.0567C7.40481 4.6167 7.27281 5.0927 7.00881 5.4847C6.74481 5.8767 6.38081 6.1767 5.91681 6.3847L7.56081 9.3367C7.58481 9.3847 7.59681 9.4287 7.59681 9.4687C7.59681 9.5327 7.56881 9.5927 7.51281 9.6487C7.46481 9.6967 7.40881 9.7207 7.34481 9.7207H5.74881C5.51681 9.7207 5.35281 9.6127 5.25681 9.3967L3.88881 6.7567H2.66481V9.4207C2.66481 9.5087 2.63281 9.5807 2.56881 9.6367C2.51281 9.6927 2.44081 9.7207 2.35281 9.7207H0.804814ZM4.04481 5.0527C4.41281 5.0527 4.69281 4.9647 4.88481 4.7887C5.07681 4.6047 5.17281 4.3527 5.17281 4.0327C5.17281 3.7127 5.07681 3.4607 4.88481 3.2767C4.70081 3.0847 4.42081 2.9887 4.04481 2.9887H2.66481V5.0527H4.04481ZM11.2277 9.8407C10.2677 9.8407 9.51166 9.5807 8.95966 9.0607C8.40766 8.5407 8.11966 7.7847 8.09566 6.7927V6.3727C8.12766 5.4287 8.41966 4.6927 8.97166 4.1647C9.53166 3.6287 10.2797 3.3607 11.2157 3.3607C11.8957 3.3607 12.4677 3.5007 12.9317 3.7807C13.4037 4.0527 13.7557 4.4287 13.9877 4.9087C14.2277 5.3887 14.3477 5.9407 14.3477 6.5647V6.8527C14.3477 6.9327 14.3197 7.0047 14.2637 7.0687C14.2077 7.1247 14.1357 7.1527 14.0477 7.1527H10.2077V7.2367C10.2237 7.6127 10.3157 7.9167 10.4837 8.1487C10.6517 8.3807 10.8957 8.4967 11.2157 8.4967C11.4157 8.4967 11.5797 8.4567 11.7077 8.3767C11.8357 8.2887 11.9517 8.1847 12.0557 8.0647C12.1277 7.9767 12.1837 7.9247 12.2237 7.9087C12.2717 7.8847 12.3437 7.8727 12.4397 7.8727H13.9277C13.9997 7.8727 14.0597 7.8967 14.1077 7.9447C14.1637 7.9847 14.1917 8.0407 14.1917 8.1127C14.1917 8.3207 14.0717 8.5607 13.8317 8.8327C13.5997 9.1047 13.2597 9.3407 12.8117 9.5407C12.3637 9.7407 11.8357 9.8407 11.2277 9.8407ZM12.2357 5.9647V5.9407C12.2357 5.5487 12.1437 5.2407 11.9597 5.0167C11.7837 4.7847 11.5357 4.6687 11.2157 4.6687C10.9037 4.6687 10.6557 4.7847 10.4717 5.0167C10.2957 5.2407 10.2077 5.5487 10.2077 5.9407V5.9647H12.2357ZM17.1047 9.8407C16.6807 9.8407 16.2927 9.7607 15.9407 9.6007C15.5967 9.4327 15.3247 9.2087 15.1247 8.9287C14.9327 8.6407 14.8367 8.3247 14.8367 7.9807C14.8367 7.4287 15.0607 6.9847 15.5087 6.6487C15.9647 6.3127 16.5887 6.0807 17.3807 5.9527L18.8807 5.7247V5.5567C18.8807 5.2527 18.8167 5.0287 18.6887 4.8847C18.5607 4.7407 18.3447 4.6687 18.0407 4.6687C17.8567 4.6687 17.7047 4.7007 17.5847 4.7647C17.4647 4.8287 17.3407 4.9167 17.2127 5.0287C17.1007 5.1247 17.0167 5.1887 16.9607 5.2207C16.9367 5.2847 16.8927 5.3167 16.8287 5.3167H15.5207C15.4407 5.3167 15.3727 5.2927 15.3167 5.2447C15.2687 5.1887 15.2487 5.1247 15.2567 5.0527C15.2647 4.8367 15.3687 4.5967 15.5687 4.3327C15.7767 4.0687 16.0887 3.8407 16.5047 3.6487C16.9287 3.4567 17.4487 3.3607 18.0647 3.3607C19.0487 3.3607 19.7767 3.5807 20.2487 4.0207C20.7207 4.4527 20.9567 5.0367 20.9567 5.7727V9.4207C20.9567 9.5007 20.9287 9.5727 20.8727 9.6367C20.8167 9.6927 20.7447 9.7207 20.6567 9.7207H19.2647C19.1847 9.7207 19.1127 9.6927 19.0487 9.6367C18.9927 9.5727 18.9647 9.5007 18.9647 9.4207V9.0007C18.7887 9.2487 18.5407 9.4527 18.2207 9.6127C17.9087 9.7647 17.5367 9.8407 17.1047 9.8407ZM17.6687 8.4727C18.0367 8.4727 18.3327 8.3527 18.5567 8.1127C18.7887 7.8727 18.9047 7.5207 18.9047 7.0567V6.8887L17.8847 7.0687C17.1647 7.1967 16.8047 7.4487 16.8047 7.8247C16.8047 8.0247 16.8887 8.1847 17.0567 8.3047C17.2247 8.4167 17.4287 8.4727 17.6687 8.4727ZM24.3988 9.8407C23.6148 9.8407 23.0028 9.5967 22.5628 9.1087C22.1308 8.6127 21.8948 7.9167 21.8548 7.0207L21.8428 6.6007L21.8548 6.1687C21.8868 5.3047 22.1228 4.6207 22.5628 4.1167C23.0108 3.6127 23.6228 3.3607 24.3988 3.3607C25.1268 3.3607 25.7148 3.5967 26.1628 4.0687V1.5007C26.1628 1.4127 26.1908 1.3407 26.2468 1.2847C26.3028 1.2287 26.3748 1.2007 26.4628 1.2007H27.9268C28.0148 1.2007 28.0868 1.2287 28.1428 1.2847C28.1988 1.3407 28.2268 1.4127 28.2268 1.5007V9.4207C28.2268 9.5007 28.1988 9.5727 28.1428 9.6367C28.0868 9.6927 28.0148 9.7207 27.9268 9.7207H26.5708C26.4908 9.7207 26.4188 9.6927 26.3548 9.6367C26.2988 9.5727 26.2708 9.5007 26.2708 9.4207V9.0367C25.8308 9.5727 25.2068 9.8407 24.3988 9.8407ZM25.0588 8.2327C25.4188 8.2327 25.6868 8.1207 25.8628 7.8967C26.0388 7.6647 26.1388 7.3687 26.1628 7.0087C26.1708 6.9047 26.1748 6.7527 26.1748 6.5527C26.1748 6.3607 26.1708 6.2127 26.1628 6.1087C26.1468 5.7807 26.0468 5.5087 25.8628 5.2927C25.6788 5.0767 25.4108 4.9687 25.0588 4.9687C24.6828 4.9687 24.4108 5.0807 24.2428 5.3047C24.0828 5.5287 23.9908 5.8367 23.9668 6.2287C23.9588 6.3087 23.9548 6.4327 23.9548 6.6007C23.9548 6.7687 23.9588 6.8927 23.9668 6.9727C23.9908 7.3647 24.0828 7.6727 24.2428 7.8967C24.4108 8.1207 24.6828 8.2327 25.0588 8.2327ZM29.6891 2.5807C29.6011 2.5807 29.5291 2.5527 29.4731 2.4967C29.4171 2.4407 29.3891 2.3687 29.3891 2.2807V1.2007C29.3891 1.1127 29.4171 1.0407 29.4731 0.984703C29.5291 0.928703 29.6011 0.900703 29.6891 0.900703H31.1291C31.2171 0.900703 31.2891 0.928703 31.3451 0.984703C31.4011 1.0407 31.4291 1.1127 31.4291 1.2007V2.2807C31.4291 2.3687 31.4011 2.4407 31.3451 2.4967C31.2891 2.5527 31.2171 2.5807 31.1291 2.5807H29.6891ZM29.7011 9.7207C29.6131 9.7207 29.5411 9.6927 29.4851 9.6367C29.4291 9.5807 29.4011 9.5087 29.4011 9.4207V3.7807C29.4011 3.6927 29.4291 3.6207 29.4851 3.5647C29.5411 3.5087 29.6131 3.4807 29.7011 3.4807H31.1171C31.2051 3.4807 31.2771 3.5087 31.3331 3.5647C31.3891 3.6207 31.4171 3.6927 31.4171 3.7807V9.4207C31.4171 9.5007 31.3891 9.5727 31.3331 9.6367C31.2771 9.6927 31.2051 9.7207 31.1171 9.7207H29.7011ZM32.8947 9.7207C32.8067 9.7207 32.7347 9.6927 32.6787 9.6367C32.6227 9.5807 32.5947 9.5087 32.5947 9.4207V3.7807C32.5947 3.6927 32.6227 3.6207 32.6787 3.5647C32.7347 3.5087 32.8067 3.4807 32.8947 3.4807H34.2747C34.3627 3.4807 34.4347 3.5087 34.4907 3.5647C34.5547 3.6207 34.5867 3.6927 34.5867 3.7807V4.2367C34.8027 3.9727 35.0787 3.7607 35.4147 3.6007C35.7587 3.4407 36.1467 3.3607 36.5787 3.3607C37.2827 3.3607 37.8547 3.6007 38.2947 4.0807C38.7347 4.5527 38.9547 5.2167 38.9547 6.0727V9.4207C38.9547 9.5007 38.9267 9.5727 38.8707 9.6367C38.8147 9.6927 38.7427 9.7207 38.6547 9.7207H37.1427C37.0627 9.7207 36.9907 9.6927 36.9267 9.6367C36.8707 9.5727 36.8427 9.5007 36.8427 9.4207V6.1447C36.8427 5.7687 36.7507 5.4807 36.5667 5.2807C36.3827 5.0727 36.1187 4.9687 35.7747 4.9687C35.4387 4.9687 35.1747 5.0727 34.9827 5.2807C34.7907 5.4807 34.6947 5.7687 34.6947 6.1447V9.4207C34.6947 9.5007 34.6667 9.5727 34.6107 9.6367C34.5547 9.6927 34.4827 9.7207 34.3947 9.7207H32.8947ZM43.1256 12.3607C42.3656 12.3607 41.7496 12.2367 41.2776 11.9887C40.8056 11.7407 40.4656 11.4567 40.2576 11.1367C40.0576 10.8167 39.9576 10.5487 39.9576 10.3327C39.9576 10.2607 39.9896 10.1967 40.0536 10.1407C40.1176 10.0847 40.1896 10.0567 40.2696 10.0567H41.7936C41.8736 10.0567 41.9336 10.0727 41.9736 10.1047C42.0216 10.1447 42.0656 10.2087 42.1056 10.2967C42.1856 10.4807 42.2936 10.6247 42.4296 10.7287C42.5656 10.8407 42.7776 10.8967 43.0656 10.8967C43.4336 10.8967 43.7056 10.8047 43.8816 10.6207C44.0576 10.4447 44.1456 10.1447 44.1456 9.7207V8.9167C43.7376 9.3647 43.1536 9.5887 42.3936 9.5887C41.5856 9.5887 40.9656 9.3527 40.5336 8.8807C40.1096 8.4007 39.8776 7.7087 39.8376 6.8047L39.8256 6.4807C39.8256 5.5127 40.0416 4.7527 40.4736 4.2007C40.9056 3.6407 41.5456 3.3607 42.3936 3.3607C42.8016 3.3607 43.1616 3.4407 43.4736 3.6007C43.7856 3.7527 44.0496 3.9607 44.2656 4.2247V3.7807C44.2656 3.6927 44.2936 3.6207 44.3496 3.5647C44.4136 3.5087 44.4856 3.4807 44.5656 3.4807H45.9456C46.0336 3.4807 46.1056 3.5127 46.1616 3.5767C46.2256 3.6327 46.2576 3.7007 46.2576 3.7807V9.5527C46.2576 10.4647 45.9856 11.1607 45.4416 11.6407C44.8976 12.1207 44.1256 12.3607 43.1256 12.3607ZM43.0416 8.0287C43.4016 8.0287 43.6696 7.9207 43.8456 7.7047C44.0216 7.4807 44.1216 7.2007 44.1456 6.8647C44.1536 6.8087 44.1576 6.6847 44.1576 6.4927C44.1576 6.3087 44.1536 6.1887 44.1456 6.1327C44.1296 5.7967 44.0296 5.5207 43.8456 5.3047C43.6696 5.0807 43.4016 4.9687 43.0416 4.9687C42.6656 4.9687 42.3936 5.0807 42.2256 5.3047C42.0576 5.5287 41.9656 5.8367 41.9496 6.2287L41.9376 6.4927C41.9376 6.9647 42.0176 7.3407 42.1776 7.6207C42.3376 7.8927 42.6256 8.0287 43.0416 8.0287ZM52.3618 9.7207C52.2818 9.7207 52.2098 9.6927 52.1458 9.6367C52.0898 9.5727 52.0618 9.5007 52.0618 9.4207V3.7087L50.4178 4.9687C50.3618 5.0167 50.3018 5.0407 50.2378 5.0407C50.1498 5.0407 50.0698 4.9927 49.9978 4.8967L49.2898 3.9727C49.2498 3.9087 49.2298 3.8487 49.2298 3.7927C49.2298 3.6807 49.2778 3.5967 49.3738 3.5407L52.1338 1.4047C52.2218 1.3487 52.3178 1.3207 52.4218 1.3207H53.9218C54.0098 1.3207 54.0818 1.3487 54.1378 1.4047C54.1938 1.4607 54.2218 1.5327 54.2218 1.6207V9.4207C54.2218 9.5007 54.1938 9.5727 54.1378 9.6367C54.0818 9.6927 54.0098 9.7207 53.9218 9.7207H52.3618ZM58.8306 9.8407C57.7266 9.8327 56.8906 9.5407 56.3226 8.9647C55.7546 8.3807 55.4466 7.6167 55.3986 6.6727C55.3826 6.2407 55.3746 5.8567 55.3746 5.5207C55.3746 5.1767 55.3826 4.7807 55.3986 4.3327C55.4306 3.7327 55.5746 3.2007 55.8306 2.7367C56.0946 2.2647 56.4786 1.8927 56.9826 1.6207C57.4866 1.3407 58.1026 1.2007 58.8306 1.2007C59.9106 1.2087 60.7426 1.5007 61.3266 2.0767C61.9106 2.6527 62.2266 3.4047 62.2746 4.3327C62.2906 4.7807 62.2986 5.1767 62.2986 5.5207C62.2986 5.8567 62.2906 6.2407 62.2746 6.6727C62.2186 7.6167 61.9066 8.3807 61.3386 8.9647C60.7706 9.5407 59.9346 9.8327 58.8306 9.8407ZM58.8306 8.1007C59.2226 8.1007 59.5146 7.9727 59.7066 7.7167C59.9066 7.4527 60.0146 7.0847 60.0306 6.6127C60.0466 6.3807 60.0546 6.0087 60.0546 5.4967C60.0546 4.9847 60.0466 4.6207 60.0306 4.4047C60.0146 3.9487 59.9106 3.5887 59.7186 3.3247C59.5266 3.0607 59.2306 2.9247 58.8306 2.9167C58.4386 2.9247 58.1426 3.0607 57.9426 3.3247C57.7506 3.5887 57.6466 3.9487 57.6306 4.4047C57.6226 4.6207 57.6186 4.9847 57.6186 5.4967C57.6186 6.0087 57.6226 6.3807 57.6306 6.6127C57.6706 7.6047 58.0706 8.1007 58.8306 8.1007ZM64.9829 5.5567C64.4389 5.5567 64.0029 5.4167 63.6749 5.1367C63.3469 4.8487 63.1669 4.4647 63.1349 3.9847C63.1189 3.7447 63.1109 3.5767 63.1109 3.4807C63.1109 3.3847 63.1189 3.1767 63.1349 2.8567C63.1589 2.3687 63.3309 1.9807 63.6509 1.6927C63.9709 1.4047 64.4149 1.2607 64.9829 1.2607C65.5429 1.2607 65.9829 1.4047 66.3029 1.6927C66.6229 1.9807 66.7949 2.3687 66.8189 2.8567C66.8349 3.1767 66.8429 3.3847 66.8429 3.4807C66.8429 3.5767 66.8349 3.7447 66.8189 3.9847C66.7869 4.4647 66.6069 4.8487 66.2789 5.1367C65.9509 5.4167 65.5189 5.5567 64.9829 5.5567ZM64.0229 9.7207C63.9429 9.7207 63.8749 9.7007 63.8189 9.6607C63.7709 9.6127 63.7469 9.5527 63.7469 9.4807C63.7469 9.4327 63.7629 9.3887 63.7949 9.3487L69.7229 1.5487C69.7869 1.4687 69.8469 1.4127 69.9029 1.3807C69.9589 1.3407 70.0389 1.3207 70.1429 1.3207H70.9949C71.0749 1.3207 71.1389 1.3447 71.1869 1.3927C71.2429 1.4327 71.2709 1.4887 71.2709 1.5607C71.2709 1.6087 71.2549 1.6527 71.2229 1.6927L65.2949 9.4927C65.2309 9.5727 65.1709 9.6327 65.1149 9.6727C65.0589 9.7047 64.9789 9.7207 64.8749 9.7207H64.0229ZM64.9829 4.5127C65.3189 4.5127 65.5029 4.3167 65.5349 3.9247C65.5509 3.6687 65.5589 3.5007 65.5589 3.4207C65.5589 3.3167 65.5509 3.1527 65.5349 2.9287C65.5269 2.7527 65.4749 2.6087 65.3789 2.4967C65.2909 2.3847 65.1589 2.3287 64.9829 2.3287C64.7989 2.3287 64.6629 2.3847 64.5749 2.4967C64.4869 2.6087 64.4349 2.7527 64.4189 2.9287C64.4109 3.0407 64.4069 3.2047 64.4069 3.4207C64.4069 3.6287 64.4109 3.7967 64.4189 3.9247C64.4509 4.3167 64.6389 4.5127 64.9829 4.5127ZM70.0589 9.7807C69.5149 9.7807 69.0789 9.6407 68.7509 9.3607C68.4309 9.0727 68.2509 8.6847 68.2109 8.1967C68.2029 8.0607 68.1989 7.8767 68.1989 7.6447C68.1989 7.4047 68.2029 7.2127 68.2109 7.0687C68.2429 6.5727 68.4149 6.1807 68.7269 5.8927C69.0469 5.6047 69.4909 5.4607 70.0589 5.4607C70.6269 5.4607 71.0669 5.6047 71.3789 5.8927C71.6989 6.1807 71.8749 6.5727 71.9069 7.0687C71.9229 7.3887 71.9309 7.5967 71.9309 7.6927C71.9309 7.7887 71.9229 7.9567 71.9069 8.1967C71.8749 8.6767 71.6949 9.0607 71.3669 9.3487C71.0389 9.6367 70.6029 9.7807 70.0589 9.7807ZM70.0589 8.7247C70.2429 8.7247 70.3789 8.6687 70.4669 8.5567C70.5549 8.4367 70.6069 8.2927 70.6229 8.1247C70.6389 7.8847 70.6469 7.7167 70.6469 7.6207C70.6469 7.5167 70.6389 7.3527 70.6229 7.1287C70.6069 6.9607 70.5549 6.8207 70.4669 6.7087C70.3789 6.5887 70.2429 6.5287 70.0589 6.5287C69.8749 6.5287 69.7389 6.5887 69.6509 6.7087C69.5629 6.8207 69.5149 6.9607 69.5069 7.1287C69.4989 7.2407 69.4949 7.4047 69.4949 7.6207C69.4949 7.8367 69.4989 8.0047 69.5069 8.1247C69.5229 8.3007 69.5709 8.4447 69.6509 8.5567C69.7389 8.6687 69.8749 8.7247 70.0589 8.7247Z" fill="white"/>
</svg>
