<svg width="143" height="12" viewBox="0 0 143 12" fill="none" xmlns="http://www.w3.org/2000/svg">
<path d="M4.60809 9.12C3.84809 9.12 3.19609 9.008 2.65209 8.784C2.10809 8.56 1.69609 8.268 1.41609 7.908C1.14409 7.54 1.00009 7.14 0.984093 6.708C0.984093 6.644 1.00809 6.588 1.05609 6.54C1.11209 6.484 1.17609 6.456 1.24809 6.456H2.76009C2.85609 6.456 2.93209 6.476 2.98809 6.516C3.05209 6.548 3.11609 6.6 3.18009 6.672C3.28409 6.88 3.45209 7.052 3.68409 7.188C3.91609 7.324 4.22409 7.392 4.60809 7.392C5.06409 7.392 5.41209 7.32 5.65209 7.176C5.89209 7.032 6.01209 6.836 6.01209 6.588C6.01209 6.412 5.94809 6.268 5.82009 6.156C5.70009 6.044 5.50809 5.944 5.24409 5.856C4.98009 5.768 4.58809 5.668 4.06809 5.556C3.10809 5.356 2.38809 5.064 1.90809 4.68C1.43609 4.288 1.20009 3.732 1.20009 3.012C1.20009 2.524 1.33609 2.088 1.60809 1.704C1.88009 1.32 2.26809 1.02 2.77209 0.804C3.27609 0.588 3.86409 0.48 4.53609 0.48C5.23209 0.48 5.83609 0.6 6.34809 0.84C6.86009 1.08 7.24809 1.384 7.51209 1.752C7.78409 2.112 7.92809 2.468 7.94409 2.82C7.94409 2.892 7.92009 2.952 7.87209 3C7.82409 3.048 7.76409 3.072 7.69209 3.072H6.10809C6.01209 3.072 5.93209 3.056 5.86809 3.024C5.81209 2.992 5.76009 2.94 5.71209 2.868C5.66409 2.684 5.53209 2.528 5.31609 2.4C5.10809 2.272 4.84809 2.208 4.53609 2.208C4.17609 2.208 3.90009 2.272 3.70809 2.4C3.51609 2.528 3.42009 2.716 3.42009 2.964C3.42009 3.132 3.47209 3.272 3.57609 3.384C3.68809 3.496 3.86409 3.6 4.10409 3.696C4.35209 3.784 4.70409 3.876 5.16009 3.972C5.90409 4.108 6.49609 4.28 6.93609 4.488C7.38409 4.688 7.71209 4.952 7.92009 5.28C8.12809 5.6 8.23209 6.004 8.23209 6.492C8.23209 7.028 8.07609 7.496 7.76409 7.896C7.46009 8.288 7.03209 8.592 6.48009 8.808C5.93609 9.016 5.31209 9.12 4.60809 9.12ZM9.36112 9C9.28112 9 9.20912 8.972 9.14512 8.916C9.08912 8.852 9.06112 8.78 9.06112 8.7V0.779999C9.06112 0.691999 9.08912 0.62 9.14512 0.564C9.20912 0.508 9.28112 0.48 9.36112 0.48H10.8971C10.9851 0.48 11.0571 0.508 11.1131 0.564C11.1691 0.62 11.1971 0.691999 11.1971 0.779999V3.456C11.6771 2.912 12.3091 2.64 13.0931 2.64C13.5571 2.64 13.9691 2.744 14.3291 2.952C14.6971 3.16 14.9851 3.468 15.1931 3.876C15.4011 4.284 15.5051 4.776 15.5051 5.352V8.7C15.5051 8.78 15.4771 8.852 15.4211 8.916C15.3651 8.972 15.2931 9 15.2051 9H13.6571C13.5771 9 13.5051 8.972 13.4411 8.916C13.3851 8.852 13.3571 8.78 13.3571 8.7V5.424C13.3571 5.048 13.2651 4.76 13.0811 4.56C12.9051 4.352 12.6451 4.248 12.3011 4.248C11.9571 4.248 11.6851 4.352 11.4851 4.56C11.2931 4.76 11.1971 5.048 11.1971 5.424V8.7C11.1971 8.788 11.1691 8.86 11.1131 8.916C11.0571 8.972 10.9851 9 10.8971 9H9.36112ZM18.4978 9.12C18.0738 9.12 17.6858 9.04 17.3338 8.88C16.9898 8.712 16.7178 8.488 16.5178 8.208C16.3258 7.92 16.2298 7.604 16.2298 7.26C16.2298 6.708 16.4538 6.264 16.9018 5.928C17.3578 5.592 17.9818 5.36 18.7738 5.232L20.2738 5.004V4.836C20.2738 4.532 20.2098 4.308 20.0818 4.164C19.9538 4.02 19.7378 3.948 19.4338 3.948C19.2498 3.948 19.0978 3.98 18.9778 4.044C18.8578 4.108 18.7338 4.196 18.6058 4.308C18.4938 4.404 18.4098 4.468 18.3538 4.5C18.3298 4.564 18.2858 4.596 18.2218 4.596H16.9138C16.8338 4.596 16.7658 4.572 16.7098 4.524C16.6618 4.468 16.6418 4.404 16.6498 4.332C16.6578 4.116 16.7618 3.876 16.9618 3.612C17.1698 3.348 17.4818 3.12 17.8978 2.928C18.3218 2.736 18.8418 2.64 19.4578 2.64C20.4418 2.64 21.1698 2.86 21.6418 3.3C22.1138 3.732 22.3498 4.316 22.3498 5.052V8.7C22.3498 8.78 22.3218 8.852 22.2658 8.916C22.2098 8.972 22.1378 9 22.0498 9H20.6578C20.5778 9 20.5058 8.972 20.4418 8.916C20.3858 8.852 20.3578 8.78 20.3578 8.7V8.28C20.1818 8.528 19.9338 8.732 19.6138 8.892C19.3018 9.044 18.9298 9.12 18.4978 9.12ZM19.0618 7.752C19.4298 7.752 19.7258 7.632 19.9498 7.392C20.1818 7.152 20.2978 6.8 20.2978 6.336V6.168L19.2778 6.348C18.5578 6.476 18.1978 6.728 18.1978 7.104C18.1978 7.304 18.2818 7.464 18.4498 7.584C18.6178 7.696 18.8218 7.752 19.0618 7.752ZM23.7639 9C23.6759 9 23.6039 8.972 23.5479 8.916C23.4919 8.86 23.4639 8.788 23.4639 8.7V3.06C23.4639 2.972 23.4919 2.9 23.5479 2.844C23.6039 2.788 23.6759 2.76 23.7639 2.76H25.1439C25.2319 2.76 25.3039 2.792 25.3599 2.856C25.4239 2.912 25.4559 2.98 25.4559 3.06V3.54C25.8959 3.02 26.4879 2.76 27.2319 2.76H27.7599C27.8479 2.76 27.9199 2.788 27.9759 2.844C28.0319 2.9 28.0599 2.972 28.0599 3.06V4.296C28.0599 4.376 28.0319 4.448 27.9759 4.512C27.9199 4.568 27.8479 4.596 27.7599 4.596H26.5959C26.2679 4.596 26.0119 4.688 25.8279 4.872C25.6519 5.048 25.5639 5.3 25.5639 5.628V8.7C25.5639 8.788 25.5319 8.86 25.4679 8.916C25.4119 8.972 25.3399 9 25.2519 9H23.7639ZM28.9612 1.86C28.8732 1.86 28.8012 1.832 28.7452 1.776C28.6892 1.72 28.6612 1.648 28.6612 1.56V0.48C28.6612 0.392 28.6892 0.32 28.7452 0.263999C28.8012 0.208 28.8732 0.18 28.9612 0.18H30.4012C30.4892 0.18 30.5612 0.208 30.6172 0.263999C30.6732 0.32 30.7012 0.392 30.7012 0.48V1.56C30.7012 1.648 30.6732 1.72 30.6172 1.776C30.5612 1.832 30.4892 1.86 30.4012 1.86H28.9612ZM28.9732 9C28.8852 9 28.8132 8.972 28.7572 8.916C28.7012 8.86 28.6732 8.788 28.6732 8.7V3.06C28.6732 2.972 28.7012 2.9 28.7572 2.844C28.8132 2.788 28.8852 2.76 28.9732 2.76H30.3892C30.4772 2.76 30.5492 2.788 30.6052 2.844C30.6612 2.9 30.6892 2.972 30.6892 3.06V8.7C30.6892 8.78 30.6612 8.852 30.6052 8.916C30.5492 8.972 30.4772 9 30.3892 9H28.9732ZM32.1667 9C32.0787 9 32.0067 8.972 31.9507 8.916C31.8947 8.86 31.8667 8.788 31.8667 8.7V3.06C31.8667 2.972 31.8947 2.9 31.9507 2.844C32.0067 2.788 32.0787 2.76 32.1667 2.76H33.5467C33.6347 2.76 33.7067 2.788 33.7627 2.844C33.8267 2.9 33.8587 2.972 33.8587 3.06V3.516C34.0747 3.252 34.3507 3.04 34.6867 2.88C35.0307 2.72 35.4187 2.64 35.8507 2.64C36.5547 2.64 37.1267 2.88 37.5667 3.36C38.0067 3.832 38.2267 4.496 38.2267 5.352V8.7C38.2267 8.78 38.1987 8.852 38.1427 8.916C38.0867 8.972 38.0147 9 37.9267 9H36.4147C36.3347 9 36.2627 8.972 36.1987 8.916C36.1427 8.852 36.1147 8.78 36.1147 8.7V5.424C36.1147 5.048 36.0227 4.76 35.8387 4.56C35.6547 4.352 35.3907 4.248 35.0467 4.248C34.7107 4.248 34.4467 4.352 34.2547 4.56C34.0627 4.76 33.9667 5.048 33.9667 5.424V8.7C33.9667 8.78 33.9387 8.852 33.8827 8.916C33.8267 8.972 33.7547 9 33.6667 9H32.1667ZM42.3977 11.64C41.6377 11.64 41.0217 11.516 40.5497 11.268C40.0777 11.02 39.7377 10.736 39.5297 10.416C39.3297 10.096 39.2297 9.828 39.2297 9.612C39.2297 9.54 39.2617 9.476 39.3257 9.42C39.3897 9.364 39.4617 9.336 39.5417 9.336H41.0657C41.1457 9.336 41.2057 9.352 41.2457 9.384C41.2937 9.424 41.3377 9.488 41.3777 9.576C41.4577 9.76 41.5657 9.904 41.7017 10.008C41.8377 10.12 42.0497 10.176 42.3377 10.176C42.7057 10.176 42.9777 10.084 43.1537 9.9C43.3297 9.724 43.4177 9.424 43.4177 9V8.196C43.0097 8.644 42.4257 8.868 41.6657 8.868C40.8577 8.868 40.2377 8.632 39.8057 8.16C39.3817 7.68 39.1497 6.988 39.1097 6.084L39.0977 5.76C39.0977 4.792 39.3137 4.032 39.7457 3.48C40.1777 2.92 40.8177 2.64 41.6657 2.64C42.0737 2.64 42.4337 2.72 42.7457 2.88C43.0577 3.032 43.3217 3.24 43.5377 3.504V3.06C43.5377 2.972 43.5657 2.9 43.6217 2.844C43.6857 2.788 43.7577 2.76 43.8377 2.76H45.2177C45.3057 2.76 45.3777 2.792 45.4337 2.856C45.4977 2.912 45.5297 2.98 45.5297 3.06V8.832C45.5297 9.744 45.2577 10.44 44.7137 10.92C44.1697 11.4 43.3977 11.64 42.3977 11.64ZM42.3137 7.308C42.6737 7.308 42.9417 7.2 43.1177 6.984C43.2937 6.76 43.3937 6.48 43.4177 6.144C43.4257 6.088 43.4297 5.964 43.4297 5.772C43.4297 5.588 43.4257 5.468 43.4177 5.412C43.4017 5.076 43.3017 4.8 43.1177 4.584C42.9417 4.36 42.6737 4.248 42.3137 4.248C41.9377 4.248 41.6657 4.36 41.4977 4.584C41.3297 4.808 41.2377 5.116 41.2217 5.508L41.2097 5.772C41.2097 6.244 41.2897 6.62 41.4497 6.9C41.6097 7.172 41.8977 7.308 42.3137 7.308ZM50.4883 9C50.3763 9 50.2883 8.976 50.2243 8.928C50.1683 8.872 50.1243 8.796 50.0923 8.7L48.3643 3.144L48.3403 3.024C48.3403 2.952 48.3683 2.892 48.4243 2.844C48.4803 2.788 48.5443 2.76 48.6163 2.76H49.8523C49.9483 2.76 50.0283 2.788 50.0923 2.844C50.1563 2.892 50.1963 2.948 50.2123 3.012L51.2203 6.444L52.3003 3.024C52.3163 2.96 52.3563 2.9 52.4203 2.844C52.4843 2.788 52.5683 2.76 52.6723 2.76H53.4643C53.5683 2.76 53.6523 2.788 53.7163 2.844C53.7803 2.9 53.8203 2.96 53.8363 3.024L54.9163 6.444L55.9243 3.012C55.9403 2.948 55.9803 2.892 56.0443 2.844C56.1083 2.788 56.1883 2.76 56.2843 2.76H57.5203C57.5923 2.76 57.6563 2.788 57.7123 2.844C57.7683 2.892 57.7963 2.952 57.7963 3.024L57.7723 3.144L56.0443 8.7C56.0123 8.796 55.9643 8.872 55.9003 8.928C55.8443 8.976 55.7603 9 55.6483 9H54.5683C54.3603 9 54.2283 8.9 54.1723 8.7L53.0683 5.412L51.9643 8.7C51.9083 8.9 51.7763 9 51.5683 9H50.4883ZM58.851 1.86C58.763 1.86 58.691 1.832 58.635 1.776C58.579 1.72 58.551 1.648 58.551 1.56V0.48C58.551 0.392 58.579 0.32 58.635 0.263999C58.691 0.208 58.763 0.18 58.851 0.18H60.291C60.379 0.18 60.451 0.208 60.507 0.263999C60.563 0.32 60.591 0.392 60.591 0.48V1.56C60.591 1.648 60.563 1.72 60.507 1.776C60.451 1.832 60.379 1.86 60.291 1.86H58.851ZM58.863 9C58.775 9 58.703 8.972 58.647 8.916C58.591 8.86 58.563 8.788 58.563 8.7V3.06C58.563 2.972 58.591 2.9 58.647 2.844C58.703 2.788 58.775 2.76 58.863 2.76H60.279C60.367 2.76 60.439 2.788 60.495 2.844C60.551 2.9 60.579 2.972 60.579 3.06V8.7C60.579 8.78 60.551 8.852 60.495 8.916C60.439 8.972 60.367 9 60.279 9H58.863ZM64.9486 9C63.2926 9 62.4646 8.212 62.4646 6.636V4.332H61.5286C61.4406 4.332 61.3646 4.304 61.3006 4.248C61.2446 4.192 61.2166 4.12 61.2166 4.032V3.06C61.2166 2.972 61.2446 2.9 61.3006 2.844C61.3646 2.788 61.4406 2.76 61.5286 2.76H62.4646V0.779999C62.4646 0.691999 62.4926 0.62 62.5486 0.564C62.6126 0.508 62.6846 0.48 62.7646 0.48H64.1566C64.2446 0.48 64.3166 0.508 64.3726 0.564C64.4286 0.62 64.4566 0.691999 64.4566 0.779999V2.76H65.9566C66.0446 2.76 66.1166 2.788 66.1726 2.844C66.2366 2.9 66.2686 2.972 66.2686 3.06V4.032C66.2686 4.12 66.2366 4.192 66.1726 4.248C66.1166 4.304 66.0446 4.332 65.9566 4.332H64.4566V6.468C64.4566 7.06 64.6846 7.356 65.1406 7.356H66.0646C66.1526 7.356 66.2246 7.384 66.2806 7.44C66.3366 7.496 66.3646 7.568 66.3646 7.656V8.7C66.3646 8.78 66.3366 8.852 66.2806 8.916C66.2246 8.972 66.1526 9 66.0646 9H64.9486ZM67.4182 9C67.3382 9 67.2662 8.972 67.2022 8.916C67.1462 8.852 67.1182 8.78 67.1182 8.7V0.779999C67.1182 0.691999 67.1462 0.62 67.2022 0.564C67.2662 0.508 67.3382 0.48 67.4182 0.48H68.9542C69.0422 0.48 69.1142 0.508 69.1702 0.564C69.2262 0.62 69.2542 0.691999 69.2542 0.779999V3.456C69.7342 2.912 70.3662 2.64 71.1502 2.64C71.6142 2.64 72.0262 2.744 72.3862 2.952C72.7542 3.16 73.0422 3.468 73.2502 3.876C73.4582 4.284 73.5622 4.776 73.5622 5.352V8.7C73.5622 8.78 73.5342 8.852 73.4782 8.916C73.4222 8.972 73.3502 9 73.2622 9H71.7142C71.6342 9 71.5622 8.972 71.4982 8.916C71.4422 8.852 71.4142 8.78 71.4142 8.7V5.424C71.4142 5.048 71.3222 4.76 71.1382 4.56C70.9622 4.352 70.7022 4.248 70.3582 4.248C70.0142 4.248 69.7422 4.352 69.5422 4.56C69.3502 4.76 69.2542 5.048 69.2542 5.424V8.7C69.2542 8.788 69.2262 8.86 69.1702 8.916C69.1142 8.972 69.0422 9 68.9542 9H67.4182ZM80.5615 9.12C79.4335 9.12 78.5455 8.844 77.8975 8.292C77.2495 7.74 76.9055 6.928 76.8655 5.856C76.8575 5.624 76.8535 5.28 76.8535 4.824C76.8535 4.36 76.8575 4.012 76.8655 3.78C76.9055 2.724 77.2535 1.912 77.9095 1.344C78.5735 0.768 79.4575 0.48 80.5615 0.48C81.6655 0.48 82.5495 0.768 83.2135 1.344C83.8775 1.912 84.2255 2.724 84.2575 3.78C84.2735 4.244 84.2815 4.592 84.2815 4.824C84.2815 5.048 84.2735 5.392 84.2575 5.856C84.2175 6.928 83.8735 7.74 83.2255 8.292C82.5775 8.844 81.6895 9.12 80.5615 9.12ZM80.5615 7.392C81.0015 7.392 81.3495 7.26 81.6055 6.996C81.8695 6.732 82.0095 6.328 82.0255 5.784C82.0415 5.32 82.0495 4.992 82.0495 4.8C82.0495 4.592 82.0415 4.264 82.0255 3.816C82.0095 3.272 81.8695 2.868 81.6055 2.604C81.3415 2.34 80.9935 2.208 80.5615 2.208C80.1295 2.208 79.7815 2.34 79.5175 2.604C79.2615 2.868 79.1215 3.272 79.0975 3.816C79.0895 4.04 79.0855 4.368 79.0855 4.8C79.0855 5.224 79.0895 5.552 79.0975 5.784C79.1215 6.328 79.2615 6.732 79.5175 6.996C79.7735 7.26 80.1215 7.392 80.5615 7.392ZM88.4925 9C86.8365 9 86.0085 8.212 86.0085 6.636V4.332H85.0725C84.9845 4.332 84.9085 4.304 84.8445 4.248C84.7885 4.192 84.7605 4.12 84.7605 4.032V3.06C84.7605 2.972 84.7885 2.9 84.8445 2.844C84.9085 2.788 84.9845 2.76 85.0725 2.76H86.0085V0.779999C86.0085 0.691999 86.0365 0.62 86.0925 0.564C86.1565 0.508 86.2285 0.48 86.3085 0.48H87.7005C87.7885 0.48 87.8605 0.508 87.9165 0.564C87.9725 0.62 88.0005 0.691999 88.0005 0.779999V2.76H89.5005C89.5885 2.76 89.6605 2.788 89.7165 2.844C89.7805 2.9 89.8125 2.972 89.8125 3.06V4.032C89.8125 4.12 89.7805 4.192 89.7165 4.248C89.6605 4.304 89.5885 4.332 89.5005 4.332H88.0005V6.468C88.0005 7.06 88.2285 7.356 88.6845 7.356H89.6085C89.6965 7.356 89.7685 7.384 89.8245 7.44C89.8805 7.496 89.9085 7.568 89.9085 7.656V8.7C89.9085 8.78 89.8805 8.852 89.8245 8.916C89.7685 8.972 89.6965 9 89.6085 9H88.4925ZM90.9621 9C90.8821 9 90.8101 8.972 90.7461 8.916C90.6901 8.852 90.6621 8.78 90.6621 8.7V0.779999C90.6621 0.691999 90.6901 0.62 90.7461 0.564C90.8101 0.508 90.8821 0.48 90.9621 0.48H92.4981C92.5861 0.48 92.6581 0.508 92.7141 0.564C92.7701 0.62 92.7981 0.691999 92.7981 0.779999V3.456C93.2781 2.912 93.9101 2.64 94.6941 2.64C95.1581 2.64 95.5701 2.744 95.9301 2.952C96.2981 3.16 96.5861 3.468 96.7941 3.876C97.0021 4.284 97.1061 4.776 97.1061 5.352V8.7C97.1061 8.78 97.0781 8.852 97.0221 8.916C96.9661 8.972 96.8941 9 96.8061 9H95.2581C95.1781 9 95.1061 8.972 95.0421 8.916C94.9861 8.852 94.9581 8.78 94.9581 8.7V5.424C94.9581 5.048 94.8661 4.76 94.6821 4.56C94.5061 4.352 94.2461 4.248 93.9021 4.248C93.5581 4.248 93.2861 4.352 93.0861 4.56C92.8941 4.76 92.7981 5.048 92.7981 5.424V8.7C92.7981 8.788 92.7701 8.86 92.7141 8.916C92.6581 8.972 92.5861 9 92.4981 9H90.9621ZM101.107 9.12C100.147 9.12 99.3908 8.86 98.8388 8.34C98.2868 7.82 97.9988 7.064 97.9748 6.072V5.652C98.0068 4.708 98.2988 3.972 98.8508 3.444C99.4108 2.908 100.159 2.64 101.095 2.64C101.775 2.64 102.347 2.78 102.811 3.06C103.283 3.332 103.635 3.708 103.867 4.188C104.107 4.668 104.227 5.22 104.227 5.844V6.132C104.227 6.212 104.199 6.284 104.143 6.348C104.087 6.404 104.015 6.432 103.927 6.432H100.087V6.516C100.103 6.892 100.195 7.196 100.363 7.428C100.531 7.66 100.775 7.776 101.095 7.776C101.295 7.776 101.459 7.736 101.587 7.656C101.715 7.568 101.831 7.464 101.935 7.344C102.007 7.256 102.063 7.204 102.103 7.188C102.151 7.164 102.223 7.152 102.319 7.152H103.807C103.879 7.152 103.939 7.176 103.987 7.224C104.043 7.264 104.071 7.32 104.071 7.392C104.071 7.6 103.951 7.84 103.711 8.112C103.479 8.384 103.139 8.62 102.691 8.82C102.243 9.02 101.715 9.12 101.107 9.12ZM102.115 5.244V5.22C102.115 4.828 102.023 4.52 101.839 4.296C101.663 4.064 101.415 3.948 101.095 3.948C100.783 3.948 100.535 4.064 100.351 4.296C100.175 4.52 100.087 4.828 100.087 5.22V5.244H102.115ZM105.412 9C105.324 9 105.252 8.972 105.196 8.916C105.14 8.86 105.112 8.788 105.112 8.7V3.06C105.112 2.972 105.14 2.9 105.196 2.844C105.252 2.788 105.324 2.76 105.412 2.76H106.792C106.88 2.76 106.952 2.792 107.008 2.856C107.072 2.912 107.104 2.98 107.104 3.06V3.54C107.544 3.02 108.136 2.76 108.88 2.76H109.408C109.496 2.76 109.568 2.788 109.624 2.844C109.68 2.9 109.708 2.972 109.708 3.06V4.296C109.708 4.376 109.68 4.448 109.624 4.512C109.568 4.568 109.496 4.596 109.408 4.596H108.244C107.916 4.596 107.66 4.688 107.476 4.872C107.3 5.048 107.212 5.3 107.212 5.628V8.7C107.212 8.788 107.18 8.86 107.116 8.916C107.06 8.972 106.988 9 106.9 9H105.412ZM112.889 9.12C112.241 9.12 111.697 9.028 111.257 8.844C110.825 8.66 110.505 8.44 110.297 8.184C110.089 7.928 109.985 7.7 109.985 7.5C109.985 7.42 110.013 7.356 110.069 7.308C110.133 7.252 110.201 7.224 110.273 7.224H111.641C111.689 7.224 111.733 7.244 111.773 7.284C111.869 7.348 111.941 7.4 111.989 7.44C112.165 7.568 112.317 7.664 112.445 7.728C112.581 7.784 112.745 7.812 112.937 7.812C113.169 7.812 113.357 7.768 113.501 7.68C113.653 7.584 113.729 7.452 113.729 7.284C113.729 7.148 113.689 7.04 113.609 6.96C113.537 6.88 113.393 6.804 113.177 6.732C112.961 6.652 112.633 6.568 112.193 6.48C111.529 6.344 111.017 6.124 110.657 5.82C110.305 5.508 110.129 5.092 110.129 4.572C110.129 4.244 110.233 3.932 110.441 3.636C110.649 3.34 110.957 3.1 111.365 2.916C111.781 2.732 112.273 2.64 112.841 2.64C113.409 2.64 113.905 2.728 114.329 2.904C114.753 3.08 115.073 3.296 115.289 3.552C115.513 3.8 115.625 4.028 115.625 4.236C115.625 4.308 115.597 4.372 115.541 4.428C115.493 4.484 115.433 4.512 115.361 4.512H114.113C114.049 4.512 113.989 4.492 113.933 4.452C113.829 4.396 113.737 4.336 113.657 4.272C113.521 4.168 113.393 4.088 113.273 4.032C113.153 3.976 113.005 3.948 112.829 3.948C112.621 3.948 112.453 3.996 112.325 4.092C112.205 4.188 112.145 4.312 112.145 4.464C112.145 4.584 112.177 4.684 112.241 4.764C112.313 4.844 112.457 4.924 112.673 5.004C112.897 5.076 113.225 5.152 113.657 5.232C114.433 5.368 114.997 5.608 115.349 5.952C115.709 6.296 115.889 6.7 115.889 7.164C115.889 7.756 115.625 8.232 115.097 8.592C114.569 8.944 113.833 9.12 112.889 9.12ZM120.408 9C120.336 9 120.276 8.976 120.228 8.928C120.18 8.872 120.156 8.808 120.156 8.736C120.156 8.68 120.172 8.628 120.204 8.58L121.896 6.264C121.792 6.288 121.676 6.3 121.548 6.3C121.052 6.268 120.584 6.132 120.144 5.892C119.704 5.652 119.348 5.324 119.076 4.908C118.804 4.492 118.668 4.016 118.668 3.48C118.668 2.952 118.8 2.46 119.064 2.004C119.328 1.548 119.716 1.18 120.228 0.9C120.748 0.62 121.372 0.48 122.1 0.48C122.836 0.48 123.468 0.608 123.996 0.864C124.532 1.12 124.936 1.472 125.208 1.92C125.48 2.36 125.616 2.852 125.616 3.396C125.616 3.836 125.524 4.236 125.34 4.596C125.164 4.956 124.9 5.38 124.548 5.868C124.532 5.884 124.468 5.972 124.356 6.132L122.436 8.76C122.324 8.92 122.18 9 122.004 9H120.408ZM122.124 4.716C122.492 4.716 122.796 4.604 123.036 4.38C123.276 4.156 123.396 3.852 123.396 3.468C123.396 3.084 123.276 2.78 123.036 2.556C122.796 2.324 122.492 2.208 122.124 2.208C121.756 2.208 121.452 2.324 121.212 2.556C120.98 2.78 120.864 3.084 120.864 3.468C120.864 3.852 120.984 4.156 121.224 4.38C121.464 4.604 121.764 4.716 122.124 4.716ZM129.836 9.12C128.732 9.112 127.896 8.82 127.328 8.244C126.76 7.66 126.452 6.896 126.404 5.952C126.388 5.52 126.38 5.136 126.38 4.8C126.38 4.456 126.388 4.06 126.404 3.612C126.436 3.012 126.58 2.48 126.836 2.016C127.1 1.544 127.484 1.172 127.988 0.9C128.492 0.62 129.108 0.48 129.836 0.48C130.916 0.487999 131.748 0.779999 132.332 1.356C132.916 1.932 133.232 2.684 133.28 3.612C133.296 4.06 133.304 4.456 133.304 4.8C133.304 5.136 133.296 5.52 133.28 5.952C133.224 6.896 132.912 7.66 132.344 8.244C131.776 8.82 130.94 9.112 129.836 9.12ZM129.836 7.38C130.228 7.38 130.52 7.252 130.712 6.996C130.912 6.732 131.02 6.364 131.036 5.892C131.052 5.66 131.06 5.288 131.06 4.776C131.06 4.264 131.052 3.9 131.036 3.684C131.02 3.228 130.916 2.868 130.724 2.604C130.532 2.34 130.236 2.204 129.836 2.196C129.444 2.204 129.148 2.34 128.948 2.604C128.756 2.868 128.652 3.228 128.636 3.684C128.628 3.9 128.624 4.264 128.624 4.776C128.624 5.288 128.628 5.66 128.636 5.892C128.676 6.884 129.076 7.38 129.836 7.38ZM135.988 4.836C135.444 4.836 135.008 4.696 134.68 4.416C134.352 4.128 134.172 3.744 134.14 3.264C134.124 3.024 134.116 2.856 134.116 2.76C134.116 2.664 134.124 2.456 134.14 2.136C134.164 1.648 134.336 1.26 134.656 0.972C134.976 0.684 135.42 0.539999 135.988 0.539999C136.548 0.539999 136.988 0.684 137.308 0.972C137.628 1.26 137.8 1.648 137.824 2.136C137.84 2.456 137.848 2.664 137.848 2.76C137.848 2.856 137.84 3.024 137.824 3.264C137.792 3.744 137.612 4.128 137.284 4.416C136.956 4.696 136.524 4.836 135.988 4.836ZM135.028 9C134.948 9 134.88 8.98 134.824 8.94C134.776 8.892 134.752 8.832 134.752 8.76C134.752 8.712 134.768 8.668 134.8 8.628L140.728 0.827999C140.792 0.747999 140.852 0.691999 140.908 0.659999C140.964 0.619999 141.044 0.599999 141.148 0.599999H142C142.08 0.599999 142.144 0.624 142.192 0.672C142.248 0.712 142.276 0.768 142.276 0.84C142.276 0.888 142.26 0.932 142.228 0.972L136.3 8.772C136.236 8.852 136.176 8.912 136.12 8.952C136.064 8.984 135.984 9 135.88 9H135.028ZM135.988 3.792C136.324 3.792 136.508 3.596 136.54 3.204C136.556 2.948 136.564 2.78 136.564 2.7C136.564 2.596 136.556 2.432 136.54 2.208C136.532 2.032 136.48 1.888 136.384 1.776C136.296 1.664 136.164 1.608 135.988 1.608C135.804 1.608 135.668 1.664 135.58 1.776C135.492 1.888 135.44 2.032 135.424 2.208C135.416 2.32 135.412 2.484 135.412 2.7C135.412 2.908 135.416 3.076 135.424 3.204C135.456 3.596 135.644 3.792 135.988 3.792ZM141.064 9.06C140.52 9.06 140.084 8.92 139.756 8.64C139.436 8.352 139.256 7.964 139.216 7.476C139.208 7.34 139.204 7.156 139.204 6.924C139.204 6.684 139.208 6.492 139.216 6.348C139.248 5.852 139.42 5.46 139.732 5.172C140.052 4.884 140.496 4.74 141.064 4.74C141.632 4.74 142.072 4.884 142.384 5.172C142.704 5.46 142.88 5.852 142.912 6.348C142.928 6.668 142.936 6.876 142.936 6.972C142.936 7.068 142.928 7.236 142.912 7.476C142.88 7.956 142.7 8.34 142.372 8.628C142.044 8.916 141.608 9.06 141.064 9.06ZM141.064 8.004C141.248 8.004 141.384 7.948 141.472 7.836C141.56 7.716 141.612 7.572 141.628 7.404C141.644 7.164 141.652 6.996 141.652 6.9C141.652 6.796 141.644 6.632 141.628 6.408C141.612 6.24 141.56 6.1 141.472 5.988C141.384 5.868 141.248 5.808 141.064 5.808C140.88 5.808 140.744 5.868 140.656 5.988C140.568 6.1 140.52 6.24 140.512 6.408C140.504 6.52 140.5 6.684 140.5 6.9C140.5 7.116 140.504 7.284 140.512 7.404C140.528 7.58 140.576 7.724 140.656 7.836C140.744 7.948 140.88 8.004 141.064 8.004Z" fill="white"/>
</svg>
